SplineFontDB: 3.0
FontName: Oswald
FullName: empty
FamilyName: Oswald
Weight: empty
Copyright: 2010-13 (c) Vernon Adams
Version: 4
ItalicAngle: 0
UnderlinePosition: -173
UnderlineWidth: 90
Ascent: 1658
Descent: 390
UFOAscent: 1658
UFODescent: -390
LayerCount: 2
Layer: 0 0 "Back"  1
Layer: 1 0 "Fore"  0
FSType: 0
OS2Version: 0
OS2_WeightWidthSlopeOnly: 0
OS2_UseTypoMetrics: 0
CreationTime: 1372385173
ModificationTime: 1372385295
PfmFamily: 0
TTFWeight: 688
TTFWidth: 5
LineGap: 0
VLineGap: 0
OS2TypoAscent: 1658
OS2TypoAOffset: 0
OS2TypoDescent: -390
OS2TypoDOffset: 0
OS2TypoLinegap: 0
OS2WinAscent: 1658
OS2WinAOffset: 0
OS2WinDescent: 390
OS2WinDOffset: 0
HheadAscent: 1658
HheadAOffset: 0
HheadDescent: -390
HheadDOffset: 0
OS2Vendor: 'newt'
Lookup: 258 0 0 "'kern' Horizontal Kerning in Cyrillic lookup 0"  {"'kern' Horizontal Kerning in Cyrillic lookup 0 subtable"  } ['kern' ('cyrl' <'dflt' > ) ]
Lookup: 258 0 0 "'kern' Horizontal Kerning in Latin lookup 0"  {"'kern' Horizontal Kerning in Latin lookup 0 subtable"  } ['kern' ('latn' <'dflt' > ) ]
Lookup: 258 0 0 "'kern' Horizontal Kerning lookup 2"  {"'kern' Horizontal Kerning lookup 2 per glyph data 0"  "'kern' Horizontal Kerning lookup 2 kerning class 1"  } ['kern' ('DFLT' <'dflt' > ) ]
Lookup: 260 0 0 "markMarkPositioninglookup2"  {"markMarkPositioninglookup2 subtable"  } ['mark' ('latn' <'dflt' > 'grek' <'dflt' > 'cyrl' <'dflt' > 'DFLT' <'dflt' > ) ]
DEI: 91125
KernClass2: 44 59 "'kern' Horizontal Kerning lookup 2 kerning class 1" 
 89 A Aacute Abreve Acircumflex Adieresis Agrave Amacron Aogonek Aring Atilde uni0200 uni0202
 9 B uni1E02
 16 D Dcaron uni1E0A
 94 E Eacute Ebreve Ecaron Ecircumflex Edieresis Edotaccent Egrave Emacron Eogonek uni0204 uni0206
 9 F uni1E1E
 52 G Gbreve Gcircumflex Gcommaaccent Gdotaccent uni01F4
 14 K Kcommaaccent
 28 L Lacute Lcaron Lcommaaccent
 9 P uni1E56
 44 R Racute Rcaron Rcommaaccent uni0210 uni0212
 37 T Tcaron Tcommaaccent uni021A uni1E6A
 1 V

StartChar: A
Encoding: 65 65 0
Width: 1127
VWidth: 0
Flags: HW
AnchorPoint: "ogonek" 831 0 basechar 0
LayerCount: 2
UndoRedoHistory
Layer: 1
Undoes
EndUndoes
Redoes
EndRedoes
EndUndoRedoHistory
Fore
SplineSet
478 571 m 1
 566 1213 l 1
 655 571 l 1
 478 571 l 1
43 0 m 1
 390 0 l 1
 446 352 l 1
 688 352 l 1
 745 0 l 1
 1083 0 l 1
 771 1658 l 1
 357 1658 l 1
 43 0 l 1
EndSplineSet
EndChar

StartChar: AE
Encoding: 198 198 1
Width: 1445
VWidth: 0
Flags: HW
LayerCount: 2
UndoRedoHistory
Layer: 1
Undoes
EndUndoes
Redoes
EndRedoes
EndUndoRedoHistory
Fore
SplineSet
552 578 m 1
 742 1088 l 1
 742 578 l 1
 552 578 l 1
-32 0 m 1
 334 0 l 1
 476 347 l 1
 742 347 l 1
 742 0 l 1
 1406 0 l 1
 1406 248 l 1
 1057 248 l 1
 1057 729 l 1
 1304 729 l 1
 1304 984 l 1
 1057 984 l 1
 1057 1386 l 1
 1406 1386 l 1
 1406 1635 l 1
 691 1635 l 1
 -32 0 l 1
EndSplineSet
EndChar

StartChar: B
Encoding: 66 66 11
Width: 1204
VWidth: 0
Flags: HW
HStem: 0 256<565 716.883> 753 242<558 709.505> 1412 246<546 696.365>
VStem: 761 320<1049.57 1348.59> 780 353<320.332 684.524>
LayerCount: 2
UndoRedoHistory
Layer: 1
Undoes
EndUndoes
Redoes
EndRedoes
EndUndoRedoHistory
Fore
SplineSet
488 995 m 1
 488 1412 l 1
 546 1412 l 2
 686 1412 761 1351 761 1216 c 0
 761 1074 724 995 558 995 c 2
 488 995 l 1
488 256 m 1
 488 753 l 1
 560 753 l 2
 724 753 780 683 780 497 c 0
 780 337 729 256 565 256 c 2
 488 256 l 1
122 0 m 1
 632 0 l 2
 949 0 1137 148 1133 492 c 0
 1130 729 1029 866 838 891 c 1
 988 918 1078 1022 1081 1224 c 1
 1089 1593 838 1658 554 1658 c 2
 122 1658 l 1
 122 0 l 1
EndSplineSet
EndChar

StartChar: C
Encoding: 67 67 12
Width: 1151
VWidth: 0
Flags: HW
HStem: -23 259<508.528 684.489> 1422 259<507.234 684.735>
VStem: 99 373<265.474 532 1123 1394.13> 716 358<263.726 472 1202 1396.23>
AnchorPoint: "cedilla" 480 0 basechar 0
LayerCount: 2
UndoRedoHistory
Layer: 1
Undoes
EndUndoes
Redoes
EndRedoes
EndUndoRedoHistory
Fore
SplineSet
597 -23 m 0
 968 -23 1074 188 1074 472 c 2
 1074 615 l 1
 716 615 l 1
 716 441 l 2
 716 340 713 236 597 236 c 0
 491 236 472 324 472 441 c 2
 472 1214 l 2
 472 1318 480 1422 597 1422 c 0
 716 1422 716 1320 716 1223 c 2
 716 1056 l 1
 1074 1056 l 1
 1074 1202 l 2
 1074 1485 964 1681 597 1681 c 0
 218 1681 99 1470 99 1123 c 2
 99 532 l 2
 99 194 218 -23 597 -23 c 0
EndSplineSet
EndChar

StartChar: D
Encoding: 68 68 18
Width: 1196
VWidth: 0
Flags: HW
HStem: 0 254<544 673.536> 1402 256<539 687.582>
VStem: 721 376<293.203 535 1133 1371>
LayerCount: 2
UndoRedoHistory
Layer: 1
Undoes
EndUndoes
Redoes
EndRedoes
EndUndoRedoHistory
Fore
SplineSet
122 0 m 1
 544 0 l 2
 971 0 1097 160 1097 535 c 2
 1097 1133 l 2
 1097 1505 973 1658 539 1658 c 2
 122 1658 l 1
 122 0 l 1
488 254 m 1
 488 1402 l 1
 543 1402 l 2
 706 1402 721 1344 721 1194 c 2
 721 481 l 2
 721 326 712 254 544 254 c 2
 488 254 l 1
EndSplineSet
EndChar

StartChar: Dcroat
Encoding: 264 272 20
Width: 1205
VWidth: 0
Flags: HW
HStem: 0 254<554 700.314> 1402 256<549 697.252>
VStem: 738 368<293.203 535 1133 1359.32>
LayerCount: 2
UndoRedoHistory
Layer: 1
Undoes
EndUndoes
Redoes
EndRedoes
EndUndoRedoHistory
Fore
SplineSet
131 0 m 1
 554 0 l 2
 981 0 1106 160 1106 535 c 2
 1106 1133 l 2
 1106 1505 982 1658 549 1658 c 2
 131 1658 l 1
 131 934 l 1
 27 934 l 1
 27 765 l 1
 131 765 l 1
 131 0 l 1
489 254 m 1
 489 765 l 1
 588 765 l 1
 588 934 l 1
 489 934 l 1
 489 1402 l 1
 559 1402 l 2
 722 1402 738 1344 738 1194 c 2
 738 481 l 2
 738 326 728 254 561 254 c 2
 489 254 l 1
EndSplineSet
EndChar

StartChar: E
Encoding: 69 69 21
Width: 915
VWidth: 0
Flags: HW
AnchorPoint: "ogonek" 511 0 basechar 0
LayerCount: 2
UndoRedoHistory
Layer: 1
Undoes
EndUndoes
Redoes
EndRedoes
EndUndoRedoHistory
Fore
SplineSet
122 0 m 1
 871 0 l 1
 871 248 l 1
 488 248 l 1
 488 743 l 1
 777 743 l 1
 777 998 l 1
 488 998 l 1
 488 1408 l 1
 867 1408 l 1
 867 1658 l 1
 122 1658 l 1
 122 0 l 1
EndSplineSet
EndChar

StartChar: Eng
Encoding: 269 330 30
Width: 1161
VWidth: 0
Flags: HW
HStem: -429 219<502 693.646>
VStem: 732 300<-173.668 0>
LayerCount: 2
UndoRedoHistory
Layer: 1
Undoes
EndUndoes
Redoes
EndRedoes
EndUndoRedoHistory
Fore
SplineSet
502 -429 m 1
 652 -429 l 2
 959 -429 1032 -281 1032 0 c 2
 1032 1658 l 1
 732 1658 l 1
 732 862 l 1
 387 1658 l 1
 129 1658 l 1
 129 0 l 1
 439 0 l 1
 439 858 l 1
 746 157 l 1
 746 -27 l 2
 746 -164 687 -213 502 -210 c 1
 502 -429 l 1
EndSplineSet
EndChar

StartChar: Eth
Encoding: 208 208 32
Width: 1146
VWidth: 0
Flags: HW
HStem: 0 254<528 657.796> 1402 256<523 671.582>
VStem: 705 376<293.203 535 1133 1371>
LayerCount: 2
UndoRedoHistory
Layer: 1
Undoes
EndUndoes
Redoes
EndRedoes
EndUndoRedoHistory
Fore
SplineSet
106 0 m 1
 528 0 l 2
 956 0 1081 160 1081 535 c 2
 1081 1133 l 2
 1081 1505 957 1658 523 1658 c 2
 106 1658 l 1
 106 941 l 1
 16 941 l 1
 16 758 l 1
 106 758 l 1
 106 0 l 1
472 254 m 1
 472 758 l 1
 555 758 l 1
 555 941 l 1
 472 941 l 1
 472 1402 l 1
 527 1402 l 2
 690 1402 705 1344 705 1194 c 2
 705 481 l 2
 705 326 696 254 528 254 c 2
 472 254 l 1
EndSplineSet
EndChar

StartChar: Euro
Encoding: 271 8364 33
Width: 1144
VWidth: 0
Flags: HW
HStem: -23 259<527.136 702.917> 1422 259<525.842 702.849>
VStem: 118 373<265.474 532 1123 1394.13> 734 359<263.726 472 1202 1396.23>
LayerCount: 2
UndoRedoHistory
Layer: 1
Undoes
EndUndoes
Redoes
EndRedoes
EndUndoRedoHistory
Fore
SplineSet
615 -23 m 0
 987 -23 1093 188 1093 472 c 2
 1093 527 l 1
 734 527 l 1
 734 441 l 2
 734 340 732 236 616 236 c 0
 510 236 491 324 491 441 c 2
 491 645 l 1
 700 645 l 1
 700 763 l 1
 491 763 l 1
 491 884 l 1
 700 884 l 1
 700 1003 l 1
 491 1003 l 1
 491 1214 l 2
 491 1318 499 1422 616 1422 c 0
 734 1422 734 1320 734 1223 c 2
 734 1101 l 1
 1093 1101 l 1
 1093 1202 l 2
 1093 1485 982 1681 615 1681 c 0
 237 1681 118 1470 118 1123 c 2
 118 1003 l 1
 14 1003 l 1
 14 884 l 1
 118 884 l 1
 118 763 l 1
 14 763 l 1
 14 645 l 1
 118 645 l 1
 118 532 l 2
 118 194 237 -23 615 -23 c 0
EndSplineSet
EndChar

StartChar: F
Encoding: 70 70 34
Width: 887
VWidth: 0
Flags: HW
LayerCount: 2
UndoRedoHistory
Layer: 1
Undoes
EndUndoes
Redoes
EndRedoes
EndUndoRedoHistory
Fore
SplineSet
122 0 m 1
 488 0 l 1
 488 736 l 1
 791 736 l 1
 791 992 l 1
 488 992 l 1
 488 1409 l 1
 840 1409 l 1
 840 1658 l 1
 122 1658 l 1
 122 0 l 1
EndSplineSet
EndChar

StartChar: G
Encoding: 71 71 35
Width: 1190
VWidth: 0
Flags: HW
HStem: -24 260<518.251 710.012> 1422 259<509.755 695.825>
VStem: 99 375<277.59 551 1102 1381.1> 724 358<1195 1394.12> 755 331<281.097 643>
LayerCount: 2
UndoRedoHistory
Layer: 1
Undoes
EndUndoes
Redoes
EndRedoes
EndUndoRedoHistory
Fore
SplineSet
555 -24 m 0
 701 -24 780 45 822 139 c 1
 843 0 l 1
 1086 0 l 1
 1086 862 l 1
 605 862 l 1
 605 643 l 1
 755 643 l 1
 755 457 l 2
 755 339 725 236 611 236 c 0
 498 236 474 335 474 450 c 2
 474 1209 l 2
 474 1313 482 1422 602 1422 c 0
 718 1422 724 1329 724 1223 c 2
 724 1090 l 1
 1082 1090 l 1
 1082 1195 l 2
 1082 1487 964 1681 597 1681 c 0
 219 1681 99 1457 99 1102 c 2
 99 551 l 2
 99 207 212 -24 555 -24 c 0
EndSplineSet
EndChar

StartChar: H
Encoding: 72 72 40
Width: 1247
VWidth: 0
Flags: HW
LayerCount: 2
UndoRedoHistory
Layer: 1
Undoes
EndUndoes
Redoes
EndRedoes
EndUndoRedoHistory
Fore
SplineSet
129 0 m 1
 496 0 l 1
 496 726 l 1
 751 726 l 1
 751 0 l 1
 1118 0 l 1
 1118 1658 l 1
 751 1658 l 1
 751 988 l 1
 496 988 l 1
 496 1658 l 1
 129 1658 l 1
 129 0 l 1
EndSplineSet
EndChar

StartChar: Hbar
Encoding: 276 294 41
Width: 1109
VWidth: 0
Flags: HW
LayerCount: 2
UndoRedoHistory
Layer: 1
Undoes
EndUndoes
Redoes
EndRedoes
EndUndoRedoHistory
Fore
SplineSet
445 988 m 1
 445 1258 l 1
 687 1258 l 1
 687 988 l 1
 445 988 l 1
78 0 m 1
 445 0 l 1
 445 726 l 1
 687 726 l 1
 687 0 l 1
 1053 0 l 1
 1053 1258 l 1
 1135 1258 l 1
 1135 1374 l 1
 1053 1374 l 1
 1053 1658 l 1
 687 1658 l 1
 687 1374 l 1
 445 1374 l 1
 445 1658 l 1
 78 1658 l 1
 78 1374 l 1
 -25 1374 l 1
 -25 1258 l 1
 78 1258 l 1
 78 0 l 1
EndSplineSet
EndChar

StartChar: I
Encoding: 73 73 43
Width: 615
VWidth: 0
Flags: HW
VStem: 125 366
AnchorPoint: "ogonek" 220 0 basechar 0
LayerCount: 2
UndoRedoHistory
Layer: 1
Undoes
EndUndoes
Redoes
EndRedoes
EndUndoRedoHistory
Fore
SplineSet
125 0 m 1
 491 0 l 1
 491 1658 l 1
 125 1658 l 1
 125 0 l 1
EndSplineSet
EndChar

StartChar: J
Encoding: 74 74 53
Width: 715
VWidth: 0
Flags: HW
HStem: -40 255<26 195.549>
AnchorPoint: "circumflexcomb" 338 1658 basechar 0
LayerCount: 2
UndoRedoHistory
Layer: 1
Undoes
EndUndoes
Redoes
EndRedoes
EndUndoRedoHistory
Fore
SplineSet
26 -40 m 1
 204 -40 l 2
 505 -40 587 97 592 369 c 1
 592 1658 l 1
 226 1658 l 1
 226 383 l 2
 226 242 176 213 26 215 c 1
 26 -40 l 1
EndSplineSet
EndChar

StartChar: K
Encoding: 75 75 55
Width: 1160
VWidth: 0
Flags: HW
LayerCount: 2
UndoRedoHistory
Layer: 1
Undoes
EndUndoes
Redoes
EndRedoes
EndUndoRedoHistory
Fore
SplineSet
122 0 m 1
 488 0 l 1
 488 684 l 1
 524 741 l 1
 766 0 l 1
 1140 0 l 1
 818 909 l 1
 1125 1658 l 1
 768 1658 l 1
 488 984 l 1
 488 1658 l 1
 122 1658 l 1
 122 0 l 1
EndSplineSet
EndChar

StartChar: L
Encoding: 76 76 57
Width: 906
VWidth: 0
Flags: HW
LayerCount: 2
UndoRedoHistory
Layer: 1
Undoes
EndUndoes
Redoes
EndRedoes
EndUndoRedoHistory
Fore
SplineSet
122 0 m 1
 868 0 l 1
 868 248 l 1
 488 248 l 1
 488 1658 l 1
 122 1658 l 1
 122 0 l 1
EndSplineSet
EndChar

StartChar: Lslash
Encoding: 289 321 62
Width: 921
VWidth: 0
Flags: HW
LayerCount: 2
UndoRedoHistory
Layer: 1
Undoes
EndUndoes
Redoes
EndRedoes
EndUndoRedoHistory
Fore
SplineSet
138 0 m 1
 883 0 l 1
 883 248 l 1
 504 248 l 1
 504 906 l 1
 706 1003 l 1
 706 1206 l 1
 504 1109 l 1
 504 1658 l 1
 138 1658 l 1
 138 936 l 1
 15 876 l 1
 15 672 l 1
 138 732 l 1
 138 0 l 1
EndSplineSet
EndChar

StartChar: M
Encoding: 77 77 63
Width: 1441
VWidth: 0
Flags: HW
VStem: 117 265<0 635.372> 144 263<777.663 1108> 1035 262<777.663 1100> 1062 262<0 584.059>
LayerCount: 2
UndoRedoHistory
Layer: 1
Undoes
EndUndoes
Redoes
EndRedoes
EndUndoRedoHistory
Fore
SplineSet
117 0 m 1
 382 0 l 1
 407 1108 l 1
 611 0 l 1
 840 0 l 1
 1035 1100 l 1
 1062 0 l 1
 1324 0 l 1
 1297 1658 l 1
 918 1658 l 1
 720 688 l 1
 536 1658 l 1
 144 1658 l 1
 117 0 l 1
EndSplineSet
EndChar

StartChar: N
Encoding: 78 78 64
Width: 1146
VWidth: 0
Flags: HW
LayerCount: 2
UndoRedoHistory
Layer: 1
Undoes
EndUndoes
Redoes
EndRedoes
EndUndoRedoHistory
Fore
SplineSet
122 0 m 1
 435 0 l 1
 435 858 l 1
 777 0 l 1
 1025 0 l 1
 1025 1658 l 1
 721 1658 l 1
 721 862 l 1
 380 1658 l 1
 122 1658 l 1
 122 0 l 1
EndSplineSet
EndChar

StartChar: O
Encoding: 79 79 69
Width: 1198
VWidth: 0
Flags: HW
HStem: -23 259<509.514 686.739> 1422 259<508.497 687.793>
VStem: 99 376<268.589 524 1136 1391.46> 724 376<269.025 524 1136 1390.59>
AnchorPoint: "ogonek" 581 0 basechar 0
LayerCount: 2
UndoRedoHistory
Layer: 1
Undoes
EndUndoes
Redoes
EndRedoes
EndUndoRedoHistory
Fore
SplineSet
598 -23 m 0
 971 -23 1100 181 1100 524 c 2
 1100 1136 l 2
 1100 1479 971 1681 598 1681 c 0
 224 1681 99 1481 99 1136 c 2
 99 524 l 2
 99 180 224 -23 598 -23 c 0
598 236 m 0
 483 236 475 336 475 433 c 2
 475 1228 l 2
 475 1325 483 1422 598 1422 c 0
 712 1422 724 1325 724 1228 c 2
 724 433 l 2
 724 336 712 236 598 236 c 0
EndSplineSet
EndChar

StartChar: OE
Encoding: 293 338 70
Width: 1472
VWidth: 0
Flags: HW
VStem: 99 367<294.661 569 1064 1350.59>
LayerCount: 2
UndoRedoHistory
Layer: 1
Undoes
EndUndoes
Redoes
EndRedoes
EndUndoRedoHistory
Fore
SplineSet
607 253 m 1
 475 252 466 377 466 502 c 2
 466 1125 l 2
 466 1253 470 1393 605 1393 c 2
 706 1393 l 1
 706 253 l 1
 607 253 l 1
605 0 m 2
 1419 0 l 1
 1419 248 l 1
 1072 248 l 1
 1072 728 l 1
 1328 728 l 1
 1328 984 l 1
 1072 984 l 1
 1072 1403 l 1
 1418 1403 l 1
 1418 1652 l 1
 600 1652 l 2
 222 1652 99 1403 99 1064 c 2
 99 569 l 2
 99 220 227 0 605 0 c 2
EndSplineSet
EndChar

StartChar: Oslash
Encoding: 216 216 78
Width: 1170
VWidth: 0
Flags: HW
HStem: -23 259<509.514 686.739> 1422 259<508.497 687.793>
VStem: 99 376<268.589 524 1136 1391.46> 724 376<269.025 524 1136 1390.59>
LayerCount: 2
UndoRedoHistory
Layer: 1
Undoes
EndUndoes
Redoes
EndRedoes
EndUndoRedoHistory
Fore
SplineSet
250 -182 m 1
 977 1778 l 1
 896 1810 l 1
 169 -150 l 1
 250 -182 l 1
EndSplineSet
Refer: 69 79 N 1 0 0 1 0 0 2
EndChar

StartChar: P
Encoding: 80 80 80
Width: 1162
VWidth: 0
Flags: HW
HStem: 706 255<605 729.9> 1401 257<604 728.863>
VStem: 769 344<1002.45 1361.18>
LayerCount: 2
UndoRedoHistory
Layer: 1
Undoes
EndUndoes
Redoes
EndRedoes
EndUndoRedoHistory
Fore
SplineSet
488 961 m 1
 488 1401 l 1
 604 1401 l 2
 755 1401 769 1310 769 1183 c 0
 769 1032 744 961 605 961 c 2
 488 961 l 1
122 0 m 1
 488 0 l 1
 488 706 l 1
 632 706 l 2
 901 706 1113 796 1113 1177 c 0
 1113 1486 972 1658 675 1658 c 2
 122 1658 l 1
 122 0 l 1
EndSplineSet
EndChar

StartChar: Pi
Encoding: 297 928 81
Width: 1248
VWidth: 0
Flags: HW
LayerCount: 2
UndoRedoHistory
Layer: 1
Undoes
EndUndoes
Redoes
EndRedoes
EndUndoRedoHistory
Fore
SplineSet
106 0 m 1
 431 0 l 1
 431 1395 l 1
 817 1395 l 1
 817 0 l 1
 1142 0 l 1
 1142 1658 l 1
 106 1658 l 1
 106 0 l 1
EndSplineSet
EndChar

StartChar: Q
Encoding: 81 81 82
Width: 1198
VWidth: 0
Flags: HW
HStem: -23 259<514.844 662.43> 1422 259<508.497 687.793>
VStem: 99 376<268.589 524 1136 1391.46> 724 376<271.251 524 1136 1390.59>
LayerCount: 2
UndoRedoHistory
Layer: 1
Undoes
EndUndoes
Redoes
EndRedoes
EndUndoRedoHistory
Fore
SplineSet
598 236 m 0
 483 236 475 336 475 433 c 2
 475 1228 l 2
 475 1325 483 1422 598 1422 c 0
 712 1422 724 1325 724 1228 c 2
 724 433 l 2
 724 336 712 236 598 236 c 0
971 -326 m 1
 1047 -107 l 1
 992 -78 933 -21 881 36 c 1
 1039 119 1100 289 1100 524 c 2
 1100 1136 l 2
 1100 1479 971 1681 598 1681 c 0
 224 1681 99 1481 99 1136 c 2
 99 524 l 2
 99 180 224 -23 598 -23 c 0
 609 -23 621 -23 632 -23 c 1
 717 -154 878 -287 971 -326 c 1
EndSplineSet
EndChar

StartChar: R
Encoding: 82 82 83
Width: 1224
VWidth: 0
Flags: HW
HStem: 1412 246<574 721.743>
VStem: 786 341<1016.01 1356.16>
LayerCount: 2
UndoRedoHistory
Layer: 1
Undoes
EndUndoes
Redoes
EndRedoes
EndUndoRedoHistory
Fore
SplineSet
488 953 m 1
 488 1412 l 1
 601 1412 l 2
 743 1412 786 1331 786 1186 c 0
 786 1038 738 953 582 953 c 2
 488 953 l 1
122 0 m 1
 488 0 l 1
 488 742 l 1
 591 742 l 1
 773 0 l 1
 1152 0 l 1
 924 803 l 1
 1085 880 1127 1015 1127 1219 c 0
 1127 1570 908 1658 574 1658 c 2
 122 1658 l 1
 122 0 l 1
EndSplineSet
EndChar

StartChar: S
Encoding: 83 83 87
Width: 1052
VWidth: 0
Flags: HW
HStem: -23 277<459.223 616.012> 1413 268<473.699 614.064>
VStem: 86 314<317.434 503> 87 354<1135.48 1391.36> 637 360<267.039 535.385> 648 317<1211 1386.79>
AnchorPoint: "cedilla" 470 0 basechar 0
LayerCount: 2
UndoRedoHistory
Layer: 1
Undoes
EndUndoes
Redoes
EndRedoes
EndUndoRedoHistory
Fore
SplineSet
562 -23 m 0
 827 -23 997 158 997 394 c 0
 997 623 880 765 740 890 c 1
 599 1014 l 1
 520 1085 441 1152 441 1284 c 0
 441 1342 471 1411 540 1413 c 0
 636 1417 645 1315 648 1170 c 1
 965 1211 l 1
 957 1406 906 1682 551 1681 c 0
 266 1680 87 1526 87 1247 c 0
 87 1033 185 922 309 815 c 2
 456 688 l 2
 567 592 637 514 637 374 c 0
 637 318 620 254 544 254 c 0
 452 254 403 339 400 551 c 1
 86 503 l 1
 98 134 249 -23 562 -23 c 0
EndSplineSet
EndChar

StartChar: T
Encoding: 84 84 93
Width: 914
VWidth: 0
Flags: HW
AnchorPoint: "cedilla" 380 0 basechar 0
LayerCount: 2
UndoRedoHistory
Layer: 1
Undoes
EndUndoes
Redoes
EndRedoes
EndUndoRedoHistory
Fore
SplineSet
275 0 m 1
 642 0 l 1
 642 1387 l 1
 894 1387 l 1
 894 1658 l 1
 20 1658 l 1
 20 1387 l 1
 275 1387 l 1
 275 0 l 1
EndSplineSet
EndChar

StartChar: Tbar
Encoding: 306 358 94
Width: 914
VWidth: 0
Flags: HW
LayerCount: 2
UndoRedoHistory
Layer: 1
Undoes
EndUndoes
Redoes
EndRedoes
EndUndoRedoHistory
Fore
SplineSet
94 756 m 1
 829 756 l 1
 829 933 l 1
 94 933 l 1
 94 756 l 1
EndSplineSet
Refer: 93 84 N 1 0 0 1 0 0 2
EndChar

StartChar: Thorn
Encoding: 222 222 97
Width: 1147
VWidth: 0
Flags: HW
HStem: 477 262<585 731.032> 1172 265<596 732.064>
VStem: 782 336<792.191 1119.45>
LayerCount: 2
UndoRedoHistory
Layer: 1
Undoes
EndUndoes
Redoes
EndRedoes
EndUndoRedoHistory
Fore
SplineSet
472 739 m 1
 472 1172 l 1
 596 1172 l 2
 734 1172 782 1106 782 958 c 0
 782 797 728 739 585 739 c 2
 472 739 l 1
106 0 m 1
 472 0 l 1
 472 477 l 1
 611 478 l 2
 954 480 1118 581 1118 974 c 0
 1118 1306 958 1437 631 1437 c 2
 472 1437 l 1
 472 1658 l 1
 106 1658 l 1
 106 0 l 1
EndSplineSet
EndChar

StartChar: U
Encoding: 85 85 98
Width: 1202
VWidth: 0
Flags: HW
HStem: -23 265<512.526 688.997>
VStem: 111 362<275.793 522> 728 363<275.793 522>
AnchorPoint: "ogonek" 581 0 basechar 0
LayerCount: 2
UndoRedoHistory
Layer: 1
Undoes
EndUndoes
Redoes
EndRedoes
EndUndoRedoHistory
Fore
SplineSet
601 -23 m 0
 982 -23 1091 170 1091 522 c 2
 1091 1658 l 1
 728 1658 l 1
 728 468 l 2
 728 359 718 242 601 242 c 0
 483 242 473 359 473 468 c 2
 473 1658 l 1
 111 1658 l 1
 111 522 l 2
 111 170 219 -23 601 -23 c 0
EndSplineSet
EndChar

StartChar: V
Encoding: 86 86 109
Width: 1078
VWidth: 0
Flags: HW
LayerCount: 2
UndoRedoHistory
Layer: 1
Undoes
EndUndoes
Redoes
EndRedoes
EndUndoRedoHistory
Fore
SplineSet
346 0 m 1
 731 0 l 1
 1035 1658 l 1
 702 1658 l 1
 537 540 l 1
 359 1658 l 1
 46 1658 l 1
 346 0 l 1
EndSplineSet
EndChar

StartChar: W
Encoding: 87 87 110
Width: 1432
VWidth: 0
Flags: HW
VStem: 593 242<1554.74 1658>
LayerCount: 2
UndoRedoHistory
Layer: 1
Undoes
EndUndoes
Redoes
EndRedoes
EndUndoRedoHistory
Fore
SplineSet
257 0 m 1
 579 0 l 1
 715 1000 l 1
 856 0 l 1
 1174 0 l 1
 1375 1658 l 1
 1068 1658 l 1
 968 700 l 1
 835 1658 l 1
 593 1658 l 1
 466 695 l 1
 368 1658 l 1
 57 1658 l 1
 257 0 l 1
EndSplineSet
EndChar

StartChar: X
Encoding: 88 88 115
Width: 1055
VWidth: 0
Flags: HW
LayerCount: 2
UndoRedoHistory
Layer: 1
Undoes
EndUndoes
Redoes
EndRedoes
EndUndoRedoHistory
Fore
SplineSet
14 0 m 1
 318 0 l 1
 497 494 l 1
 698 0 l 1
 1041 0 l 1
 719 799 l 1
 1010 1658 l 1
 702 1658 l 1
 556 1210 l 1
 375 1658 l 1
 28 1658 l 1
 337 894 l 1
 14 0 l 1
EndSplineSet
EndChar

StartChar: Y
Encoding: 89 89 116
AltUni2: 0004ae.ffffffff.0
Width: 1011
VWidth: 0
Flags: HW
LayerCount: 2
UndoRedoHistory
Layer: 1
Undoes
EndUndoes
Redoes
EndRedoes
EndUndoRedoHistory
Fore
SplineSet
332 0 m 1
 683 0 l 1
 683 678 l 1
 995 1658 l 1
 662 1658 l 1
 519 1133 l 1
 361 1658 l 1
 16 1658 l 1
 332 678 l 1
 332 0 l 1
EndSplineSet
EndChar

StartChar: Z
Encoding: 90 90 121
Width: 885
VWidth: 0
Flags: HW
LayerCount: 2
UndoRedoHistory
Layer: 1
Undoes
EndUndoes
Redoes
EndRedoes
EndUndoRedoHistory
Fore
SplineSet
62 0 m 1
 830 0 l 1
 830 248 l 1
 414 248 l 1
 827 1455 l 1
 827 1658 l 1
 78 1658 l 1
 78 1409 l 1
 464 1409 l 1
 62 222 l 1
 62 0 l 1
EndSplineSet
EndChar

StartChar: a
Encoding: 97 97 125
Width: 976
VWidth: 0
Flags: HW
HStem: -21 230<259 481.656> 956 248<428.406 548.512>
VStem: 73 304<227.168 454.42> 560 320<223.642 297 717.323 735 848 949.486>
AnchorPoint: "ogonek" 632 0 basechar 0
LayerCount: 2
UndoRedoHistory
Layer: 1
Undoes
EndUndoes
Redoes
EndRedoes
EndUndoRedoHistory
Fore
SplineSet
469 209 m 0
 416 209 377 257 377 335 c 0
 377 426 453 535 560 589 c 1
 560 265 l 1
 540 237 503 209 469 209 c 0
348 -21 m 1
 474 -21 547 70 576 168 c 1
 578 144 604 0 604 0 c 1
 901 0 l 1
 894 61 880 148 880 297 c 2
 880 848 l 2
 880 1056 762 1204 522 1204 c 0
 264 1204 120 1089 100 826 c 0
 100 822 98 792 98 787 c 1
 410 775 l 1
 418 862 l 1
 420 913 434 956 490 956 c 0
 547 956 560 912 560 852 c 2
 560 735 l 1
 377 660 73 586 73 268 c 0
 73 130 170 -18 348 -21 c 1
EndSplineSet
EndChar

StartChar: acute
Encoding: 180 180 129
Width: 633
VWidth: 0
Flags: HW
HStem: 1246 412
LayerCount: 2
UndoRedoHistory
Layer: 1
Undoes
EndUndoes
Redoes
EndRedoes
EndUndoRedoHistory
Fore
SplineSet
111 1246 m 1
 319 1246 l 1
 578 1658 l 1
 236 1658 l 1
 111 1246 l 1
EndSplineSet
EndChar

StartChar: acutecomb
Encoding: 326 769 130
Width: 468
VWidth: 0
Flags: HW
HStem: 1246 412
LayerCount: 2
UndoRedoHistory
Layer: 1
Undoes
EndUndoes
Redoes
EndRedoes
EndUndoRedoHistory
Fore
SplineSet
61 1246 m 1
 270 1246 l 1
 529 1658 l 1
 187 1658 l 1
 61 1246 l 1
EndSplineSet
EndChar

StartChar: ae
Encoding: 230 230 132
Width: 1369
VWidth: 0
Flags: HW
HStem: -24 239<367.821 521.91 866.742 970.989> 952 281<404.238 529.211> 1013 219<875.887 1005.37>
VStem: 61 295<216.951 446.616> 539 316<219.417 398 840 945.203> 1020 279<796.856 1004.28>
LayerCount: 2
UndoRedoHistory
Layer: 1
Undoes
EndUndoes
Redoes
EndRedoes
EndUndoRedoHistory
Fore
SplineSet
855 746 m 1
 855 878 l 2
 855 959 892 1013 945 1013 c 0
 992 1013 1020 973 1020 901 c 0
 1020 834 995 803 954 782 c 1
 936 764 884 750 855 746 c 1
442 204 m 0
 380 204 356 271 356 317 c 0
 356 370 386 463 475 517 c 0
 495 528 516 537 539 544 c 1
 541 349 l 1
 541 239 496 204 442 204 c 0
366 -24 m 1
 494 -28 621 42 673 160 c 1
 700 40 836 -24 947 -24 c 0
 1170 -23 1289 102 1289 320 c 2
 1289 414 l 1
 980 414 l 1
 980 351 l 2
 980 275 981 215 922 215 c 0
 855 215 855 302 855 398 c 2
 855 594 l 1
 880 599 942 610 966 616 c 0
 1133 654 1299 722 1299 915 c 0
 1299 1073 1185 1232 949 1232 c 0
 824 1232 721 1165 686 1077 c 1
 662 1167 567 1233 441 1233 c 0
 184 1233 61 1071 64 799 c 1
 388 799 l 1
 388 919 417 952 465 952 c 0
 514 952 539 920 539 840 c 2
 539 691 l 1
 506 685 423 668 383 659 c 0
 219 618 61 530 61 277 c 0
 61 86 201 -21 366 -24 c 1
EndSplineSet
EndChar

StartChar: afii10018
Encoding: 328 1041 134
Width: 1132
VWidth: 0
Flags: HW
HStem: 0 242<536 668.957> 705 253<534 666.943>
VStem: 723 339<300.398 649.418>
LayerCount: 2
UndoRedoHistory
Layer: 1
Undoes
EndUndoes
Redoes
EndRedoes
EndUndoRedoHistory
Fore
SplineSet
496 242 m 1
 496 705 l 1
 534 705 l 2
 684 705 720 613 723 488 c 0
 727 315 677 242 538 242 c 2
 496 242 l 1
129 0 m 1
 536 0 l 2
 831 0 1062 77 1062 481 c 0
 1062 816 885 958 568 958 c 2
 496 958 l 1
 496 1380 l 1
 951 1380 l 1
 951 1658 l 1
 129 1658 l 1
 129 0 l 1
EndSplineSet
EndChar

StartChar: afii10019
Encoding: 329 1042 135
Width: 1206
VWidth: 0
Flags: HW
HStem: 0 256<572 723.883> 753 242<565 716.889> 1412 246<554 703.371>
VStem: 769 320<1049.57 1348.59> 787 353<320.332 684.524>
LayerCount: 2
UndoRedoHistory
Layer: 1
Undoes
EndUndoes
Redoes
EndRedoes
EndUndoRedoHistory
Fore
SplineSet
496 995 m 1
 496 1412 l 1
 554 1412 l 2
 693 1412 769 1351 769 1216 c 0
 769 1074 731 995 565 995 c 2
 496 995 l 1
496 256 m 1
 496 753 l 1
 567 753 l 2
 731 753 787 683 787 497 c 0
 787 337 736 256 572 256 c 2
 496 256 l 1
129 0 m 1
 639 0 l 2
 956 0 1145 148 1140 492 c 0
 1137 729 1036 866 845 891 c 1
 995 918 1085 1022 1089 1224 c 0
 1096 1593 845 1658 561 1658 c 2
 129 1658 l 1
 129 0 l 1
EndSplineSet
EndChar

StartChar: afii10020
Encoding: 330 1043 136
Width: 944
VWidth: 0
Flags: HW
LayerCount: 2
UndoRedoHistory
Layer: 1
Undoes
EndUndoes
Redoes
EndRedoes
EndUndoRedoHistory
Fore
SplineSet
129 0 m 1
 496 0 l 1
 496 1387 l 1
 893 1387 l 1
 893 1658 l 1
 129 1658 l 1
 129 0 l 1
EndSplineSet
EndChar

StartChar: afii10021
Encoding: 331 1044 137
Width: 1420
VWidth: 0
Flags: HW
HStem: -20 20G<309.883 1121.12>
VStem: 36 255<-358 -101.386> 1140 244<-358 -101.386>
LayerCount: 2
UndoRedoHistory
Layer: 1
Undoes
EndUndoes
Redoes
EndRedoes
EndUndoRedoHistory
Fore
SplineSet
429 262 m 1
 535 357 648 458 682 1046 c 1
 701 1398 l 1
 853 1398 l 1
 853 262 l 1
 429 262 l 1
36 -358 m 1
 291 -358 l 1
 311 0 l 1
 1120 0 l 1
 1140 -358 l 1
 1384 -358 l 1
 1384 262 l 1
 1195 262 l 1
 1195 1658 l 1
 423 1658 l 1
 380 1085 l 1
 341 522 239 314 85 262 c 1
 36 262 l 1
 36 -358 l 1
EndSplineSet
EndChar

StartChar: afii10024
Encoding: 334 1046 140
Width: 1625
VWidth: 0
Flags: HW
LayerCount: 2
UndoRedoHistory
Layer: 1
Undoes
EndUndoes
Redoes
EndRedoes
EndUndoRedoHistory
Fore
SplineSet
10 0 m 1
 339 0 l 1
 649 806 l 1
 668 806 l 1
 668 0 l 1
 957 0 l 1
 957 806 l 1
 975 806 l 1
 1285 0 l 1
 1615 0 l 1
 1266 833 l 1
 1604 1658 l 1
 1262 1658 l 1
 975 881 l 1
 957 881 l 1
 957 1658 l 1
 668 1658 l 1
 668 881 l 1
 650 881 l 1
 362 1658 l 1
 20 1658 l 1
 359 833 l 1
 10 0 l 1
EndSplineSet
EndChar

StartChar: afii10025
Encoding: 335 1047 141
Width: 1075
VWidth: 0
Flags: HW
HStem: -30 288<464.347 633.012> 734 226<461 598.868> 1409 275<451.361 625.05>
VStem: 86 344<289.066 489> 660 338<279.105 671.642 1019.96 1375.5>
LayerCount: 2
UndoRedoHistory
Layer: 1
Undoes
EndUndoes
Redoes
EndRedoes
EndUndoRedoHistory
Fore
SplineSet
545 -30 m 0
 875 -30 998 183 998 488 c 0
 998 721 912 825 794 869 c 1
 908 900 998 1041 998 1233 c 0
 998 1529 821 1684 533 1684 c 0
 252 1684 67 1518 67 1220 c 2
 67 1120 l 1
 410 1120 l 1
 410 1125 410 1206 410 1211 c 0
 413 1328 442 1409 533 1409 c 0
 624 1409 660 1340 660 1211 c 0
 660 1048 623 964 461 960 c 0
 457 960 384 960 379 960 c 1
 379 734 l 1
 384 734 463 733 468 733 c 0
 625 728 660 641 660 478 c 0
 660 333 644 258 549 258 c 0
 457 258 431 322 430 483 c 0
 429 489 429 542 429 548 c 1
 86 548 l 1
 86 489 l 2
 86 179 198 -30 545 -30 c 0
EndSplineSet
EndChar

StartChar: afii10026
Encoding: 336 1048 142
Width: 1207
VWidth: 0
Flags: HW
LayerCount: 2
UndoRedoHistory
Layer: 1
Undoes
EndUndoes
Redoes
EndRedoes
EndUndoRedoHistory
Fore
SplineSet
129 0 m 1
 352 0 l 1
 783 964 l 1
 783 0 l 1
 1078 0 l 1
 1078 1658 l 1
 840 1658 l 1
 419 712 l 1
 419 1658 l 1
 129 1658 l 1
 129 0 l 1
EndSplineSet
EndChar

StartChar: afii10028
Encoding: 338 1050 144
Width: 1172
VWidth: 0
Flags: HW
LayerCount: 2
UndoRedoHistory
Layer: 1
Undoes
EndUndoes
Redoes
EndRedoes
EndUndoRedoHistory
Fore
SplineSet
129 0 m 1
 496 0 l 1
 496 726 l 1
 531 726 l 1
 773 0 l 1
 1149 0 l 1
 837 880 l 1
 1138 1658 l 1
 775 1658 l 1
 531 999 l 1
 496 999 l 1
 496 1658 l 1
 129 1658 l 1
 129 0 l 1
EndSplineSet
EndChar

StartChar: afii10029
Encoding: 339 1051 145
Width: 1340
VWidth: 0
Flags: HW
HStem: 0 258<13 177.58>
LayerCount: 2
UndoRedoHistory
Layer: 1
Undoes
EndUndoes
Redoes
EndRedoes
EndUndoRedoHistory
Fore
SplineSet
13 0 m 1
 572 -31 585 174 628 835 c 1
 662 1379 l 1
 844 1379 l 1
 844 0 l 1
 1211 0 l 1
 1211 1658 l 1
 332 1658 l 1
 278 903 l 2
 234 300 235 256 13 258 c 1
 13 0 l 1
EndSplineSet
EndChar

StartChar: afii10030
Encoding: 340 1052 146
Width: 1441
VWidth: 0
Flags: HW
VStem: 117 264<0 703.767> 144 259<777.663 1080> 633 185<0 67.3169> 1038 259<777.663 1073> 1063 261<0 615.301>
LayerCount: 2
UndoRedoHistory
Layer: 1
Undoes
EndUndoes
Redoes
EndRedoes
EndUndoRedoHistory
Fore
SplineSet
117 0 m 1
 381 0 l 1
 403 1080 l 1
 633 0 l 1
 818 0 l 1
 1038 1073 l 1
 1063 0 l 1
 1324 0 l 1
 1297 1658 l 1
 923 1658 l 1
 720 708 l 1
 531 1658 l 1
 144 1658 l 1
 117 0 l 1
EndSplineSet
EndChar

StartChar: afii10033
Encoding: 343 1055 149
Width: 1238
VWidth: 0
Flags: HW
LayerCount: 2
UndoRedoHistory
Layer: 1
Undoes
EndUndoes
Redoes
EndRedoes
EndUndoRedoHistory
Fore
SplineSet
122 0 m 1
 483 0 l 1
 483 1396 l 1
 756 1396 l 1
 756 0 l 1
 1117 0 l 1
 1117 1658 l 1
 122 1658 l 1
 122 0 l 1
EndSplineSet
EndChar

StartChar: afii10034
Encoding: 344 1056 150
Width: 1157
VWidth: 0
Flags: HW
HStem: 706 255<605 729.9> 1401 257<604 728.863>
VStem: 769 344<1002.45 1361.18>
LayerCount: 2
UndoRedoHistory
Layer: 1
Undoes
EndUndoes
Redoes
EndRedoes
EndUndoRedoHistory
Fore
SplineSet
488 961 m 1
 488 1401 l 1
 604 1401 l 2
 755 1401 769 1310 769 1183 c 0
 769 1032 744 961 605 961 c 2
 488 961 l 1
122 0 m 1
 488 0 l 1
 488 706 l 1
 632 706 l 2
 901 706 1113 796 1113 1177 c 0
 1113 1486 972 1658 675 1658 c 2
 122 1658 l 1
 122 0 l 1
EndSplineSet
EndChar

StartChar: afii10037
Encoding: 347 1059 153
Width: 1127
VWidth: 0
Flags: HW
HStem: -327 243<108 359.14>
LayerCount: 2
UndoRedoHistory
Layer: 1
Undoes
EndUndoes
Redoes
EndRedoes
EndUndoRedoHistory
Fore
SplineSet
108 -327 m 1
 558 -336 679 -259 763 116 c 1
 1104 1658 l 1
 759 1658 l 1
 641 980 l 1
 591 532 l 1
 525 980 l 1
 384 1658 l 1
 44 1658 l 1
 413 167 l 2
 462 -33 343 -93 108 -84 c 1
 108 -327 l 1
EndSplineSet
EndChar

StartChar: afii10038
Encoding: 348 1060 154
Width: 1553
VWidth: 0
Flags: HW
HStem: 186 226<459.011 597 924 1088.49> 1277 215<467.181 594 954 1081.51>
VStem: 95 323<457.784 592 1087 1220.58> 1135 323<457.162 591 1086 1220.04>
LayerCount: 2
UndoRedoHistory
Layer: 1
Undoes
EndUndoes
Redoes
EndRedoes
EndUndoRedoHistory
Fore
SplineSet
958 412 m 0
 950 412 932 413 924 414 c 1
 924 1276 l 1
 931 1276 948 1277 954 1277 c 0
 1092 1275 1135 1194 1135 1090 c 2
 1135 587 l 2
 1135 481 1090 410 958 412 c 0
597 412 m 0
 460 409 418 484 418 588 c 2
 418 1091 l 2
 418 1195 461 1276 594 1277 c 0
 602 1277 618 1276 627 1276 c 1
 627 413 l 1
 619 413 604 412 597 412 c 0
627 -58 m 1
 924 -58 l 1
 924 188 l 1
 973 186 l 1
 1260 161 1458 337 1458 591 c 2
 1458 1086 l 2
 1458 1341 1260 1514 962 1492 c 1
 924 1491 l 1
 924 1758 l 1
 627 1758 l 1
 627 1491 l 1
 580 1492 l 1
 294 1514 95 1341 95 1087 c 2
 95 592 l 2
 95 337 293 162 591 186 c 1
 627 187 l 1
 627 -58 l 1
EndSplineSet
EndChar

StartChar: afii10040
Encoding: 350 1062 156
Width: 1405
VWidth: 0
Flags: HW
LayerCount: 2
UndoRedoHistory
Layer: 1
Undoes
EndUndoes
Redoes
EndRedoes
EndUndoRedoHistory
Fore
SplineSet
1099 -358 m 1
 1368 -358 l 1
 1368 248 l 1
 1142 248 l 1
 1142 1658 l 1
 775 1658 l 1
 775 248 l 1
 496 248 l 1
 496 1658 l 1
 129 1658 l 1
 129 0 l 1
 1052 0 l 1
 1099 -358 l 1
EndSplineSet
EndChar

StartChar: afii10041
Encoding: 351 1063 157
Width: 1239
VWidth: 0
Flags: HW
HStem: 669 226<488.488 741.379>
LayerCount: 2
UndoRedoHistory
Layer: 1
Undoes
EndUndoes
Redoes
EndRedoes
EndUndoRedoHistory
Fore
SplineSet
744 0 m 1
 1111 0 l 1
 1111 1658 l 1
 744 1658 l 1
 744 904 l 1
 707 898 674 895 644 895 c 0
 464 895 449 969 449 1072 c 2
 449 1658 l 1
 89 1658 l 1
 89 1071 l 2
 89 811 299 669 551 669 c 0
 600 669 669 674 744 685 c 1
 744 0 l 1
EndSplineSet
EndChar

StartChar: afii10042
Encoding: 352 1064 158
Width: 1690
VWidth: 0
Flags: HW
LayerCount: 2
UndoRedoHistory
Layer: 1
Undoes
EndUndoes
Redoes
EndRedoes
EndUndoRedoHistory
Fore
SplineSet
129 0 m 1
 1561 0 l 1
 1561 1658 l 1
 1215 1658 l 1
 1215 262 l 1
 1021 262 l 1
 1021 1658 l 1
 675 1658 l 1
 675 262 l 1
 475 262 l 1
 475 1658 l 1
 129 1658 l 1
 129 0 l 1
EndSplineSet
EndChar

StartChar: afii10043
Encoding: 353 1065 159
Width: 1875
VWidth: 0
Flags: HW
VStem: 1519 268<-358 -238.644>
LayerCount: 2
UndoRedoHistory
Layer: 1
Undoes
EndUndoes
Redoes
EndRedoes
EndUndoRedoHistory
Fore
SplineSet
1519 -358 m 1
 1787 -358 l 1
 1787 248 l 1
 1562 248 l 1
 1562 1658 l 1
 1215 1658 l 1
 1215 248 l 1
 1022 248 l 1
 1022 1658 l 1
 675 1658 l 1
 675 248 l 1
 475 248 l 1
 475 1658 l 1
 129 1658 l 1
 129 0 l 1
 1476 0 l 1
 1519 -358 l 1
EndSplineSet
EndChar

StartChar: afii10044
Encoding: 354 1066 160
Width: 1292
VWidth: 0
Flags: HW
HStem: 0 242<697 829.957> 705 253<695 827.943>
VStem: 884 339<300.398 649.418>
LayerCount: 2
UndoRedoHistory
Layer: 1
Undoes
EndUndoes
Redoes
EndRedoes
EndUndoRedoHistory
Fore
SplineSet
640 242 m 1
 640 705 l 1
 695 705 l 2
 845 705 881 613 884 488 c 0
 888 315 838 242 699 242 c 2
 640 242 l 1
273 0 m 1
 697 0 l 2
 992 0 1223 77 1223 481 c 0
 1223 816 1046 958 729 958 c 2
 640 958 l 1
 640 1658 l 1
 -23 1658 l 1
 -23 1407 l 1
 273 1407 l 1
 273 0 l 1
EndSplineSet
EndChar

StartChar: afii10045
Encoding: 355 1067 161
Width: 1700
VWidth: 0
Flags: HW
HStem: 0 242<541 673.957> 705 253<538 671.236>
VStem: 728 339<300.398 649.418>
LayerCount: 2
UndoRedoHistory
Layer: 1
Undoes
EndUndoes
Redoes
EndRedoes
EndUndoRedoHistory
Fore
SplineSet
1204 0 m 1
 1571 0 l 1
 1571 1658 l 1
 1204 1658 l 1
 1204 0 l 1
496 242 m 1
 496 705 l 1
 538 705 l 2
 689 705 725 613 728 488 c 0
 732 315 682 242 543 242 c 2
 496 242 l 1
129 0 m 1
 541 0 l 2
 836 0 1067 77 1067 481 c 0
 1067 816 890 958 572 958 c 2
 496 958 l 1
 496 1658 l 1
 129 1658 l 1
 129 0 l 1
EndSplineSet
EndChar

StartChar: afii10046
Encoding: 356 1068 162
Width: 1137
VWidth: 0
Flags: HW
HStem: 0 242<538 671.356> 705 253<536 668.976>
VStem: 726 339<300.398 649.418>
LayerCount: 2
UndoRedoHistory
Layer: 1
Undoes
EndUndoes
Redoes
EndRedoes
EndUndoRedoHistory
Fore
SplineSet
496 242 m 1
 496 705 l 1
 536 705 l 2
 687 705 723 613 726 488 c 0
 730 315 679 242 541 242 c 2
 496 242 l 1
129 0 m 1
 538 0 l 2
 834 0 1065 77 1065 481 c 0
 1065 816 887 958 570 958 c 2
 496 958 l 1
 496 1658 l 1
 129 1658 l 1
 129 0 l 1
EndSplineSet
EndChar

StartChar: afii10047
Encoding: 357 1069 163
Width: 1175
VWidth: 0
Flags: HW
HStem: -17 259<490.76 667.766> 1428 259<490.691 666.472>
VStem: 101 359<267.766 462 1192 1400.27> 703 373<269.874 541 1132 1398.53>
LayerCount: 2
UndoRedoHistory
Layer: 1
Undoes
EndUndoes
Redoes
EndRedoes
EndUndoRedoHistory
Fore
SplineSet
578 -17 m 0
 957 -17 1076 194 1076 541 c 2
 1076 1132 l 2
 1076 1470 957 1687 578 1687 c 0
 207 1687 101 1476 101 1192 c 2
 101 1111 l 1
 460 1111 l 1
 460 1223 l 2
 460 1324 462 1428 578 1428 c 0
 684 1428 703 1340 703 1223 c 2
 703 924 l 1
 431 924 l 1
 431 738 l 1
 703 738 l 1
 703 450 l 2
 703 346 695 242 578 242 c 0
 460 242 460 344 460 441 c 2
 460 549 l 1
 101 549 l 1
 101 462 l 2
 101 179 212 -17 578 -17 c 0
EndSplineSet
EndChar

StartChar: afii10048
Encoding: 358 1070 164
Width: 1687
VWidth: 0
Flags: HW
HStem: -23 259<1045.32 1212.18> 1422 259<1044.36 1213.14>
VStem: 670 342<260.387 545 1116 1398.89> 1245 343<260.83 545 1116 1398.89>
LayerCount: 2
UndoRedoHistory
Layer: 1
Undoes
EndUndoes
Redoes
EndRedoes
EndUndoRedoHistory
Fore
SplineSet
1129 236 m 0
 1020 236 1012 336 1012 433 c 2
 1012 1228 l 2
 1012 1325 1020 1422 1129 1422 c 0
 1237 1422 1245 1325 1245 1228 c 2
 1245 433 l 2
 1245 336 1237 236 1129 236 c 0
1129 -23 m 0
 1481 -23 1588 201 1588 545 c 2
 1588 1116 l 2
 1588 1459 1481 1681 1129 1681 c 0
 776 1681 670 1460 670 1116 c 2
 670 975 l 1
 491 975 l 1
 491 1658 l 1
 129 1658 l 1
 129 0 l 1
 491 0 l 1
 491 705 l 1
 670 705 l 1
 670 545 l 2
 670 200 776 -23 1129 -23 c 0
EndSplineSet
EndChar

StartChar: afii10049
Encoding: 359 1071 165
Width: 1238
VWidth: 0
Flags: HW
HStem: 1407 251<544.125 691>
VStem: 122 341<992.517 1326.15>
LayerCount: 2
UndoRedoHistory
Layer: 1
Undoes
EndUndoes
Redoes
EndRedoes
EndUndoRedoHistory
Fore
SplineSet
695 915 m 2
 518 915 463 1020 463 1161 c 0
 463 1324 539 1407 691 1407 c 2
 743 1407 l 1
 743 915 l 1
 695 915 l 2
19 0 m 1
 416 0 l 1
 659 655 l 2
 660 655 680 655 681 655 c 2
 743 655 l 1
 743 0 l 1
 1109 0 l 1
 1109 1658 l 1
 685 1658 l 2
 330 1658 122 1545 122 1164 c 0
 122 964 210 812 336 738 c 1
 19 0 l 1
EndSplineSet
EndChar

StartChar: afii10051
Encoding: 360 1026 166
Width: 1288
VWidth: 0
Flags: HW
HStem: 0 211<689 824.852> 793 210<659 947.5>
VStem: 874 334<260.225 410 668 762.88>
LayerCount: 2
UndoRedoHistory
Layer: 1
Undoes
EndUndoes
Redoes
EndRedoes
EndUndoRedoHistory
Fore
SplineSet
689 0 m 1
 766 0 l 2
 1093 0 1208 110 1208 409 c 2
 1208 704 l 2
 1208 892 1039 1003 856 1003 c 0
 763 1003 665 975 583 913 c 1
 583 1402 l 1
 868 1402 l 1
 868 1658 l 1
 -12 1658 l 1
 -12 1402 l 1
 222 1402 l 1
 222 0 l 1
 583 0 l 1
 583 732 l 1
 650 776 704 793 746 793 c 0
 836 793 874 720 874 668 c 2
 874 410 l 2
 874 270 817 211 689 211 c 1
 689 0 l 1
EndSplineSet
EndChar

StartChar: afii10053
Encoding: 362 1028 168
Width: 1132
VWidth: 0
Flags: HW
HStem: -23 259<508.528 684.489> 1422 259<507.234 684.735>
VStem: 99 373<265.474 532 1123 1394.13> 716 358<263.726 472 1202 1396.23>
LayerCount: 2
UndoRedoHistory
Layer: 1
Undoes
EndUndoes
Redoes
EndRedoes
EndUndoRedoHistory
Fore
SplineSet
597 -23 m 0
 968 -23 1074 188 1074 472 c 2
 1074 553 l 1
 716 553 l 1
 716 441 l 2
 716 340 713 236 597 236 c 0
 491 236 472 324 472 441 c 2
 472 736 l 1
 740 736 l 1
 740 936 l 1
 472 936 l 1
 472 1214 l 2
 472 1318 480 1422 597 1422 c 0
 716 1422 716 1320 716 1223 c 2
 716 1104 l 1
 1074 1104 l 1
 1074 1202 l 2
 1074 1485 964 1681 597 1681 c 0
 218 1681 99 1470 99 1123 c 2
 99 532 l 2
 99 194 218 -23 597 -23 c 0
EndSplineSet
EndChar

StartChar: afii10055
Encoding: 364 1030 170
Width: 569
VWidth: 0
Flags: HW
VStem: 109 366
LayerCount: 2
UndoRedoHistory
Layer: 1
Undoes
EndUndoes
Redoes
EndRedoes
EndUndoRedoHistory
Fore
SplineSet
109 0 m 1
 475 0 l 1
 475 1658 l 1
 109 1658 l 1
 109 0 l 1
EndSplineSet
EndChar

StartChar: afii10057
Encoding: 366 1032 172
Width: 666
VWidth: 0
Flags: HW
HStem: -40 255<9 178.24>
LayerCount: 2
UndoRedoHistory
Layer: 1
Undoes
EndUndoes
Redoes
EndRedoes
EndUndoRedoHistory
Fore
SplineSet
9 -40 m 1
 187 -40 l 2
 487 -40 570 97 575 369 c 1
 575 1658 l 1
 209 1658 l 1
 209 383 l 2
 209 242 158 213 9 215 c 1
 9 -40 l 1
EndSplineSet
EndChar

StartChar: afii10058
Encoding: 367 1033 173
Width: 1817
VWidth: 0
Flags: HW
HStem: 0 258<21 178.156> 0 242<1246 1379.36> 705 253<1244 1376.98>
VStem: 1434 339<300.398 649.418>
LayerCount: 2
UndoRedoHistory
Layer: 1
Undoes
EndUndoes
Redoes
EndRedoes
EndUndoRedoHistory
Fore
SplineSet
1218 242 m 1
 1218 705 l 1
 1244 705 l 2
 1395 705 1431 613 1434 488 c 0
 1438 315 1387 242 1249 242 c 2
 1218 242 l 1
21 0 m 1
 149 -1 l 2
 466 -4 590 132 619 591 c 2
 669 1379 l 1
 851 1379 l 1
 851 0 l 1
 1246 0 l 2
 1542 0 1773 77 1773 481 c 0
 1773 816 1595 958 1278 958 c 2
 1218 958 l 1
 1218 1658 l 1
 338 1658 l 1
 264 598 l 2
 243 298 190 254 21 258 c 1
 21 0 l 1
EndSplineSet
EndChar

StartChar: afii10059
Encoding: 368 1034 174
Width: 1708
VWidth: 0
Flags: HW
HStem: 0 242<1119 1252.36> 705 253<1117 1249.98>
VStem: 1306 340<300.398 649.418>
LayerCount: 2
UndoRedoHistory
Layer: 1
Undoes
EndUndoes
Redoes
EndRedoes
EndUndoRedoHistory
Fore
SplineSet
1096 242 m 1
 1096 705 l 1
 1117 705 l 2
 1267 705 1303 613 1306 488 c 0
 1311 315 1260 242 1121 242 c 2
 1096 242 l 1
1119 0 m 2
 1415 0 1646 77 1646 481 c 0
 1646 816 1468 958 1151 958 c 2
 1096 958 l 1
 1096 1660 l 1
 729 1660 l 1
 729 981 l 1
 496 981 l 1
 496 1660 l 1
 129 1660 l 1
 129 1 l 1
 496 1 l 1
 496 703 l 1
 729 703 l 1
 729 1 l 1
 1119 0 l 2
EndSplineSet
EndChar

StartChar: afii10060
Encoding: 369 1035 175
Width: 1209
VWidth: 0
Flags: HW
HStem: 788 195<628.452 765.974>
LayerCount: 2
UndoRedoHistory
Layer: 1
Undoes
EndUndoes
Redoes
EndRedoes
EndUndoRedoHistory
Fore
SplineSet
235 0 m 1
 600 0 l 1
 600 756 l 1
 625 768 667 787 703 788 c 0
 756 789 768 762 768 717 c 2
 768 0 l 1
 1102 0 l 1
 1102 757 l 2
 1102 892 1009 983 849 983 c 0
 718 983 600 927 600 927 c 1
 600 1387 l 1
 833 1387 l 1
 833 1658 l 1
 13 1658 l 1
 13 1387 l 1
 235 1387 l 1
 235 0 l 1
EndSplineSet
EndChar

StartChar: afii10066
Encoding: 373 1073 179
Width: 986
VWidth: 0
Flags: HW
HStem: -19 214<443.825 566.062> 959 195<442.575 704>
VStem: 92 324<211.876 461 823 941.688> 92 306<1103 1373.26> 586 316<211.586 454 713 948.305>
LayerCount: 2
UndoRedoHistory
Layer: 1
Undoes
EndUndoes
Redoes
EndRedoes
EndUndoRedoHistory
Fore
SplineSet
504 195 m 0
 423 195 416 244 416 461 c 2
 416 823 l 1
 432 926 460 959 508 959 c 0
 573 959 586 914 586 786 c 2
 586 454 l 2
 586 239 576 195 504 195 c 0
488 -19 m 0
 735 -22 902 59 902 424 c 2
 902 713 l 2
 902 1035 810 1154 598 1154 c 0
 532 1154 453 1132 398 1103 c 1
 398 1181 l 1
 401 1514 511 1354 822 1500 c 1
 805 1755 l 1
 402 1586 92 1728 92 1089 c 2
 92 451 l 2
 92 156 162 -16 488 -19 c 0
EndSplineSet
EndChar

StartChar: afii10067
Encoding: 374 1074 180
Width: 1031
VWidth: 0
Flags: HW
HStem: 0 187<489 613.273> 536 182<491 603> 1008 176<494 600.356>
VStem: 623 319<734.301 980.837> 646 325<214.356 511.227>
LayerCount: 2
UndoRedoHistory
Layer: 1
Undoes
EndUndoes
Redoes
EndRedoes
EndUndoRedoHistory
Fore
SplineSet
437 718 m 1
 437 1008 l 1
 494 1008 l 2
 601 1008 623 949 623 860 c 0
 623 770 597 718 517 718 c 2
 437 718 l 1
437 187 m 1
 437 536 l 1
 491 536 l 2
 583 536 646 534 646 353 c 0
 646 192 576 187 489 187 c 2
 437 187 l 1
104 0 m 1
 507 0 l 2
 856 0 971 111 971 344 c 0
 971 496 931 601 760 643 c 1
 871 672 943 734 942 889 c 0
 941 1063 878 1184 523 1184 c 2
 104 1184 l 1
 104 0 l 1
EndSplineSet
EndChar

StartChar: afii10068
Encoding: 375 1075 181
Width: 718
VWidth: 0
Flags: HW
VStem: 104 588
LayerCount: 2
UndoRedoHistory
Layer: 1
Undoes
EndUndoes
Redoes
EndRedoes
EndUndoRedoHistory
Fore
SplineSet
104 0 m 1
 438 0 l 1
 438 960 l 1
 692 960 l 1
 692 1184 l 1
 104 1184 l 1
 104 0 l 1
EndSplineSet
EndChar

StartChar: afii10069
Encoding: 376 1076 182
Width: 1239
VWidth: 0
Flags: HW
HStem: -20 20G<323.758 944.429>
VStem: 63 242<-322 -91.1904> 966 239<-322 -121.296>
LayerCount: 2
UndoRedoHistory
Layer: 1
Undoes
EndUndoes
Redoes
EndRedoes
EndUndoRedoHistory
Fore
SplineSet
423 207 m 1
 519 287 593 422 607 736 c 1
 629 982 l 1
 727 982 l 1
 727 207 l 1
 423 207 l 1
63 -322 m 1
 305 -322 l 1
 325 0 l 1
 943 0 l 1
 966 -322 l 1
 1205 -322 l 1
 1205 207 l 1
 1033 207 l 1
 1033 1184 l 1
 382 1184 l 1
 350 813 l 1
 332 470 241 291 63 204 c 1
 63 -322 l 1
EndSplineSet
EndChar

StartChar: afii10072
Encoding: 379 1078 185
Width: 1352
VWidth: 0
Flags: HW
LayerCount: 2
UndoRedoHistory
Layer: 1
Undoes
EndUndoes
Redoes
EndRedoes
EndUndoRedoHistory
Fore
SplineSet
14 0 m 1
 293 0 l 1
 508 572 l 1
 530 572 l 1
 530 0 l 1
 809 0 l 1
 809 572 l 1
 831 572 l 1
 1060 0 l 1
 1339 0 l 1
 1091 596 l 1
 1325 1184 l 1
 1032 1184 l 1
 831 622 l 1
 809 622 l 1
 809 1184 l 1
 530 1184 l 1
 530 622 l 1
 508 622 l 1
 320 1184 l 1
 27 1184 l 1
 249 596 l 1
 14 0 l 1
EndSplineSet
EndChar

StartChar: afii10073
Encoding: 380 1079 186
Width: 918
VWidth: 0
Flags: HW
HStem: -21 228<378.824 547.533> 526 174<353 526.75> 973 231<357.047 532.254>
VStem: 76 268<235.078 393 813 956.393> 555 301<730.449 956.747> 576 286<227.2 486.713>
LayerCount: 2
UndoRedoHistory
Layer: 1
Undoes
EndUndoes
Redoes
EndRedoes
EndUndoRedoHistory
Fore
SplineSet
454 -21 m 0
 742 -21 862 124 862 325 c 0
 862 520 781 578 682 615 c 1
 772 641 856 712 856 873 c 0
 856 1057 742 1204 465 1204 c 0
 153 1204 72 1029 72 813 c 1
 336 813 l 1
 336 934 367 973 450 973 c 0
 524 973 555 928 555 846 c 0
 555 739 520 700 353 700 c 1
 353 526 l 1
 519 526 576 485 576 367 c 0
 576 276 555 207 464 207 c 0
 381 207 344 266 344 393 c 1
 76 393 l 1
 76 172 130 -21 454 -21 c 0
EndSplineSet
EndChar

StartChar: afii10074
Encoding: 381 1080 187
Width: 1042
VWidth: 0
Flags: HW
LayerCount: 2
UndoRedoHistory
Layer: 1
Undoes
EndUndoes
Redoes
EndRedoes
EndUndoRedoHistory
Fore
SplineSet
104 0 m 1
 367 0 l 1
 668 626 l 1
 668 0 l 1
 938 0 l 1
 938 1184 l 1
 678 1184 l 1
 369 552 l 1
 369 1184 l 1
 104 1184 l 1
 104 0 l 1
EndSplineSet
EndChar

StartChar: afii10076
Encoding: 383 1082 189
Width: 1047
VWidth: 0
Flags: HW
LayerCount: 2
UndoRedoHistory
Layer: 1
Undoes
EndUndoes
Redoes
EndRedoes
EndUndoRedoHistory
Fore
SplineSet
104 0 m 1
 438 0 l 1
 438 525 l 1
 487 525 l 1
 677 0 l 1
 1031 0 l 1
 791 625 l 1
 1025 1184 l 1
 665 1184 l 1
 487 718 l 1
 438 718 l 1
 438 1184 l 1
 104 1184 l 1
 104 0 l 1
EndSplineSet
EndChar

StartChar: afii10077
Encoding: 384 1083 190
Width: 1159
VWidth: 0
Flags: HW
HStem: -3 227<27 173.071>
LayerCount: 2
UndoRedoHistory
Layer: 1
Undoes
EndUndoes
Redoes
EndRedoes
EndUndoRedoHistory
Fore
SplineSet
27 -3 m 1
 83 -9 134 -13 175 -13 c 0
 427 -13 519 85 553 539 c 2
 585 956 l 1
 720 956 l 1
 720 0 l 1
 1054 0 l 1
 1054 1184 l 1
 302 1184 l 1
 253 572 l 1
 233 301 217 203 27 224 c 1
 27 -3 l 1
EndSplineSet
EndChar

StartChar: afii10078
Encoding: 385 1084 191
Width: 1191
VWidth: 0
Flags: HW
LayerCount: 2
UndoRedoHistory
Layer: 1
Undoes
EndUndoes
Redoes
EndRedoes
EndUndoRedoHistory
Fore
SplineSet
103 0 m 1
 364 0 l 1
 364 619 l 1
 547 182 l 1
 645 182 l 1
 828 618 l 1
 828 0 l 1
 1089 0 l 1
 1085 1184 l 1
 838 1184 l 1
 596 618 l 1
 353 1184 l 1
 106 1184 l 1
 103 0 l 1
EndSplineSet
EndChar

StartChar: afii10079
Encoding: 386 1085 192
Width: 1074
VWidth: 0
Flags: HW
LayerCount: 2
UndoRedoHistory
Layer: 1
Undoes
EndUndoes
Redoes
EndRedoes
EndUndoRedoHistory
Fore
SplineSet
104 0 m 1
 438 0 l 1
 438 496 l 1
 636 496 l 1
 636 0 l 1
 970 0 l 1
 970 1184 l 1
 636 1184 l 1
 636 726 l 1
 438 726 l 1
 438 1184 l 1
 104 1184 l 1
 104 0 l 1
EndSplineSet
EndChar

StartChar: afii10081
Encoding: 388 1087 194
Width: 1046
VWidth: 0
Flags: HW
LayerCount: 2
UndoRedoHistory
Layer: 1
Undoes
EndUndoes
Redoes
EndRedoes
EndUndoRedoHistory
Fore
SplineSet
104 0 m 1
 438 0 l 1
 438 955 l 1
 608 955 l 1
 608 0 l 1
 942 0 l 1
 942 1184 l 1
 104 1184 l 1
 104 0 l 1
EndSplineSet
EndChar

StartChar: afii10084
Encoding: 391 1090 197
Width: 826
VWidth: 0
Flags: HW
LayerCount: 2
UndoRedoHistory
Layer: 1
Undoes
EndUndoes
Redoes
EndRedoes
EndUndoRedoHistory
Fore
SplineSet
245 0 m 1
 579 0 l 1
 579 957 l 1
 793 957 l 1
 793 1184 l 1
 33 1184 l 1
 33 957 l 1
 245 957 l 1
 245 0 l 1
EndSplineSet
EndChar

StartChar: afii10085
Encoding: 392 1091 198
Width: 959
VWidth: 0
Flags: HW
HStem: -377 238<125 307.861>
LayerCount: 2
UndoRedoHistory
Layer: 1
Undoes
EndUndoes
Redoes
EndRedoes
EndUndoRedoHistory
Fore
SplineSet
125 -377 m 1
 508 -377 560 -316 635 -20 c 2
 939 1184 l 1
 642 1184 l 1
 557 748 l 1
 485 382 l 1
 406 748 l 1
 310 1184 l 1
 24 1184 l 1
 312 66 l 1
 353 -108 339 -138 100 -139 c 1
 125 -377 l 1
EndSplineSet
EndChar

StartChar: afii10086
Encoding: 393 1092 199
Width: 1426
VWidth: 0
Flags: HW
HStem: 17 200<445.54 542 878 971.945> 993 186<443.808 541 879 975.605>
VStem: 85 311<267.035 440 771 945.608> 1030 311<278.422 440 771 935.584>
LayerCount: 2
UndoRedoHistory
Layer: 1
Undoes
EndUndoes
Redoes
EndRedoes
EndUndoRedoHistory
Fore
SplineSet
878 217 m 2
 856 217 l 1
 856 993 l 1
 879 993 l 2
 961 993 1030 927 1030 799 c 2
 1030 417 l 2
 1030 288 960 217 878 217 c 2
542 217 m 2
 453 217 396 288 396 417 c 2
 396 799 l 2
 396 927 459 993 541 993 c 2
 566 993 l 1
 566 217 l 1
 542 217 l 2
566 -354 m 1
 856 -354 l 1
 856 17 l 1
 895 17 l 2
 1065 17 1341 110 1341 440 c 2
 1341 771 l 2
 1341 1057 1109 1179 895 1179 c 2
 856 1179 l 1
 856 1657 l 1
 566 1657 l 1
 566 1179 l 1
 534 1179 l 2
 322 1179 85 1057 85 771 c 2
 85 440 l 2
 85 110 359 17 533 17 c 2
 566 17 l 1
 566 -354 l 1
EndSplineSet
EndChar

StartChar: afii10088
Encoding: 395 1094 201
Width: 1163
VWidth: 0
Flags: HW
VStem: 883 239<-322 -112.173>
LayerCount: 2
UndoRedoHistory
Layer: 1
Undoes
EndUndoes
Redoes
EndRedoes
EndUndoRedoHistory
Fore
SplineSet
883 -322 m 1
 1122 -322 l 1
 1122 207 l 1
 950 207 l 1
 950 1184 l 1
 616 1184 l 1
 616 207 l 1
 437 207 l 1
 437 1184 l 1
 104 1184 l 1
 104 0 l 1
 861 0 l 1
 883 -322 l 1
EndSplineSet
EndChar

StartChar: afii10089
Encoding: 396 1095 202
Width: 1016
VWidth: 0
Flags: HW
HStem: 470 191<428.143 577>
LayerCount: 2
UndoRedoHistory
Layer: 1
Undoes
EndUndoes
Redoes
EndRedoes
EndUndoRedoHistory
Fore
SplineSet
577 0 m 1
 911 0 l 1
 911 1184 l 1
 577 1184 l 1
 577 663 l 1
 562 661 548 661 537 661 c 0
 433 664 413 703 413 786 c 2
 413 1184 l 1
 79 1184 l 1
 79 768 l 2
 79 581 166 470 469 470 c 0
 503 470 540 473 577 476 c 1
 577 0 l 1
EndSplineSet
EndChar

StartChar: afii10090
Encoding: 397 1096 203
Width: 1458
VWidth: 0
Flags: HW
LayerCount: 2
UndoRedoHistory
Layer: 1
Undoes
EndUndoes
Redoes
EndRedoes
EndUndoRedoHistory
Fore
SplineSet
104 0 m 1
 1353 0 l 1
 1353 1184 l 1
 1041 1184 l 1
 1041 226 l 1
 884 226 l 1
 884 1184 l 1
 571 1184 l 1
 571 226 l 1
 417 226 l 1
 417 1184 l 1
 104 1184 l 1
 104 0 l 1
EndSplineSet
EndChar

StartChar: afii10091
Encoding: 398 1097 204
Width: 1593
VWidth: 0
Flags: HW
VStem: 1287 239<-322 -112.173>
LayerCount: 2
UndoRedoHistory
Layer: 1
Undoes
EndUndoes
Redoes
EndRedoes
EndUndoRedoHistory
Fore
SplineSet
1287 -322 m 1
 1526 -322 l 1
 1526 207 l 1
 1354 207 l 1
 1354 1184 l 1
 1039 1184 l 1
 1039 207 l 1
 885 207 l 1
 885 1184 l 1
 569 1184 l 1
 569 207 l 1
 419 207 l 1
 419 1184 l 1
 104 1184 l 1
 104 0 l 1
 1265 0 l 1
 1287 -322 l 1
EndSplineSet
EndChar

StartChar: afii10092
Encoding: 399 1098 205
Width: 1139
VWidth: 0
Flags: HW
HStem: 0 191<576 745.152> 510 197<579 735.1>
VStem: 780 303<228.51 469.232>
LayerCount: 2
UndoRedoHistory
Layer: 1
Undoes
EndUndoes
Redoes
EndRedoes
EndUndoRedoHistory
Fore
SplineSet
570 191 m 1
 570 510 l 1
 579 510 l 1
 723 508 780 475 780 345 c 0
 780 226 725 193 576 191 c 1
 570 191 l 1
236 0 m 1
 580 0 l 2
 937 0 1083 95 1083 347 c 0
 1083 631 907 706 580 707 c 1
 570 707 l 1
 570 1184 l 1
 11 1184 l 1
 11 958 l 1
 236 958 l 1
 236 0 l 1
EndSplineSet
EndChar

StartChar: afii10093
Encoding: 400 1099 206
Width: 1516
VWidth: 0
Flags: HW
HStem: 0 191<444 613.709> 510 197<448 603.1>
VStem: 648 303<228.329 469.232>
LayerCount: 2
UndoRedoHistory
Layer: 1
Undoes
EndUndoes
Redoes
EndRedoes
EndUndoRedoHistory
Fore
SplineSet
1077 0 m 1
 1411 0 l 1
 1411 1184 l 1
 1077 1184 l 1
 1077 0 l 1
438 191 m 1
 438 510 l 1
 441 510 444 510 448 510 c 0
 591 508 648 475 648 345 c 0
 648 226 593 192 444 191 c 0
 443 191 440 191 438 191 c 1
104 0 m 1
 448 0 l 2
 805 0 951 95 951 347 c 0
 951 631 775 706 448 707 c 0
 446 707 441 707 438 707 c 1
 438 1184 l 1
 104 1184 l 1
 104 0 l 1
EndSplineSet
EndChar

StartChar: afii10094
Encoding: 401 1100 207
Width: 1005
VWidth: 0
Flags: HW
HStem: 0 191<444 613.709> 510 197<448 603.1>
VStem: 648 303<228.329 469.232>
LayerCount: 2
UndoRedoHistory
Layer: 1
Undoes
EndUndoes
Redoes
EndRedoes
EndUndoRedoHistory
Fore
SplineSet
438 191 m 1
 438 510 l 1
 441 510 444 510 448 510 c 0
 591 508 648 475 648 345 c 0
 648 226 593 192 444 191 c 0
 443 191 440 191 438 191 c 1
104 0 m 1
 448 0 l 2
 805 0 951 95 951 347 c 0
 951 631 775 706 448 707 c 0
 446 707 441 707 438 707 c 1
 438 1184 l 1
 104 1184 l 1
 104 0 l 1
EndSplineSet
EndChar

StartChar: afii10095
Encoding: 402 1101 208
Width: 974
VWidth: 0
Flags: HW
HStem: -21 237<416.38 544.354> 966 238<416.553 544.403>
VStem: 85 322<223.12 336 845 957.33> 558 335<227.661 377 805 954.462>
LayerCount: 2
UndoRedoHistory
Layer: 1
Undoes
EndUndoes
Redoes
EndRedoes
EndUndoRedoHistory
Fore
SplineSet
484 -21 m 0
 745 -21 893 126 893 377 c 2
 893 805 l 2
 893 1056 745 1204 484 1204 c 0
 235 1204 85 1083 85 845 c 2
 85 765 l 1
 407 765 l 1
 407 851 l 2
 407 935 431 966 483 966 c 0
 530 966 558 938 558 830 c 2
 558 655 l 1
 288 655 l 1
 288 513 l 1
 558 513 l 1
 558 354 l 2
 558 249 533 216 483 216 c 0
 435 216 407 239 407 334 c 2
 407 396 l 1
 85 396 l 1
 85 336 l 2
 85 96 233 -21 484 -21 c 0
EndSplineSet
EndChar

StartChar: afii10096
Encoding: 403 1102 209
Width: 1432
VWidth: 0
Flags: HW
HStem: -21 239<902.063 1025.61> 966 238<902.063 1025.12>
VStem: 574 311<227.309 368 815 956.078> 1039 312<226.922 368 815 956.078>
LayerCount: 2
UndoRedoHistory
Layer: 1
Undoes
EndUndoes
Redoes
EndRedoes
EndUndoRedoHistory
Fore
SplineSet
961 218 m 0
 901 218 885 273 885 360 c 2
 885 824 l 2
 885 910 901 966 961 966 c 0
 1023 966 1039 912 1039 824 c 2
 1039 360 l 2
 1039 271 1023 218 961 218 c 0
960 -21 m 0
 1199 -21 1351 111 1351 368 c 2
 1351 815 l 2
 1351 1072 1199 1204 960 1204 c 0
 721 1204 574 1072 574 815 c 2
 574 712 l 1
 430 712 l 1
 430 1184 l 1
 104 1184 l 1
 104 0 l 1
 430 0 l 1
 430 477 l 1
 574 477 l 1
 574 368 l 2
 574 112 721 -21 960 -21 c 0
EndSplineSet
EndChar

StartChar: afii10097
Encoding: 404 1103 210
Width: 1055
VWidth: 0
Flags: HW
HStem: 425 195<521 606> 995 189<444.572 607>
VStem: 73 303<683.21 933.306>
LayerCount: 2
UndoRedoHistory
Layer: 1
Undoes
EndUndoes
Redoes
EndRedoes
EndUndoRedoHistory
Fore
SplineSet
606 620 m 0
 458 620 376 683 376 815 c 0
 376 934 455 994 607 995 c 0
 608 995 616 995 617 995 c 1
 617 620 l 1
 616 620 608 620 606 620 c 0
33 0 m 1
 388 0 l 1
 521 425 l 1
 547 424 606 424 617 424 c 1
 617 0 l 1
 951 0 l 1
 951 1184 l 1
 516 1184 l 2
 196 1184 73 1034 73 813 c 0
 73 663 122 542 217 490 c 1
 33 0 l 1
EndSplineSet
EndChar

StartChar: afii10098
Encoding: 405 1169 211
Width: 721
VWidth: 0
Flags: HW
VStem: 104 599
LayerCount: 2
UndoRedoHistory
Layer: 1
Undoes
EndUndoes
Redoes
EndRedoes
EndUndoRedoHistory
Fore
SplineSet
104 0 m 1
 438 0 l 1
 438 960 l 1
 703 960 l 1
 703 1434 l 1
 531 1434 l 1
 531 1184 l 1
 104 1184 l 1
 104 0 l 1
EndSplineSet
EndChar

StartChar: afii10099
Encoding: 406 1106 212
Width: 1046
VWidth: 0
Flags: HW
HStem: -330 167<428 562.696> 765 224<495.235 808>
VStem: 630 334<-89.8287 210 630 754.106>
LayerCount: 2
UndoRedoHistory
Layer: 1
Undoes
EndUndoes
Redoes
EndRedoes
EndUndoRedoHistory
Fore
SplineSet
392 -330 m 1
 442 -330 l 2
 839 -330 964 -239 964 210 c 2
 964 630 l 2
 964 810 917 989 699 989 c 0
 610 989 521 954 449 927 c 1
 449 1214 l 1
 711 1214 l 1
 711 1381 l 1
 449 1381 l 1
 449 1658 l 1
 115 1658 l 1
 115 1381 l 1
 -17 1381 l 1
 -17 1214 l 1
 115 1214 l 1
 115 0 l 1
 449 0 l 1
 449 735 l 1
 474 747 518 765 554 765 c 0
 615 765 630 718 630 640 c 2
 630 196 l 2
 630 -41 614 -163 428 -163 c 2
 392 -163 l 1
 392 -330 l 1
EndSplineSet
EndChar

StartChar: afii10101
Encoding: 408 1108 214
Width: 942
VWidth: 0
Flags: HW
HStem: -21 239<430.097 557.586> 968 236<429.965 552.26>
VStem: 81 336<229.416 379 807 955.816> 567 322<226.592 339 848 960.801>
LayerCount: 2
UndoRedoHistory
Layer: 1
Undoes
EndUndoes
Redoes
EndRedoes
EndUndoRedoHistory
Fore
SplineSet
490 -21 m 0
 740 -21 889 101 889 339 c 2
 889 439 l 1
 567 439 l 1
 567 333 l 2
 567 249 543 218 492 218 c 0
 445 218 417 246 417 353 c 2
 417 528 l 1
 690 528 l 1
 690 677 l 1
 417 677 l 1
 417 829 l 2
 417 935 441 968 491 968 c 0
 539 968 567 944 567 849 c 2
 567 766 l 1
 889 766 l 1
 889 848 l 2
 889 1088 742 1204 490 1204 c 0
 229 1204 81 1057 81 807 c 2
 81 379 l 2
 81 128 229 -21 490 -21 c 0
EndSplineSet
EndChar

StartChar: afii10103
Encoding: 410 1110 216
Width: 517
VWidth: 0
Flags: HW
LayerCount: 2
UndoRedoHistory
Layer: 1
Undoes
EndUndoes
Redoes
EndRedoes
EndUndoRedoHistory
Fore
SplineSet
95 1376 m 1
 430 1376 l 1
 430 1611 l 1
 95 1611 l 1
 95 1376 l 1
96 0 m 1
 430 0 l 1
 430 1184 l 1
 96 1184 l 1
 96 0 l 1
EndSplineSet
EndChar

StartChar: afii10105
Encoding: 412 1112 218
Width: 526
VWidth: 0
Flags: HW
HStem: -366 258<-21.3089 255>
LayerCount: 2
UndoRedoHistory
Layer: 1
Undoes
EndUndoes
Redoes
EndRedoes
EndUndoRedoHistory
Fore
SplineSet
125 1383 m 1
 461 1383 l 1
 461 1618 l 1
 125 1618 l 1
 125 1383 l 1
-23 -339 m 1
 31 -355 91 -366 154 -366 c 0
 356 -366 460 -235 460 -48 c 2
 460 1184 l 1
 126 1184 l 1
 126 -8 l 2
 126 -80 91 -108 36 -108 c 0
 17 -108 -5 -103 -23 -100 c 1
 -23 -339 l 1
EndSplineSet
EndChar

StartChar: afii10106
Encoding: 413 1113 219
Width: 1653
VWidth: 0
Flags: HW
HStem: -3 227<69 218.774> 0 191<1104 1256.35> 510 197<1102 1259.33>
VStem: 1297 302<228.372 473.684>
LayerCount: 2
UndoRedoHistory
Layer: 1
Undoes
EndUndoes
Redoes
EndRedoes
EndUndoRedoHistory
Fore
SplineSet
1096 191 m 1
 1096 510 l 1
 1098 510 1100 510 1102 510 c 0
 1240 509 1297 474 1297 345 c 0
 1297 229 1243 192 1104 191 c 0
 1102 191 1098 191 1096 191 c 1
69 -3 m 1
 100 -7 135 -10 162 -12 c 0
 479 -30 565 75 600 601 c 1
 627 956 l 1
 762 956 l 1
 762 0 l 1
 1108 0 l 1
 1456 2 1599 98 1599 347 c 0
 1599 627 1427 707 1108 707 c 2
 1096 707 l 1
 1096 1184 l 1
 343 1184 l 1
 304 673 l 1
 275 262 252 210 69 224 c 1
 69 -3 l 1
EndSplineSet
EndChar

StartChar: afii10107
Encoding: 414 1114 220
Width: 1483
VWidth: 0
Flags: HW
HStem: 2 190<942 1090.28> 511 197<951 1083.55>
VStem: 1130 302<230.037 474.067>
LayerCount: 2
UndoRedoHistory
Layer: 1
Undoes
EndUndoes
Redoes
EndRedoes
EndUndoRedoHistory
Fore
SplineSet
942 192 m 1
 942 511 l 1
 945 511 948 511 951 511 c 0
 1078 506 1130 470 1130 346 c 0
 1130 234 1081 198 952 193 c 0
 948 193 945 192 942 192 c 1
104 0 m 1
 438 0 l 1
 438 439 l 1
 608 439 l 1
 608 1 l 1
 942 2 l 2
 1290 3 1432 99 1432 348 c 0
 1432 622 1269 702 963 708 c 0
 956 708 949 708 942 708 c 1
 942 1185 l 1
 608 1185 l 1
 608 711 l 1
 438 711 l 1
 438 1184 l 1
 104 1184 l 1
 104 0 l 1
EndSplineSet
EndChar

StartChar: afii10108
Encoding: 415 1115 221
Width: 1061
VWidth: 0
Flags: HW
HStem: 765 224<495.419 808>
LayerCount: 2
UndoRedoHistory
Layer: 1
Undoes
EndUndoes
Redoes
EndRedoes
EndUndoRedoHistory
Fore
SplineSet
115 0 m 1
 449 0 l 1
 449 735 l 1
 474 747 524 765 554 765 c 0
 615 765 630 718 630 640 c 2
 630 0 l 1
 964 0 l 1
 964 630 l 2
 964 810 917 989 699 989 c 0
 610 989 521 954 449 927 c 1
 449 1214 l 1
 711 1214 l 1
 711 1381 l 1
 449 1381 l 1
 449 1658 l 1
 115 1658 l 1
 115 1381 l 1
 -17 1381 l 1
 -17 1214 l 1
 115 1214 l 1
 115 0 l 1
EndSplineSet
EndChar

StartChar: afii10145
Encoding: 418 1039 224
Width: 1226
VWidth: 0
Flags: HW
LayerCount: 2
UndoRedoHistory
Layer: 1
Undoes
EndUndoes
Redoes
EndRedoes
EndUndoRedoHistory
Fore
SplineSet
485 -358 m 1
 749 -358 l 1
 763 0 l 1
 1104 0 l 1
 1104 1658 l 1
 738 1658 l 1
 738 277 l 1
 488 277 l 1
 488 1658 l 1
 122 1658 l 1
 122 0 l 1
 471 0 l 1
 485 -358 l 1
EndSplineSet
EndChar

StartChar: afii10193
Encoding: 419 1119 225
Width: 1059
VWidth: 0
Flags: HW
VStem: 422 235<-323 -112.521>
LayerCount: 2
UndoRedoHistory
Layer: 1
Undoes
EndUndoes
Redoes
EndRedoes
EndUndoRedoHistory
Fore
SplineSet
422 -323 m 1
 657 -323 l 1
 675 0 l 1
 955 0 l 1
 955 1184 l 1
 621 1184 l 1
 621 205 l 1
 438 205 l 1
 438 1184 l 1
 104 1184 l 1
 104 0 l 1
 400 0 l 1
 422 -323 l 1
EndSplineSet
EndChar

StartChar: afii61289
Encoding: 420 8467 226
Width: 1251
VWidth: 0
Flags: HW
LayerCount: 2
UndoRedoHistory
Layer: 1
Undoes
EndUndoes
Redoes
EndRedoes
EndUndoRedoHistory
Fore
SplineSet
747 1107 m 1
 828 1610 l 2
 866 1846 1250 1762 747 1107 c 1
446 491 m 1
 425 353 l 2
 358 -96 764 -122 1004 148 c 1
 911 272 l 1
 751 90 585 98 626 352 c 2
 695 783 l 1
 841 953 l 1
 1752 2022 697 2172 613 1610 c 2
 491 792 l 1
 178 411 l 1
 278 295 l 1
 446 491 l 1
EndSplineSet
EndChar

StartChar: ampersand
Encoding: 38 38 230
Width: 1169
VWidth: 0
Flags: HW
HStem: -26 226<389.245 589.432> 1446 237<441.355 595.631>
VStem: 82 266<241.858 577.7> 148 274<1121.65 1430.51> 610 261<1160.95 1429.67> 843 229<514.625 816>
LayerCount: 2
UndoRedoHistory
Layer: 1
Undoes
EndUndoes
Redoes
EndRedoes
EndUndoRedoHistory
Fore
SplineSet
498 1009 m 1
 482 1072 422 1228 422 1327 c 0
 422 1398 461 1446 515 1446 c 0
 566 1446 610 1410 610 1346 c 0
 610 1242 534 1079 498 1009 c 1
466 200 m 0
 407 200 348 272 348 387 c 0
 348 468 375 563 431 655 c 1
 449 613 616 274 616 274 c 1
 575 219 522 200 466 200 c 0
460 -26 m 0
 586 -26 698 25 771 115 c 1
 837 56 921 -31 1025 -31 c 0
 1046 -31 1064 -27 1083 -22 c 1
 1083 223 l 1
 1029 228 974 257 948 289 c 1
 1021 429 1072 575 1072 816 c 1
 843 816 l 1
 839 707 818 536 784 475 c 1
 592 833 l 1
 706 957 871 1098 871 1330 c 0
 871 1551 711 1683 501 1683 c 0
 282 1683 148 1517 148 1312 c 0
 148 1159 243 1031 315 880 c 1
 193 760 82 563 82 363 c 0
 82 134 237 -26 460 -26 c 0
EndSplineSet
EndChar

StartChar: approxequal
Encoding: 424 8776 232
Width: 989
VWidth: 0
Flags: HW
HStem: 410 235<543.803 748.708> 531 233<238.948 451.366> 852 235<543.803 748.708> 973 233<238.948 451.366>
LayerCount: 2
UndoRedoHistory
Layer: 1
Undoes
EndUndoes
Redoes
EndRedoes
EndUndoRedoHistory
Fore
SplineSet
672 852 m 0
 767 852 874 964 919 1065 c 1
 803 1185 l 1
 757 1133 701 1087 664 1087 c 0
 589 1087 441 1206 324 1206 c 0
 236 1206 133 1102 82 1015 c 1
 187 875 l 1
 233 938 297 973 328 973 c 0
 406 973 555 852 672 852 c 0
672 410 m 0
 767 410 874 522 919 622 c 1
 803 742 l 1
 757 691 701 645 664 645 c 0
 589 645 441 764 324 764 c 0
 236 764 133 659 82 572 c 1
 187 433 l 1
 233 496 297 531 328 531 c 0
 406 531 555 410 672 410 c 0
EndSplineSet
EndChar

StartChar: asciicircum
Encoding: 94 94 234
Width: 978
VWidth: 0
Flags: HW
LayerCount: 2
UndoRedoHistory
Layer: 1
Undoes
EndUndoes
Redoes
EndRedoes
EndUndoRedoHistory
Fore
SplineSet
62 971 m 1
 345 971 l 1
 488 1373 l 1
 632 971 l 1
 916 971 l 1
 622 1658 l 1
 355 1658 l 1
 62 971 l 1
EndSplineSet
EndChar

StartChar: asciitilde
Encoding: 126 126 235
Width: 989
VWidth: 0
Flags: HW
HStem: 682 235<543.803 748.708> 803 233<238.948 451.366>
LayerCount: 2
UndoRedoHistory
Layer: 1
Undoes
EndUndoes
Redoes
EndRedoes
EndUndoRedoHistory
Fore
SplineSet
672 682 m 0
 767 682 874 794 919 894 c 1
 803 1014 l 1
 757 963 701 917 664 917 c 0
 589 917 441 1036 324 1036 c 0
 236 1036 133 931 82 844 c 1
 187 705 l 1
 233 768 297 803 328 803 c 0
 406 803 555 682 672 682 c 0
EndSplineSet
EndChar

StartChar: asterisk
Encoding: 42 42 236
Width: 867
VWidth: 0
Flags: HW
LayerCount: 2
UndoRedoHistory
Layer: 1
Undoes
EndUndoes
Redoes
EndRedoes
EndUndoRedoHistory
Fore
SplineSet
352 921 m 1
 454 1140 l 1
 557 921 l 1
 756 1038 l 1
 607 1244 l 1
 827 1329 l 1
 753 1530 l 1
 554 1418 l 1
 579 1657 l 1
 330 1657 l 1
 357 1420 l 1
 157 1530 l 1
 82 1330 l 1
 301 1246 l 1
 155 1037 l 1
 352 921 l 1
EndSplineSet
EndChar

StartChar: at
Encoding: 64 64 237
Width: 1951
VWidth: 0
Flags: HW
HStem: -262 205<705.891 1325.57> 202 1040<1186 1452> 1011 244<968.366 1112.31> 1457 202<834.936 1359.35>
VStem: 549 288<478.021 845.924>
LayerCount: 2
UndoRedoHistory
Layer: 1
Undoes
EndUndoes
Redoes
EndRedoes
EndUndoRedoHistory
Fore
SplineSet
973 441 m 1
 872 435 836 531 837 637 c 0
 838 809 922 1011 1085 1011 c 0
 1101 1011 1141 1004 1142 983 c 1
 1080 504 l 1
 1060 454 989 444 973 441 c 1
969 -262 m 0
 1123 -262 1290 -232 1443 -196 c 1
 1405 10 l 1
 1284 -30 1104 -57 1000 -57 c 0
 481 -57 306 241 361 714 c 1
 402 1120 620 1457 1091 1457 c 0
 1539 1457 1693 1182 1655 785 c 1
 1635 545 1500 360 1382 389 c 0
 1337 401 1355 520 1361 568 c 2
 1452 1242 l 1
 1186 1242 l 1
 1166 1115 l 1
 1149 1154 1115 1255 1015 1255 c 0
 689 1255 557 877 549 639 c 1
 539 396 671 198 901 218 c 0
 991 226 1064 283 1095 355 c 1
 1129 249 1247 202 1360 202 c 0
 1710 202 1864 534 1883 789 c 1
 1930 1280 1689 1659 1115 1659 c 0
 534 1659 171 1280 118 709 c 1
 52 108 355 -262 969 -262 c 0
EndSplineSet
EndChar

StartChar: b
Encoding: 98 98 239
Width: 1036
VWidth: 0
Flags: HW
VStem: 615 335<207.29 349 854 985.609>
LayerCount: 2
UndoRedoHistory
Layer: 1
Undoes
EndUndoes
Redoes
EndRedoes
EndUndoRedoHistory
Fore
SplineSet
532 197 m 0
 500 197 468 209 439 226 c 1
 439 962 l 1
 469 984 502 999 529 1001 c 0
 592 1006 615 944 615 879 c 2
 615 331 l 2
 615 258 594 196 532 197 c 0
690 -21 m 0
 860 -21 950 130 950 349 c 2
 950 854 l 2
 950 1038 878 1199 697 1204 c 0
 612 1207 521 1170 439 1097 c 1
 439 1658 l 1
 105 1658 l 1
 105 0 l 1
 439 0 l 1
 439 89 l 1
 516 22 605 -21 690 -21 c 0
EndSplineSet
EndChar

StartChar: backslash
Encoding: 92 92 240
Width: 865
VWidth: 0
Flags: HW
LayerCount: 2
UndoRedoHistory
Layer: 1
Undoes
EndUndoes
Redoes
EndRedoes
EndUndoRedoHistory
Fore
SplineSet
593 0 m 1
 776 0 l 1
 271 1658 l 1
 88 1658 l 1
 593 0 l 1
EndSplineSet
EndChar

StartChar: bar
Encoding: 124 124 241
Width: 538
VWidth: 0
Flags: HW
VStem: 131 276
LayerCount: 2
UndoRedoHistory
Layer: 1
Undoes
EndUndoes
Redoes
EndRedoes
EndUndoRedoHistory
Fore
SplineSet
131 -366 m 1
 407 -366 l 1
 407 1658 l 1
 132 1658 l 1
 131 -366 l 1
EndSplineSet
EndChar

StartChar: braceleft
Encoding: 123 123 242
Width: 767
VWidth: 0
Flags: HW
HStem: -399 224<574.564 703> 528 239<97 207.678> 1470 224<574.564 703>
VStem: 230 310<-144.884 57 208 509.248 785.855 1087 1238 1439.88>
LayerCount: 2
UndoRedoHistory
Layer: 1
Undoes
EndUndoes
Redoes
EndRedoes
EndUndoRedoHistory
Fore
SplineSet
703 -399 m 1
 703 -175 l 1
 560 -175 540 -147 540 57 c 2
 540 247 l 2
 540 479 503 615 363 648 c 1
 503 680 540 816 540 1048 c 2
 540 1238 l 2
 540 1442 560 1470 703 1470 c 1
 703 1694 l 1
 270 1694 230 1581 230 1256 c 2
 230 1087 l 2
 230 797 224 767 97 767 c 1
 97 528 l 1
 224 528 230 498 230 208 c 2
 230 39 l 2
 230 -286 270 -399 703 -399 c 1
EndSplineSet
EndChar

StartChar: braceright
Encoding: 125 125 243
Width: 780
VWidth: 0
Flags: HW
HStem: -399 224<77 205.729> 528 239<573.172 683> 1470 224<77 205.729>
VStem: 240 311<-144.884 57 208 509.248 785.855 1087 1238 1439.88>
LayerCount: 2
UndoRedoHistory
Layer: 1
Undoes
EndUndoes
Redoes
EndRedoes
EndUndoRedoHistory
Fore
SplineSet
77 -399 m 1
 511 -399 551 -286 551 39 c 2
 551 208 l 2
 551 498 557 528 683 528 c 1
 683 767 l 1
 557 767 551 797 551 1087 c 2
 551 1256 l 2
 551 1581 511 1694 77 1694 c 1
 77 1470 l 1
 221 1470 240 1442 240 1238 c 2
 240 1048 l 2
 240 816 277 680 418 648 c 1
 277 615 240 479 240 247 c 2
 240 57 l 2
 240 -147 221 -175 77 -175 c 1
 77 -399 l 1
EndSplineSet
EndChar

StartChar: bracketleft
Encoding: 91 91 244
Width: 685
VWidth: 0
Flags: HW
LayerCount: 2
UndoRedoHistory
Layer: 1
Undoes
EndUndoes
Redoes
EndRedoes
EndUndoRedoHistory
Fore
SplineSet
106 -381 m 1
 622 -381 l 1
 622 -251 l 1
 368 -251 l 1
 369 1528 l 1
 624 1528 l 1
 624 1658 l 1
 107 1658 l 1
 106 -381 l 1
EndSplineSet
EndChar

StartChar: bracketright
Encoding: 93 93 245
Width: 666
VWidth: 0
Flags: HW
LayerCount: 2
UndoRedoHistory
Layer: 1
Undoes
EndUndoes
Redoes
EndRedoes
EndUndoRedoHistory
Fore
SplineSet
43 -381 m 1
 560 -381 l 1
 558 1658 l 1
 42 1658 l 1
 42 1528 l 1
 296 1528 l 1
 298 -252 l 1
 43 -252 l 1
 43 -381 l 1
EndSplineSet
EndChar

StartChar: breve
Encoding: 425 728 246
Width: 667
VWidth: 0
Flags: HW
HStem: 1400 137<218.201 420.392>
VStem: 56 146<1555.36 1658> 437 146<1555.36 1658>
LayerCount: 2
UndoRedoHistory
Layer: 1
Undoes
EndUndoes
Redoes
EndRedoes
EndUndoRedoHistory
Fore
SplineSet
319 1400 m 0
 489 1400 583 1496 583 1658 c 1
 437 1658 l 1
 437 1575 406 1537 319 1537 c 0
 232 1537 202 1574 202 1658 c 1
 56 1658 l 1
 56 1496 150 1400 319 1400 c 0
EndSplineSet
EndChar

StartChar: brokenbar
Encoding: 166 166 247
Width: 445
VWidth: 0
Flags: HW
VStem: 106 233
LayerCount: 2
UndoRedoHistory
Layer: 1
Undoes
EndUndoes
Redoes
EndRedoes
EndUndoRedoHistory
Fore
SplineSet
106 824 m 1
 339 824 l 1
 339 1658 l 1
 106 1658 l 1
 106 824 l 1
106 -366 m 1
 339 -366 l 1
 339 468 l 1
 106 468 l 1
 106 -366 l 1
EndSplineSet
EndChar

StartChar: bullet
Encoding: 427 8226 248
Width: 979
VWidth: 0
Flags: HW
HStem: 386 757<312.496 662.261>
VStem: 123 731<573.063 952.878>
LayerCount: 2
UndoRedoHistory
Layer: 1
Undoes
EndUndoes
Redoes
EndRedoes
EndUndoRedoHistory
Fore
SplineSet
487 386 m 0
 673 386 854 514 854 762 c 0
 854 1012 674 1143 487 1143 c 0
 302 1143 123 1016 123 762 c 0
 123 514 301 386 487 386 c 0
EndSplineSet
EndChar

StartChar: c
Encoding: 99 99 249
Width: 959
VWidth: 0
Flags: HW
HStem: -21 232<429.126 557.323> 975 229<429.646 557.62>
VStem: 81 335<219.93 379 807 965.241> 567 322<217.399 339 848 969.922>
AnchorPoint: "cedilla" 380 0 basechar 0
LayerCount: 2
UndoRedoHistory
Layer: 1
Undoes
EndUndoes
Redoes
EndRedoes
EndUndoRedoHistory
Fore
SplineSet
490 -21 m 0
 739 -21 889 101 889 339 c 2
 889 482 l 1
 567 482 l 1
 567 326 l 2
 567 241 542 211 491 211 c 0
 444 211 416 238 416 346 c 2
 416 837 l 2
 416 942 441 975 491 975 c 0
 539 975 567 952 567 857 c 2
 567 723 l 1
 889 723 l 1
 889 848 l 2
 889 1088 741 1204 490 1204 c 0
 229 1204 81 1057 81 807 c 2
 81 379 l 2
 81 128 229 -21 490 -21 c 0
EndSplineSet
EndChar

StartChar: caron
Encoding: 429 711 251
Width: 823
VWidth: 0
Flags: HW
HStem: 1278 380
LayerCount: 2
UndoRedoHistory
Layer: 1
Undoes
EndUndoes
Redoes
EndRedoes
EndUndoRedoHistory
Fore
SplineSet
248 1278 m 1
 569 1278 l 1
 751 1658 l 1
 514 1658 l 1
 409 1435 l 1
 307 1658 l 1
 71 1658 l 1
 248 1278 l 1
EndSplineSet
EndChar

StartChar: cedilla
Encoding: 184 184 256
Width: 567
VWidth: 0
Flags: HW
HStem: -544 145<108 353.587> -237 237<165 285.593>
VStem: 354 216<-397.831 -282.062>
AnchorPoint: "cedilla" 120 0 mark 0
LayerCount: 2
UndoRedoHistory
Layer: 1
Undoes
EndUndoes
Redoes
EndRedoes
EndUndoRedoHistory
Fore
SplineSet
108 -544 m 1
 311 -605 573 -559 570 -341 c 0
 569 -219 441 -140 289 -135 c 1
 289 0 l 1
 165 0 l 1
 165 -237 l 1
 244 -243 354 -272 354 -356 c 1
 353 -431 182 -421 108 -399 c 1
 108 -544 l 1
EndSplineSet
EndChar

StartChar: cent
Encoding: 162 162 257
Width: 932
VWidth: 0
Flags: HW
VStem: 76 336<230.163 379 807 955.559> 562 322<230.94 339 848 956.173>
LayerCount: 2
UndoRedoHistory
Layer: 1
Undoes
EndUndoes
Redoes
EndRedoes
EndUndoRedoHistory
Fore
SplineSet
433 -264 m 1
 518 -264 l 1
 518 -20 l 1
 750 -10 884 111 884 339 c 2
 884 482 l 1
 562 482 l 1
 562 333 l 2
 562 249 538 218 487 218 c 0
 440 218 412 246 412 353 c 2
 412 829 l 2
 412 935 436 968 486 968 c 0
 534 968 562 944 562 849 c 2
 562 723 l 1
 884 723 l 1
 884 848 l 2
 884 1077 752 1194 518 1203 c 1
 518 1445 l 1
 433 1445 l 1
 433 1202 l 1
 206 1183 76 1040 76 807 c 2
 76 379 l 2
 76 146 206 1 433 -18 c 1
 433 -264 l 1
EndSplineSet
EndChar

StartChar: circumflex
Encoding: 433 710 258
Width: 829
VWidth: 0
Flags: HW
HStem: 1258 400
LayerCount: 2
UndoRedoHistory
Layer: 1
Undoes
EndUndoes
Redoes
EndRedoes
EndUndoRedoHistory
Fore
SplineSet
90 1258 m 1
 334 1258 l 1
 423 1509 l 1
 512 1258 l 1
 757 1258 l 1
 558 1658 l 1
 283 1658 l 1
 90 1258 l 1
EndSplineSet
EndChar

StartChar: colon
Encoding: 58 58 259
Width: 564
VWidth: 0
Flags: HW
VStem: 135 313
LayerCount: 2
UndoRedoHistory
Layer: 1
Undoes
EndUndoes
Redoes
EndRedoes
EndUndoRedoHistory
Fore
SplineSet
135 842 m 1
 448 842 l 1
 448 1152 l 1
 135 1152 l 1
 135 842 l 1
135 119 m 1
 448 119 l 1
 448 428 l 1
 135 428 l 1
 135 119 l 1
EndSplineSet
EndChar

StartChar: comma
Encoding: 44 44 260
Width: 486
VWidth: 0
Flags: HW
HStem: -287 109<134.238 206.76>
VStem: 262 141<-122.089 0>
LayerCount: 2
UndoRedoHistory
Layer: 1
Undoes
EndUndoes
Redoes
EndRedoes
EndUndoRedoHistory
Fore
SplineSet
137 -287 m 1
 315 -273 403 -161 403 40 c 2
 404 312 l 1
 88 312 l 1
 88 0 l 1
 262 0 l 1
 262 -117 189 -161 116 -178 c 1
 137 -287 l 1
EndSplineSet
EndChar

StartChar: copyright
Encoding: 169 169 261
Width: 1807
VWidth: 0
Flags: HW
HStem: -26 83<655.848 1156.24> 253 230<836.937 977.598> 1195 228<837.45 977.826> 1601 90<635.552 1176.11>
VStem: 87 99<544.21 1119.17> 461 360<497.045 643 1035 1180.31> 989 347<493.498 603 1076 1185.97> 1628 92<543.798 1119.17>
LayerCount: 2
UndoRedoHistory
Layer: 1
Undoes
EndUndoes
Redoes
EndRedoes
EndUndoRedoHistory
Fore
SplineSet
905 -26 m 0
 1486 -26 1720 418 1720 832 c 0
 1720 1246 1484 1691 905 1691 c 0
 323 1691 87 1246 87 832 c 0
 87 420 323 -26 905 -26 c 0
908 57 m 0
 405 57 186 441 186 831 c 0
 186 1222 405 1601 908 1601 c 0
 1408 1601 1628 1222 1628 831 c 0
 1628 441 1408 57 908 57 c 0
904 253 m 0
 1174 253 1336 371 1336 603 c 2
 1336 729 l 1
 989 729 l 1
 989 597 l 2
 989 514 961 483 905 483 c 0
 854 483 821 510 821 617 c 2
 821 1057 l 2
 821 1162 850 1195 905 1195 c 0
 957 1195 989 1171 989 1077 c 2
 989 962 l 1
 1336 962 l 1
 1336 1076 l 2
 1336 1310 1176 1423 904 1423 c 0
 620 1423 461 1279 461 1035 c 2
 461 643 l 2
 461 398 620 253 904 253 c 0
EndSplineSet
EndChar

StartChar: currency
Encoding: 164 164 262
Width: 1138
VWidth: 0
Flags: HW
HStem: 428 93<407.785 730.89> 1189 21G<256 314 824 882> 1211 93<407.785 730.89>
VStem: 136 99<693.746 1038.64> 904 98<693.746 1038.64>
LayerCount: 2
UndoRedoHistory
Layer: 1
Undoes
EndUndoes
Redoes
EndRedoes
EndUndoRedoHistory
Fore
SplineSet
569 521 m 0
 380 521 235 677 235 866 c 0
 235 1056 380 1211 569 1211 c 0
 759 1211 904 1056 904 866 c 0
 904 677 759 521 569 521 c 0
114 381 m 1
 276 543 l 1
 352 471 455 427 569 428 c 1
 683 427 786 471 862 543 c 1
 1024 381 l 1
 1054 411 l 1
 891 573 l 1
 960 650 1002 754 1002 866 c 0
 1002 979 960 1082 892 1159 c 1
 1054 1321 l 1
 1024 1351 l 1
 862 1189 l 1
 786 1261 683 1305 569 1304 c 1
 455 1305 352 1261 276 1189 c 1
 114 1351 l 1
 84 1321 l 1
 247 1159 l 1
 178 1082 136 979 136 866 c 0
 136 754 178 650 247 573 c 1
 84 411 l 1
 114 381 l 1
EndSplineSet
EndChar

StartChar: d
Encoding: 100 100 263
Width: 1031
VWidth: 0
Flags: HW
HStem: -21 215<273.5 507.047> 994 210<269.5 524.269>
VStem: 87 335<212.932 348 829 979.141>
LayerCount: 2
UndoRedoHistory
Layer: 1
Undoes
EndUndoes
Redoes
EndRedoes
EndUndoRedoHistory
Fore
SplineSet
506 194 m 0
 444 194 422 255 422 326 c 2
 422 866 l 2
 422 937 446 994 508 994 c 0
 534 994 566 984 593 968 c 1
 593 223 l 1
 561 205 528 194 506 194 c 0
362 -21 m 1
 442 -20 521 20 593 90 c 1
 593 0 l 1
 927 0 l 1
 927 1658 l 1
 593 1658 l 1
 593 1111 l 1
 527 1168 448 1204 362 1204 c 0
 177 1204 87 1046 87 829 c 2
 87 348 l 2
 87 101 185 -21 362 -21 c 1
EndSplineSet
EndChar

StartChar: dagger
Encoding: 434 8224 264
Width: 840
VWidth: 0
Flags: HW
LayerCount: 2
UndoRedoHistory
Layer: 1
Undoes
EndUndoes
Redoes
EndRedoes
EndUndoRedoHistory
Fore
SplineSet
288 0 m 1
 558 0 l 1
 558 1011 l 1
 775 1011 l 1
 775 1212 l 1
 558 1212 l 1
 558 1656 l 1
 288 1656 l 1
 288 1212 l 1
 66 1212 l 1
 66 1011 l 1
 288 1011 l 1
 288 0 l 1
EndSplineSet
EndChar

StartChar: daggerdbl
Encoding: 435 8225 265
Width: 840
VWidth: 0
Flags: HW
LayerCount: 2
UndoRedoHistory
Layer: 1
Undoes
EndUndoes
Redoes
EndRedoes
EndUndoRedoHistory
Fore
SplineSet
289 0 m 1
 557 0 l 1
 557 491 l 1
 781 491 l 1
 781 674 l 1
 557 674 l 1
 557 991 l 1
 781 991 l 1
 781 1185 l 1
 557 1185 l 1
 557 1656 l 1
 289 1656 l 1
 289 1185 l 1
 61 1185 l 1
 61 991 l 1
 289 991 l 1
 289 674 l 1
 61 674 l 1
 61 491 l 1
 289 491 l 1
 289 0 l 1
EndSplineSet
EndChar

StartChar: dcroat
Encoding: 437 273 267
Width: 1024
VWidth: 0
Flags: HW
HStem: -21 215<268 511> 994 210<263.5 515.71>
VStem: 81 335<212.932 348 829 979.141>
LayerCount: 2
UndoRedoHistory
Layer: 1
Undoes
EndUndoes
Redoes
EndRedoes
EndUndoRedoHistory
Fore
SplineSet
500 194 m 0
 438 194 416 255 416 326 c 2
 416 866 l 2
 416 937 440 994 502 994 c 0
 529 994 556 984 583 969 c 1
 583 223 l 1
 552 205 522 194 500 194 c 0
356 -21 m 1
 436 -20 512 20 583 90 c 1
 583 0 l 1
 917 0 l 1
 917 1393 l 1
 1018 1393 l 1
 1018 1529 l 1
 917 1529 l 1
 917 1658 l 1
 583 1658 l 1
 583 1529 l 1
 309 1529 l 1
 309 1393 l 1
 583 1393 l 1
 583 1111 l 1
 518 1168 442 1204 356 1204 c 0
 171 1204 81 1046 81 829 c 2
 81 348 l 2
 81 101 180 -21 356 -21 c 1
EndSplineSet
EndChar

StartChar: degree
Encoding: 176 176 268
Width: 1105
VWidth: 0
Flags: HW
HStem: 868 182<427.25 676.228> 1497 183<420.726 680.987>
VStem: 140 211<1126.19 1423.64> 753 213<1126.19 1423.24>
LayerCount: 2
UndoRedoHistory
Layer: 1
Undoes
EndUndoes
Redoes
EndRedoes
EndUndoRedoHistory
Fore
SplineSet
551 868 m 0
 803 868 966 1030 966 1275 c 0
 966 1521 800 1680 551 1680 c 0
 304 1680 140 1522 140 1275 c 0
 140 1030 302 868 551 868 c 0
551 1050 m 0
 423 1050 351 1145 351 1275 c 0
 351 1406 423 1497 551 1497 c 0
 682 1497 753 1405 753 1275 c 0
 753 1145 681 1050 551 1050 c 0
EndSplineSet
EndChar

StartChar: dieresis
Encoding: 168 168 269
Width: 870
VWidth: 0
Flags: HW
HStem: 1355 303
LayerCount: 2
UndoRedoHistory
Layer: 1
Undoes
EndUndoes
Redoes
EndRedoes
EndUndoRedoHistory
Fore
SplineSet
521 1355 m 1
 790 1355 l 1
 790 1658 l 1
 521 1658 l 1
 521 1355 l 1
80 1355 m 1
 349 1355 l 1
 349 1658 l 1
 80 1658 l 1
 80 1355 l 1
EndSplineSet
EndChar

StartChar: divide
Encoding: 247 247 270
Width: 929
VWidth: 0
Flags: HW
LayerCount: 2
UndoRedoHistory
Layer: 1
Undoes
EndUndoes
Redoes
EndRedoes
EndUndoRedoHistory
Fore
SplineSet
371 1086 m 1
 578 1086 l 1
 578 1341 l 1
 371 1341 l 1
 371 1086 l 1
70 767 m 1
 859 767 l 1
 859 947 l 1
 70 947 l 1
 70 767 l 1
371 358 m 1
 578 358 l 1
 578 613 l 1
 371 613 l 1
 371 358 l 1
EndSplineSet
EndChar

StartChar: dollar
Encoding: 36 36 271
Width: 997
VWidth: 0
Flags: HW
VStem: 45 314<314.356 503> 46 354<1135.48 1391.96> 596 360<266.758 535.385> 607 317<1211 1388.02>
LayerCount: 2
UndoRedoHistory
Layer: 1
Undoes
EndUndoes
Redoes
EndRedoes
EndUndoRedoHistory
Fore
SplineSet
477 -221 m 1
 580 -221 l 1
 580 -20 l 1
 811 4 956 175 956 394 c 0
 956 623 839 765 699 890 c 1
 558 1014 l 1
 479 1085 400 1152 400 1284 c 0
 400 1342 430 1411 499 1413 c 0
 595 1417 604 1315 607 1170 c 1
 924 1211 l 1
 917 1396 878 1659 563 1680 c 1
 563 1868 l 1
 458 1868 l 1
 458 1679 l 1
 206 1658 46 1507 46 1247 c 0
 46 1033 144 922 268 815 c 2
 415 688 l 2
 526 592 596 514 596 374 c 0
 596 318 579 254 503 254 c 0
 411 254 362 339 359 551 c 1
 45 503 l 1
 56 153 193 -9 477 -22 c 1
 477 -221 l 1
EndSplineSet
EndChar

StartChar: dotlessi
Encoding: 439 305 273
Width: 573
VWidth: 0
Flags: HW
VStem: 121 334
LayerCount: 2
UndoRedoHistory
Layer: 1
Undoes
EndUndoes
Redoes
EndRedoes
EndUndoRedoHistory
Fore
SplineSet
121 0 m 1
 455 0 l 1
 455 1184 l 1
 121 1184 l 1
 121 0 l 1
EndSplineSet
EndChar

StartChar: e
Encoding: 101 101 274
Width: 962
VWidth: 0
Flags: HW
HStem: -21 239<429.519 560.476> 966 238<428.878 562.283>
VStem: 81 331<229.092 380 804 955.186> 575 310<229.925 343 804 957.189>
AnchorPoint: "ogonek" 471 0 basechar 0
LayerCount: 2
UndoRedoHistory
Layer: 1
Undoes
EndUndoes
Redoes
EndRedoes
EndUndoRedoHistory
Fore
SplineSet
412 727 m 1
 412 825 l 2
 412 932 440 966 490 966 c 0
 541 966 575 938 575 845 c 2
 575 727 l 1
 412 727 l 1
491 -21 m 0
 738 -21 885 104 885 343 c 2
 885 457 l 1
 575 457 l 1
 575 333 l 2
 575 250 543 218 491 218 c 0
 432 218 412 271 412 363 c 2
 412 571 l 1
 885 571 l 1
 885 804 l 2
 885 1064 756 1204 491 1204 c 0
 232 1204 81 1059 81 804 c 2
 81 380 l 2
 81 126 230 -21 491 -21 c 0
EndSplineSet
EndChar

StartChar: eight
Encoding: 56 56 282
Width: 1085
VWidth: 0
Flags: HW
HStem: -26 252<463.938 620.617> 723 274<472.366 609.809> 1424 256<466.427 610.819>
VStem: 89 336<260.359 688.831> 115 323<1026.85 1400.21> 644 322<1026.81 1399.16> 659 337<260.43 688.831>
CounterMasks: 1 e0
LayerCount: 2
UndoRedoHistory
Layer: 1
Undoes
EndUndoes
Redoes
EndRedoes
EndUndoRedoHistory
Fore
SplineSet
542 997 m 0
 469 997 438 1082 438 1245 c 0
 438 1353 471 1424 542 1424 c 0
 611 1424 644 1353 644 1244 c 0
 644 1082 612 997 542 997 c 0
542 226 m 0
 431 226 425 375 425 469 c 0
 425 594 434 723 542 723 c 0
 652 723 660 593 659 469 c 0
 659 377 654 226 542 226 c 0
542 -26 m 0
 881 -26 1003 187 996 494 c 1
 994 658 934 808 805 874 c 1
 890 935 962 1050 966 1233 c 0
 972 1511 826 1680 542 1680 c 0
 260 1680 109 1514 115 1233 c 0
 119 1050 193 936 278 874 c 1
 147 808 91 658 89 494 c 0
 85 188 206 -26 542 -26 c 0
EndSplineSet
EndChar

StartChar: ellipsis
Encoding: 443 8230 283
Width: 1356
VWidth: 0
Flags: HW
LayerCount: 2
UndoRedoHistory
Layer: 1
Undoes
EndUndoes
Redoes
EndRedoes
EndUndoRedoHistory
Fore
SplineSet
979 1 m 1
 1296 1 l 1
 1296 315 l 1
 979 315 l 1
 979 1 l 1
516 0 m 1
 833 0 l 1
 833 314 l 1
 516 314 l 1
 516 0 l 1
60 0 m 1
 377 0 l 1
 377 314 l 1
 60 314 l 1
 60 0 l 1
EndSplineSet
EndChar

StartChar: emdash
Encoding: 445 8212 285
Width: 2047
VWidth: 0
Flags: HW
HStem: 671 227
LayerCount: 2
UndoRedoHistory
Layer: 1
Undoes
EndUndoes
Redoes
EndRedoes
EndUndoRedoHistory
Fore
SplineSet
1 671 m 1
 2046 671 l 1
 2046 898 l 1
 1 898 l 1
 1 671 l 1
EndSplineSet
EndChar

StartChar: endash
Encoding: 446 8211 286
Width: 1024
VWidth: 0
Flags: HW
HStem: 629 229
LayerCount: 2
UndoRedoHistory
Layer: 1
Undoes
EndUndoes
Redoes
EndRedoes
EndUndoRedoHistory
Fore
SplineSet
1 629 m 1
 1023 629 l 1
 1023 858 l 1
 1 858 l 1
 1 629 l 1
EndSplineSet
EndChar

StartChar: eng
Encoding: 447 331 287
Width: 970
VWidth: 0
Flags: HW
HStem: -400 211<362 542.829>
VStem: 590 334<-151.039 -10 879 964.42>
LayerCount: 2
UndoRedoHistory
Layer: 1
Undoes
EndUndoes
Redoes
EndRedoes
EndUndoRedoHistory
Fore
SplineSet
362 -400 m 1
 484 -400 l 2
 811 -400 924 -290 924 -12 c 2
 924 929 l 2
 924 1083 852 1204 706 1204 c 0
 601 1204 508 1167 420 1080 c 1
 420 1184 l 1
 86 1184 l 1
 86 0 l 1
 420 0 l 1
 420 925 l 1
 459 951 496 966 524 966 c 1
 577 968 590 935 590 879 c 2
 590 -10 l 2
 590 -150 552 -189 362 -189 c 1
 362 -400 l 1
EndSplineSet
EndChar

StartChar: equal
Encoding: 61 61 289
Width: 907
VWidth: 0
Flags: HW
VStem: 128 652
LayerCount: 2
UndoRedoHistory
Layer: 1
Undoes
EndUndoes
Redoes
EndRedoes
EndUndoRedoHistory
Fore
SplineSet
128 896 m 1
 780 896 l 1
 780 1100 l 1
 128 1100 l 1
 128 896 l 1
128 508 m 1
 780 508 l 1
 780 712 l 1
 128 712 l 1
 128 508 l 1
EndSplineSet
EndChar

StartChar: estimated
Encoding: 449 8494 290
Width: 953
VWidth: 0
Flags: HW
HStem: -21 81<395.027 628.359> 1123 81<389.424 605.788>
VStem: 79 285<140.246 333 844 1039.32> 634 250<844 1050.38> 660 223<112.048 299>
CounterMasks: 1 38
LayerCount: 2
UndoRedoHistory
Layer: 1
Undoes
EndUndoes
Redoes
EndRedoes
EndUndoRedoHistory
Fore
SplineSet
364 662 m 1
 364 957 l 2
 364 1064 383 1123 496 1123 c 0
 609 1123 634 1064 634 971 c 2
 634 662 l 1
 364 662 l 1
499 -21 m 0
 749 -21 883 60 883 299 c 2
 883 457 l 1
 660 457 l 1
 660 235 l 2
 660 132 649 60 514 60 c 0
 375 60 364 135 364 239 c 2
 364 571 l 1
 884 571 l 1
 884 844 l 2
 884 1104 757 1204 492 1204 c 0
 234 1204 79 1099 79 844 c 2
 79 333 l 2
 79 79 237 -21 499 -21 c 0
EndSplineSet
EndChar

StartChar: eth
Encoding: 240 240 291
Width: 1064
VWidth: 0
Flags: HW
HStem: -29 223<460.497 607.43> 971 219<368.5 624.798> 1517 208<289 494.998>
VStem: 109 328<211.564 934.809> 627 334<214.844 443 908 966.68>
LayerCount: 2
UndoRedoHistory
Layer: 1
Undoes
EndUndoes
Redoes
EndRedoes
EndUndoRedoHistory
Fore
SplineSet
437 593 m 0
 437 885 455 971 551 971 c 0
 587 971 610 955 627 947 c 1
 627 353 l 2
 627 257 610 194 530 194 c 0
 424 194 437 319 437 593 c 0
961 443 m 2
 961 908 l 2
 961 1229 876 1426 822 1513 c 1
 980 1596 l 1
 944 1684 l 1
 762 1587 l 1
 678 1676 525 1725 289 1725 c 1
 274 1517 l 1
 410 1517 492 1491 523 1454 c 1
 359 1368 l 1
 396 1282 l 1
 576 1375 l 1
 602 1342 624 1258 626 1151 c 1
 588 1172 535 1190 469 1190 c 0
 268 1190 109 1026 109 772 c 2
 109 433 l 2
 109 105 282 -29 529 -29 c 0
 771 -29 961 77 961 443 c 2
EndSplineSet
EndChar

StartChar: exclam
Encoding: 33 33 292
Width: 524
VWidth: 0
Flags: HW
VStem: 195 116<421 568.302>
LayerCount: 2
UndoRedoHistory
Layer: 1
Undoes
EndUndoes
Redoes
EndRedoes
EndUndoRedoHistory
Fore
SplineSet
195 421 m 1
 311 421 l 1
 431 1654 l 1
 99 1654 l 1
 195 421 l 1
93 0 m 1
 408 0 l 1
 408 311 l 1
 93 311 l 1
 93 0 l 1
EndSplineSet
EndChar

StartChar: exclamdown
Encoding: 161 161 293
Width: 485
VWidth: 0
Flags: HW
VStem: 195 116<767.698 915>
LayerCount: 2
UndoRedoHistory
Layer: 1
Undoes
EndUndoes
Redoes
EndRedoes
EndUndoRedoHistory
Fore
SplineSet
97 1025 m 1
 413 1025 l 1
 413 1336 l 1
 97 1336 l 1
 97 1025 l 1
75 -318 m 1
 407 -318 l 1
 311 915 l 1
 195 915 l 1
 75 -318 l 1
EndSplineSet
EndChar

StartChar: f
Encoding: 102 102 294
Width: 656
VWidth: 0
Flags: HW
HStem: 1368 249<329 632>
VStem: 35 597
LayerCount: 2
UndoRedoHistory
Layer: 1
Undoes
EndUndoes
Redoes
EndRedoes
EndUndoRedoHistory
Fore
SplineSet
148 0 m 1
 482 0 l 1
 482 957 l 1
 632 957 l 1
 632 1184 l 1
 482 1184 l 1
 482 1277 l 2
 482 1341 511 1368 562 1368 c 0
 585 1368 613 1362 632 1359 c 1
 632 1607 l 1
 571 1614 524 1617 473 1617 c 0
 185 1617 148 1478 148 1267 c 2
 148 1184 l 1
 35 1184 l 1
 35 957 l 1
 148 957 l 1
 148 0 l 1
EndSplineSet
EndChar

StartChar: five
Encoding: 53 53 295
Width: 1084
VWidth: 0
Flags: HW
HStem: -30 255<485.305 635.579>
VStem: 116 331<252.629 487> 682 323<255.485 814.735>
LayerCount: 2
UndoRedoHistory
Layer: 1
Undoes
EndUndoes
Redoes
EndRedoes
EndUndoRedoHistory
Fore
SplineSet
550 -30 m 0
 940 -30 1005 228 1005 581 c 0
 1005 933 871 1133 616 1108 c 0
 527 1100 443 1068 413 1031 c 1
 433 1371 l 1
 933 1371 l 1
 933 1658 l 1
 156 1658 l 1
 127 704 l 1
 424 704 l 1
 440 805 483 855 554 855 c 0
 666 855 682 729 682 570 c 0
 682 357 681 229 572 225 c 1
 467 220 447 300 447 487 c 1
 116 487 l 1
 116 178 187 -30 550 -30 c 0
EndSplineSet
EndChar

StartChar: florin
Encoding: 450 402 296
Width: 939
VWidth: 0
Flags: HW
HStem: -363 249<66.9332 214.623> 1368 249<708.399 856.067>
LayerCount: 2
UndoRedoHistory
Layer: 1
Undoes
EndUndoes
Redoes
EndRedoes
EndUndoRedoHistory
Fore
SplineSet
201 -363 m 0
 488 -363 540 -227 562 -17 c 2
 662 949 l 1
 818 949 l 1
 818 1184 l 1
 686 1184 l 1
 696 1277 l 2
 702 1341 734 1368 785 1368 c 0
 809 1368 835 1362 855 1359 c 1
 880 1607 l 1
 820 1614 773 1617 722 1617 c 0
 436 1617 382 1481 361 1271 c 1
 353 1184 l 1
 212 1184 l 1
 212 949 l 1
 328 949 l 1
 227 -22 l 2
 221 -86 189 -114 138 -114 c 0
 115 -114 88 -108 68 -105 c 1
 43 -353 l 1
 103 -360 150 -363 201 -363 c 0
EndSplineSet
EndChar

StartChar: foundryicon
Encoding: 451 -1 297
Width: 1514
VWidth: 0
Flags: HW
LayerCount: 2
UndoRedoHistory
Layer: 1
Undoes
EndUndoes
Redoes
EndRedoes
EndUndoRedoHistory
Fore
SplineSet
335 251 m 1
 752 548 l 1
 1177 251 l 1
 1023 743 l 1
 1441 1059 l 1
 922 1059 l 1
 752 1551 l 1
 590 1059 l 1
 71 1052 l 1
 487 743 l 1
 335 251 l 1
EndSplineSet
EndChar

StartChar: four
Encoding: 52 52 298
Width: 1094
VWidth: 0
Flags: HW
LayerCount: 2
UndoRedoHistory
Layer: 1
Undoes
EndUndoes
Redoes
EndRedoes
EndUndoRedoHistory
Fore
SplineSet
326 630 m 1
 572 1322 l 1
 572 630 l 1
 326 630 l 1
572 0 m 1
 879 0 l 1
 879 381 l 1
 1038 381 l 1
 1038 630 l 1
 879 630 l 1
 879 1658 l 1
 497 1658 l 1
 68 638 l 1
 68 381 l 1
 572 381 l 1
 572 0 l 1
EndSplineSet
EndChar

StartChar: fraction
Encoding: 452 8260 299
Width: 653
VWidth: 0
Flags: HW
LayerCount: 2
UndoRedoHistory
Layer: 1
Undoes
EndUndoes
Redoes
EndRedoes
EndUndoRedoHistory
Fore
SplineSet
29 0 m 1
 270 0 l 1
 624 1658 l 1
 384 1658 l 1
 29 0 l 1
EndSplineSet
EndChar

StartChar: g
Encoding: 103 103 300
Width: 1022
VWidth: 0
Flags: HW
HStem: -355 209<377.89 699.543> 366 200<437.744 574.171> 1004 200<437.374 578.73>
VStem: 51 311<-235 -9.70129> 87 330<579.252 993.526> 597 314<581.712 977.71>
LayerCount: 2
UndoRedoHistory
Layer: 1
Undoes
EndUndoes
Redoes
EndRedoes
EndUndoRedoHistory
Fore
SplineSet
506 566 m 0
 426 566 417 644 417 784 c 0
 417 928 419 1004 505 1004 c 0
 592 1004 597 940 597 784 c 0
 597 631 586 566 506 566 c 0
549 -146 m 0
 405 -146 362 -117 362 -60 c 0
 362 -17 390 29 409 57 c 1
 588 35 l 2
 685 24 720 -1 711 -72 c 1
 706 -126 657 -146 549 -146 c 0
550 -355 m 0
 874 -355 974 -228 974 -45 c 0
 974 119 898 209 664 240 c 0
 578 252 457 265 407 274 c 1
 338 284 301 297 298 319 c 1
 293 344 311 372 333 401 c 1
 376 382 458 366 522 366 c 0
 791 366 911 524 911 770 c 0
 911 882 879 961 852 1002 c 1
 905 1034 1013 1081 1050 1092 c 1
 973 1255 l 1
 929 1233 l 1
 866 1200 806 1144 769 1101 c 1
 715 1170 615 1204 499 1204 c 0
 245 1204 87 1071 87 768 c 0
 87 614 139 530 216 474 c 1
 127 403 54 337 72 238 c 1
 80 185 117 143 220 105 c 1
 142 51 51 -29 51 -130 c 0
 51 -340 362 -355 550 -355 c 0
EndSplineSet
EndChar

StartChar: gcommaaccent
Encoding: 455 291 303
Width: 901
VWidth: 0
Flags: HW
HStem: -361 194<369.76 702.845> 370 190<433.856 582.633> 1015 191<436.474 587.124> 1976 97<588.022 659.217>
VStem: 39 311<-141.339 -11.9143> 74 334<579.403 993.129> 393 136<1794 1915.78> 612 317<580.19 973.247>
LayerCount: 2
UndoRedoHistory
Layer: 1
Undoes
EndUndoes
Redoes
EndRedoes
EndUndoRedoHistory
Fore
SplineSet
509 560 m 0
 418 560 408 655 408 789 c 0
 408 912 412 1015 507 1015 c 0
 603 1015 612 933 612 789 c 0
 612 647 601 560 509 560 c 0
536 -167 m 0
 412 -167 350 -135 350 -70 c 0
 350 -23 386 23 416 58 c 1
 579 33 l 1
 692 14 729 -12 719 -87 c 1
 713 -145 649 -167 536 -167 c 0
393 1483 m 1
 703 1483 l 1
 703 1794 l 1
 529 1794 l 1
 529 1910 601 1953 672 1976 c 1
 657 2073 l 1
 481 2063 394 1950 393 1742 c 1
 393 1483 l 1
536 -361 m 0
 868 -361 981 -226 981 -57 c 0
 981 98 904 181 655 221 c 0
 546 238 452 251 382 264 c 0
 315 277 274 289 271 305 c 0
 265 333 293 374 322 410 c 1
 378 386 452 370 529 370 c 0
 798 370 929 529 929 774 c 0
 929 891 895 965 865 1005 c 1
 930 1048 1021 1097 1061 1110 c 1
 985 1261 l 1
 940 1239 l 1
 883 1209 826 1157 779 1101 c 1
 723 1165 619 1206 501 1206 c 0
 236 1206 74 1058 74 770 c 0
 74 633 124 541 205 484 c 1
 121 415 34 333 55 234 c 0
 65 184 114 148 217 109 c 1
 138 52 39 -30 39 -122 c 0
 39 -334 350 -361 536 -361 c 0
EndSplineSet
EndChar

StartChar: germandbls
Encoding: 223 223 305
Width: 1111
VWidth: 0
Flags: HW
HStem: -30 255<522 655.192> 1449 234<462.465 638.932>
VStem: 94 334<1226 1413.5> 684 285<1045.43 1403.21> 725 333<286 634.895>
LayerCount: 2
UndoRedoHistory
Layer: 1
Undoes
EndUndoes
Redoes
EndRedoes
EndUndoRedoHistory
Fore
SplineSet
522 -30 m 1
 857 -30 1058 108 1058 463 c 0
 1058 660 934 820 728 879 c 1
 901 950 969 1074 969 1235 c 0
 969 1516 832 1683 518 1683 c 0
 205 1683 94 1454 94 1226 c 2
 94 0 l 1
 428 0 l 1
 428 1227 l 1
 426 1356 453 1449 548 1449 c 0
 631 1449 684 1376 684 1229 c 0
 684 1065 633 975 536 975 c 1
 539 717 l 1
 639 717 719 629 725 503 c 1
 738 295 661 225 522 225 c 1
 522 -30 l 1
EndSplineSet
EndChar

StartChar: grave
Encoding: 96 96 306
Width: 633
VWidth: 0
Flags: HW
HStem: 1246 412
LayerCount: 2
UndoRedoHistory
Layer: 1
Undoes
EndUndoes
Redoes
EndRedoes
EndUndoRedoHistory
Fore
SplineSet
343 1246 m 1
 551 1246 l 1
 427 1658 l 1
 84 1658 l 1
 343 1246 l 1
EndSplineSet
EndChar

StartChar: gravecomb
Encoding: 457 768 307
Width: 468
VWidth: 0
Flags: HW
HStem: 1246 412
LayerCount: 2
UndoRedoHistory
Layer: 1
Undoes
EndUndoes
Redoes
EndRedoes
EndUndoRedoHistory
Fore
SplineSet
282 1246 m 1
 490 1246 l 1
 366 1658 l 1
 23 1658 l 1
 282 1246 l 1
EndSplineSet
EndChar

StartChar: greater
Encoding: 62 62 308
Width: 815
VWidth: 0
Flags: HW
LayerCount: 2
UndoRedoHistory
Layer: 1
Undoes
EndUndoes
Redoes
EndRedoes
EndUndoRedoHistory
Fore
SplineSet
112 198 m 1
 746 640 l 1
 746 901 l 1
 112 1345 l 1
 112 1052 l 1
 506 772 l 1
 112 489 l 1
 112 198 l 1
EndSplineSet
EndChar

StartChar: greaterequal
Encoding: 458 8805 309
Width: 861
VWidth: 0
Flags: HW
LayerCount: 2
UndoRedoHistory
Layer: 1
Undoes
EndUndoes
Redoes
EndRedoes
EndUndoRedoHistory
Fore
SplineSet
96 14 m 1
 781 14 l 1
 781 228 l 1
 96 228 l 1
 96 14 l 1
112 320 m 1
 746 762 l 1
 746 1023 l 1
 112 1467 l 1
 112 1174 l 1
 506 894 l 1
 112 611 l 1
 112 320 l 1
EndSplineSet
EndChar

StartChar: guillemotleft
Encoding: 171 171 310
Width: 1000
VWidth: 0
Flags: HW
LayerCount: 2
UndoRedoHistory
Layer: 1
Undoes
EndUndoes
Redoes
EndRedoes
EndUndoRedoHistory
Fore
SplineSet
920 70 m 1
 920 394 l 1
 716 609 l 1
 920 825 l 1
 920 1149 l 1
 519 668 l 1
 519 551 l 1
 920 70 l 1
474 70 m 1
 474 394 l 1
 271 609 l 1
 474 825 l 1
 474 1149 l 1
 74 668 l 1
 74 551 l 1
 474 70 l 1
EndSplineSet
EndChar

StartChar: guillemotright
Encoding: 187 187 311
Width: 1016
VWidth: 0
Flags: HW
LayerCount: 2
UndoRedoHistory
Layer: 1
Undoes
EndUndoes
Redoes
EndRedoes
EndUndoRedoHistory
Fore
SplineSet
538 70 m 1
 944 551 l 1
 944 668 l 1
 538 1149 l 1
 538 825 l 1
 747 610 l 1
 538 394 l 1
 538 70 l 1
92 70 m 1
 499 551 l 1
 499 668 l 1
 92 1149 l 1
 92 825 l 1
 302 610 l 1
 92 394 l 1
 92 70 l 1
EndSplineSet
EndChar

StartChar: guilsinglleft
Encoding: 459 8249 312
Width: 583
VWidth: 0
Flags: HW
LayerCount: 2
UndoRedoHistory
Layer: 1
Undoes
EndUndoes
Redoes
EndRedoes
EndUndoRedoHistory
Fore
SplineSet
494 41 m 1
 494 365 l 1
 274 582 l 1
 494 796 l 1
 494 1120 l 1
 70 668 l 1
 70 493 l 1
 494 41 l 1
EndSplineSet
EndChar

StartChar: guilsinglright
Encoding: 460 8250 313
Width: 564
VWidth: 0
Flags: HW
LayerCount: 2
UndoRedoHistory
Layer: 1
Undoes
EndUndoes
Redoes
EndRedoes
EndUndoRedoHistory
Fore
SplineSet
83 75 m 1
 507 556 l 1
 507 672 l 1
 83 1153 l 1
 83 829 l 1
 310 615 l 1
 83 398 l 1
 83 75 l 1
EndSplineSet
EndChar

StartChar: h
Encoding: 104 104 314
Width: 1043
VWidth: 0
Flags: HW
LayerCount: 2
UndoRedoHistory
Layer: 1
Undoes
EndUndoes
Redoes
EndRedoes
EndUndoRedoHistory
Fore
SplineSet
106 0 m 1
 440 0 l 1
 440 923 l 1
 479 950 517 966 546 966 c 1
 599 968 612 935 612 879 c 2
 612 0 l 1
 946 0 l 1
 946 929 l 2
 946 1083 874 1204 729 1204 c 0
 622 1204 528 1166 440 1078 c 1
 440 1658 l 1
 106 1658 l 1
 106 0 l 1
EndSplineSet
EndChar

StartChar: hbar
Encoding: 461 295 315
Width: 1044
VWidth: 0
Flags: HW
LayerCount: 2
UndoRedoHistory
Layer: 1
Undoes
EndUndoes
Redoes
EndRedoes
EndUndoRedoHistory
Fore
SplineSet
107 0 m 1
 441 0 l 1
 441 923 l 1
 481 950 519 966 548 966 c 1
 600 968 614 935 614 879 c 2
 614 0 l 1
 948 0 l 1
 948 929 l 2
 948 1083 875 1204 730 1204 c 0
 624 1204 530 1166 441 1078 c 1
 441 1375 l 1
 681 1375 l 1
 681 1529 l 1
 441 1529 l 1
 441 1658 l 1
 107 1658 l 1
 107 1529 l 1
 11 1529 l 1
 11 1375 l 1
 107 1375 l 1
 107 0 l 1
EndSplineSet
EndChar

StartChar: hungarumlaut
Encoding: 463 733 317
Width: 897
VWidth: 0
Flags: HW
HStem: 1217 441
LayerCount: 2
UndoRedoHistory
Layer: 1
Undoes
EndUndoes
Redoes
EndRedoes
EndUndoRedoHistory
Fore
SplineSet
460 1217 m 1
 634 1217 l 1
 882 1658 l 1
 591 1658 l 1
 460 1217 l 1
98 1217 m 1
 268 1217 l 1
 489 1658 l 1
 217 1658 l 1
 98 1217 l 1
EndSplineSet
EndChar

StartChar: hyphen
Encoding: 45 45 318
Width: 790
VWidth: 0
Flags: HW
HStem: 605 215
VStem: 130 531
LayerCount: 2
UndoRedoHistory
Layer: 1
Undoes
EndUndoes
Redoes
EndRedoes
EndUndoRedoHistory
Fore
SplineSet
130 605 m 1
 661 605 l 1
 661 820 l 1
 130 820 l 1
 130 605 l 1
EndSplineSet
EndChar

StartChar: i
Encoding: 105 105 319
Width: 545
VWidth: 0
Flags: HW
AnchorPoint: "ogonek" 196 0 basechar 0
LayerCount: 2
UndoRedoHistory
Layer: 1
Undoes
EndUndoes
Redoes
EndRedoes
EndUndoRedoHistory
Fore
SplineSet
105 1383 m 1
 441 1383 l 1
 441 1618 l 1
 105 1618 l 1
 105 1383 l 1
107 0 m 1
 441 0 l 1
 441 1184 l 1
 107 1184 l 1
 107 0 l 1
EndSplineSet
EndChar

StartChar: infinity
Encoding: 467 8734 327
Width: 1335
VWidth: 0
Flags: HW
HStem: 191 261<289.76 474.324> 213 249<857.247 1036.15> 703 250<852.523 1036.15> 714 260<289.76 475.474>
VStem: 55 214<466.223 699.724> 1056 224<475.272 690.429>
LayerCount: 2
UndoRedoHistory
Layer: 1
Undoes
EndUndoes
Redoes
EndRedoes
EndUndoRedoHistory
Fore
SplineSet
978 462 m 0
 914 458 843 506 762 583 c 1
 843 660 914 707 978 703 c 1
 1004 703 1056 679 1056 583 c 0
 1056 486 1004 463 978 462 c 0
362 452 m 1
 316 450 269 484 269 583 c 0
 269 682 316 716 362 714 c 0
 425 712 503 659 585 583 c 1
 503 506 417 453 362 452 c 1
363 191 m 0
 491 191 593 283 672 371 c 1
 751 291 860 211 967 213 c 1
 1161 214 1280 388 1280 583 c 0
 1280 778 1161 951 967 953 c 0
 860 955 751 874 672 795 c 1
 593 882 491 974 363 974 c 0
 154 974 55 777 55 583 c 0
 55 389 154 191 363 191 c 0
EndSplineSet
EndChar

StartChar: integral
Encoding: 468 8747 328
Width: 701
VWidth: 0
Flags: HW
HStem: -390 249<32 334.5> 1431 249<364.5 667>
VStem: 182 334<-127.397 -43 1334 1417.72>
LayerCount: 2
UndoRedoHistory
Layer: 1
Undoes
EndUndoes
Redoes
EndRedoes
EndUndoRedoHistory
Fore
SplineSet
191 -390 m 0
 478 -390 516 -254 516 -43 c 2
 516 1339 l 2
 516 1403 545 1431 596 1431 c 0
 620 1431 647 1424 667 1422 c 1
 667 1670 l 1
 605 1677 559 1680 508 1680 c 0
 221 1680 182 1543 182 1334 c 2
 182 -49 l 2
 182 -113 153 -141 102 -141 c 0
 79 -141 51 -135 32 -131 c 1
 32 -379 l 1
 93 -386 140 -390 191 -390 c 0
EndSplineSet
EndChar

StartChar: j
Encoding: 106 106 331
Width: 565
VWidth: 0
Flags: HW
HStem: -366 258<-17.3085 259>
LayerCount: 2
UndoRedoHistory
Layer: 1
Undoes
EndUndoes
Redoes
EndRedoes
EndUndoRedoHistory
Fore
SplineSet
129 1383 m 1
 465 1383 l 1
 465 1618 l 1
 129 1618 l 1
 129 1383 l 1
-19 -339 m 1
 35 -355 95 -366 158 -366 c 0
 360 -366 465 -235 465 -48 c 2
 465 1184 l 1
 131 1184 l 1
 131 -8 l 2
 131 -80 95 -108 40 -108 c 0
 22 -108 -1 -103 -19 -100 c 1
 -19 -339 l 1
EndSplineSet
EndChar

StartChar: k
Encoding: 107 107 333
Width: 1104
VWidth: 0
Flags: HW
LayerCount: 2
UndoRedoHistory
Layer: 1
Undoes
EndUndoes
Redoes
EndRedoes
EndUndoRedoHistory
Fore
SplineSet
105 1 m 1
 436 1 l 1
 436 451 l 1
 524 562 l 1
 730 0 l 1
 1095 0 l 1
 786 699 l 1
 1098 1184 l 1
 723 1184 l 1
 436 740 l 1
 436 1659 l 1
 105 1659 l 1
 105 1 l 1
EndSplineSet
EndChar

StartChar: kgreenlandic
Encoding: 473 312 335
Width: 1037
VWidth: 0
Flags: HW
LayerCount: 2
UndoRedoHistory
Layer: 1
Undoes
EndUndoes
Redoes
EndRedoes
EndUndoRedoHistory
Fore
SplineSet
102 0 m 1
 436 0 l 1
 436 466 l 1
 491 546 l 1
 675 0 l 1
 1027 0 l 1
 781 659 l 1
 1022 1184 l 1
 663 1184 l 1
 436 694 l 1
 436 1184 l 1
 102 1184 l 1
 102 0 l 1
EndSplineSet
EndChar

StartChar: l
Encoding: 108 108 336
Width: 561
VWidth: 0
Flags: HW
VStem: 118 334
LayerCount: 2
UndoRedoHistory
Layer: 1
Undoes
EndUndoes
Redoes
EndRedoes
EndUndoRedoHistory
Fore
SplineSet
118 0 m 1
 452 0 l 1
 452 1658 l 1
 118 1658 l 1
 118 0 l 1
EndSplineSet
EndChar

StartChar: less
Encoding: 60 60 341
Width: 815
VWidth: 0
Flags: HW
LayerCount: 2
UndoRedoHistory
Layer: 1
Undoes
EndUndoes
Redoes
EndRedoes
EndUndoRedoHistory
Fore
SplineSet
698 198 m 1
 698 489 l 1
 304 772 l 1
 698 1052 l 1
 698 1345 l 1
 64 901 l 1
 64 640 l 1
 698 198 l 1
EndSplineSet
EndChar

StartChar: lessequal
Encoding: 478 8804 342
Width: 825
VWidth: 0
Flags: HW
LayerCount: 2
UndoRedoHistory
Layer: 1
Undoes
EndUndoes
Redoes
EndRedoes
EndUndoRedoHistory
Fore
SplineSet
62 0 m 1
 747 0 l 1
 747 214 l 1
 62 214 l 1
 62 0 l 1
726 320 m 1
 726 611 l 1
 333 894 l 1
 726 1174 l 1
 726 1467 l 1
 93 1023 l 1
 93 762 l 1
 726 320 l 1
EndSplineSet
EndChar

StartChar: logicalnot
Encoding: 172 172 343
Width: 1017
VWidth: 0
Flags: HW
HStem: 421 545
LayerCount: 2
UndoRedoHistory
Layer: 1
Undoes
EndUndoes
Redoes
EndRedoes
EndUndoRedoHistory
Fore
SplineSet
757 421 m 1
 921 421 l 1
 921 966 l 1
 95 966 l 1
 95 741 l 1
 757 741 l 1
 757 421 l 1
EndSplineSet
EndChar

StartChar: lozenge
Encoding: 479 9674 344
Width: 1001
VWidth: 0
Flags: HW
LayerCount: 2
UndoRedoHistory
Layer: 1
Undoes
EndUndoes
Redoes
EndRedoes
EndUndoRedoHistory
Fore
SplineSet
496 217 m 1
 281 593 l 1
 494 954 l 1
 717 593 l 1
 496 217 l 1
436 0 m 1
 556 0 l 1
 929 593 l 1
 552 1184 l 1
 432 1184 l 1
 72 593 l 1
 436 0 l 1
EndSplineSet
EndChar

StartChar: lslash
Encoding: 480 322 345
Width: 680
VWidth: 0
Flags: HW
VStem: 40 625
LayerCount: 2
UndoRedoHistory
Layer: 1
Undoes
EndUndoes
Redoes
EndRedoes
EndUndoRedoHistory
Fore
SplineSet
176 0 m 1
 510 0 l 1
 510 987 l 1
 665 1054 l 1
 665 1243 l 1
 510 1176 l 1
 510 1658 l 1
 176 1658 l 1
 176 1033 l 1
 40 974 l 1
 40 785 l 1
 176 844 l 1
 176 0 l 1
EndSplineSet
EndChar

StartChar: m
Encoding: 109 109 346
Width: 1542
VWidth: 0
Flags: HW
HStem: 977 229<532.355 608.327 1033.4 1112.69>
LayerCount: 2
UndoRedoHistory
Layer: 1
Undoes
EndUndoes
Redoes
EndRedoes
EndUndoRedoHistory
Fore
SplineSet
104 0 m 1
 431 0 l 1
 431 932 l 1
 471 960 513 976 543 977 c 0
 590 979 614 951 614 886 c 2
 614 0 l 1
 939 0 l 1
 939 920 l 2
 939 925 939 929 939 934 c 1
 975 961 1019 976 1048 977 c 0
 1096 979 1118 951 1118 886 c 2
 1118 0 l 1
 1446 0 l 1
 1446 920 l 2
 1446 1100 1355 1206 1218 1206 c 0
 1111 1206 1008 1170 915 1066 c 1
 879 1157 806 1206 713 1206 c 0
 614 1206 518 1174 431 1088 c 1
 431 1184 l 1
 104 1184 l 1
 104 0 l 1
EndSplineSet
EndChar

StartChar: macron
Encoding: 175 175 347
Width: 366
VWidth: 0
Flags: HW
HStem: 1501 157
VStem: -67 516
LayerCount: 2
UndoRedoHistory
Layer: 1
Undoes
EndUndoes
Redoes
EndRedoes
EndUndoRedoHistory
Fore
SplineSet
-67 1501 m 1
 449 1501 l 1
 449 1658 l 1
 -67 1658 l 1
 -67 1501 l 1
EndSplineSet
EndChar

StartChar: minus
Encoding: 481 8722 348
Width: 966
VWidth: 0
Flags: HW
HStem: 692 214
LayerCount: 2
UndoRedoHistory
Layer: 1
Undoes
EndUndoes
Redoes
EndRedoes
EndUndoRedoHistory
Fore
SplineSet
141 692 m 1
 825 692 l 1
 825 906 l 1
 141 906 l 1
 141 692 l 1
EndSplineSet
EndChar

StartChar: mu
Encoding: 181 181 349
Width: 1006
VWidth: 0
Flags: HW
LayerCount: 2
UndoRedoHistory
Layer: 1
Undoes
EndUndoes
Redoes
EndRedoes
EndUndoRedoHistory
Fore
SplineSet
86 -382 m 1
 420 -382 l 1
 420 -2 l 1
 428 0 436 3 445 7 c 0
 493 25 538 55 580 95 c 1
 580 0 l 1
 914 0 l 1
 914 1184 l 1
 580 1184 l 1
 580 253 l 1
 545 231 511 218 485 218 c 0
 432 216 419 249 419 305 c 2
 419 1184 l 1
 85 1184 l 1
 86 -382 l 1
EndSplineSet
EndChar

StartChar: multiply
Encoding: 215 215 350
Width: 993
VWidth: 0
Flags: HW
LayerCount: 2
UndoRedoHistory
Layer: 1
Undoes
EndUndoes
Redoes
EndRedoes
EndUndoRedoHistory
Fore
SplineSet
264 466 m 1
 497 700 l 1
 732 466 l 1
 882 618 l 1
 648 852 l 1
 882 1087 l 1
 730 1237 l 1
 497 1004 l 1
 263 1237 l 1
 111 1084 l 1
 345 852 l 1
 111 618 l 1
 264 466 l 1
EndSplineSet
EndChar

StartChar: n
Encoding: 110 110 351
Width: 1039
VWidth: 0
Flags: HW
LayerCount: 2
UndoRedoHistory
Layer: 1
Undoes
EndUndoes
Redoes
EndRedoes
EndUndoRedoHistory
Fore
SplineSet
104 0 m 1
 438 0 l 1
 438 925 l 1
 477 951 514 966 542 966 c 1
 595 968 608 935 608 879 c 2
 608 0 l 1
 942 0 l 1
 942 929 l 2
 942 1083 870 1204 725 1204 c 0
 619 1204 526 1152 438 1066 c 1
 438 1184 l 1
 104 1184 l 1
 104 0 l 1
EndSplineSet
EndChar

StartChar: nine
Encoding: 57 57 356
Width: 1092
VWidth: 0
Flags: HW
HStem: -24 259<463.581 620.281> 619 261<463.123 601.136> 1428 253<465.56 615.95>
VStem: 88 349<901.4 1401.48> 116 323<251.396 431> 647 351<255.504 566 898.459 950 1153 1403.3>
CounterMasks: 1 e0
LayerCount: 2
UndoRedoHistory
Layer: 1
Undoes
EndUndoes
Redoes
EndRedoes
EndUndoRedoHistory
Fore
SplineSet
544 880 m 0
 437 880 437 992 437 1149 c 0
 437 1329 448 1428 540 1428 c 0
 634 1428 647 1325 647 1216 c 2
 647 950 l 1
 631 919 598 880 544 880 c 0
539 -24 m 0
 907 -24 998 218 998 543 c 2
 998 1153 l 2
 998 1468 866 1681 540 1681 c 0
 208 1681 88 1459 88 1113 c 0
 88 846 181 613 446 619 c 0
 538 621 613 654 647 713 c 1
 647 566 l 2
 647 310 636 235 542 235 c 0
 449 235 439 299 439 431 c 1
 116 431 l 1
 116 429 116 405 116 404 c 0
 118 128 223 -24 539 -24 c 0
EndSplineSet
EndChar

StartChar: notequal
Encoding: 486 8800 357
Width: 925
VWidth: 0
Flags: HW
LayerCount: 2
UndoRedoHistory
Layer: 1
Undoes
EndUndoes
Redoes
EndRedoes
EndUndoRedoHistory
Fore
SplineSet
121 0 m 1
 303 0 l 1
 457 508 l 1
 798 508 l 1
 798 712 l 1
 519 712 l 1
 576 896 l 1
 798 896 l 1
 798 1100 l 1
 638 1100 l 1
 808 1658 l 1
 625 1658 l 1
 455 1100 l 1
 146 1100 l 1
 146 896 l 1
 393 896 l 1
 337 712 l 1
 146 712 l 1
 146 508 l 1
 274 508 l 1
 121 0 l 1
EndSplineSet
EndChar

StartChar: numbersign
Encoding: 35 35 359
Width: 1093
VWidth: 0
Flags: HW
HStem: 1205 21G<518 678.296>
LayerCount: 2
UndoRedoHistory
Layer: 1
Undoes
EndUndoes
Redoes
EndRedoes
EndUndoRedoHistory
Fore
SplineSet
452 761 m 1
 480 993 l 1
 640 993 l 1
 613 761 l 1
 452 761 l 1
140 -1 m 1
 357 -1 l 1
 423 552 l 1
 582 552 l 1
 518 -1 l 1
 735 -1 l 1
 801 552 l 1
 987 552 l 1
 992 761 l 1
 831 761 l 1
 858 993 l 1
 995 993 l 1
 1000 1205 l 1
 894 1205 l 1
 948 1658 l 1
 728 1658 l 1
 676 1205 l 1
 518 1205 l 1
 571 1658 l 1
 350 1658 l 1
 298 1205 l 1
 106 1205 l 1
 101 993 l 1
 261 993 l 1
 235 761 l 1
 99 761 l 1
 94 552 l 1
 205 552 l 1
 140 -1 l 1
EndSplineSet
EndChar

StartChar: o
Encoding: 111 111 360
Width: 989
VWidth: 0
Flags: HW
HStem: -21 224<430.229 562.32> 981 223<430.229 562.32>
VStem: 81 329<217.762 368 815 965.639> 578 330<217.361 368 815 965.639>
AnchorPoint: "ogonek" 421 0 basechar 0
LayerCount: 2
UndoRedoHistory
Layer: 1
Undoes
EndUndoes
Redoes
EndRedoes
EndUndoRedoHistory
Fore
SplineSet
493 -21 m 0
 746 -21 908 111 908 368 c 2
 908 815 l 2
 908 1072 746 1204 493 1204 c 0
 239 1204 81 1072 81 815 c 2
 81 368 l 2
 81 112 239 -21 493 -21 c 0
493 203 m 0
 429 203 410 259 410 345 c 2
 410 838 l 2
 410 925 429 981 493 981 c 0
 560 981 578 927 578 838 c 2
 578 345 l 2
 578 257 560 203 493 203 c 0
EndSplineSet
EndChar

StartChar: oe
Encoding: 488 339 365
Width: 1448
VWidth: 0
Flags: HW
HStem: -25 209<334.549 553.459 942.742 1040.34> 1025 207<432.079 556.447 936.831 1042.45>
VStem: 85 329<197.099 356 870 1011.72> 572 348<195.382 367 885 1015.86> 1059 314<193.11 312 813 1011.06>
LayerCount: 2
UndoRedoHistory
Layer: 1
Undoes
EndUndoes
Redoes
EndRedoes
EndUndoRedoHistory
Fore
SplineSet
920 746 m 1
 920 899 l 2
 920 974 948 1025 990 1025 c 0
 1035 1025 1062 969 1062 899 c 2
 1062 746 l 1
 920 746 l 1
488 184 m 0
 432 184 414 254 414 348 c 2
 414 885 l 2
 414 980 440 1025 492 1025 c 0
 547 1025 572 977 572 885 c 2
 572 348 l 2
 572 225 542 184 488 184 c 0
436 -25 m 0
 592 -25 684 36 730 119 c 1
 771 29 876 -25 1019 -26 c 0
 1250 -29 1373 99 1373 312 c 2
 1373 464 l 1
 1059 464 l 1
 1059 311 l 2
 1059 226 1043 182 990 184 c 0
 930 186 920 276 920 367 c 2
 920 569 l 1
 1373 569 l 1
 1373 813 l 2
 1373 1061 1283 1232 1014 1232 c 0
 912 1232 779 1182 738 1083 c 1
 699 1181 563 1232 456 1232 c 0
 232 1232 85 1113 85 870 c 2
 85 356 l 2
 85 99 238 -25 436 -25 c 0
EndSplineSet
EndChar

StartChar: ogonek
Encoding: 489 731 366
Width: 540
VWidth: 0
Flags: HW
HStem: -514 162<278.26 416>
VStem: 20 235<-326.979 -131.138>
AnchorPoint: "ogonek" 271 0 mark 0
LayerCount: 2
UndoRedoHistory
Layer: 1
Undoes
EndUndoes
Redoes
EndRedoes
EndUndoRedoHistory
Fore
SplineSet
416 -514 m 1
 448 -352 l 1
 389 -352 255 -362 255 -248 c 0
 255 -155 310 -66 335 17 c 1
 183 17 l 1
 92 -55 20 -184 20 -296 c 0
 20 -511 256 -517 416 -514 c 1
EndSplineSet
EndChar

StartChar: one
Encoding: 49 49 370
Width: 1086
VWidth: 0
Flags: HW
VStem: 195 575<1476 1496.28>
LayerCount: 2
UndoRedoHistory
Layer: 1
Undoes
EndUndoes
Redoes
EndRedoes
EndUndoRedoHistory
Fore
SplineSet
426 0 m 1
 770 0 l 1
 770 1658 l 1
 501 1658 l 1
 445 1600 256 1505 195 1476 c 1
 195 1221 l 1
 426 1317 l 1
 426 0 l 1
EndSplineSet
EndChar

StartChar: onehalf
Encoding: 189 189 371
Width: 1407
VWidth: 0
Flags: HW
HStem: 725 149<1012.35 1127.17>
VStem: 825 177<571 639.485> 1134 181<512.479 720.762>
LayerCount: 2
UndoRedoHistory
Layer: 1
Undoes
EndUndoes
Redoes
EndRedoes
EndUndoRedoHistory
Fore
SplineSet
173 0 m 1
 340 0 l 1
 1106 1658 l 1
 938 1658 l 1
 173 0 l 1
174 828 m 1
 372 828 l 1
 372 1658 l 1
 263 1658 l 1
 217 1601 155 1545 52 1491 c 1
 52 1337 l 1
 174 1393 l 1
 174 828 l 1
839 1 m 1
 1299 1 l 1
 1299 149 l 1
 1043 149 l 1
 1052 161 1162 313 1174 327 c 1
 1253 439 1315 529 1315 644 c 0
 1315 791 1219 874 1064 874 c 0
 905 874 821 777 820 640 c 0
 820 629 820 619 825 571 c 1
 1002 571 l 1
 990 650 1011 725 1068 725 c 0
 1117 725 1134 686 1134 641 c 0
 1134 564 1078 492 1030 422 c 2
 839 149 l 1
 839 1 l 1
EndSplineSet
EndChar

StartChar: onequarter
Encoding: 188 188 372
Width: 1407
VWidth: 0
Flags: HW
LayerCount: 2
UndoRedoHistory
Layer: 1
Undoes
EndUndoes
Redoes
EndRedoes
EndUndoRedoHistory
Fore
SplineSet
878 381 m 1
 1027 644 l 1
 1027 381 l 1
 878 381 l 1
218 0 m 1
 385 0 l 1
 1151 1658 l 1
 983 1658 l 1
 218 0 l 1
226 828 m 1
 424 828 l 1
 424 1658 l 1
 315 1658 l 1
 270 1601 207 1545 105 1491 c 1
 105 1337 l 1
 226 1393 l 1
 226 828 l 1
1027 1 m 1
 1197 1 l 1
 1197 229 l 1
 1304 229 l 1
 1304 381 l 1
 1197 381 l 1
 1197 859 l 1
 1044 859 l 1
 754 374 l 1
 754 229 l 1
 1027 229 l 1
 1027 1 l 1
EndSplineSet
EndChar

StartChar: uni00B9
Encoding: 185 185 373
Width: 878
VWidth: 0
Flags: HW
VStem: 162 454<1684 1698.78>
LayerCount: 2
UndoRedoHistory
Layer: 1
Undoes
EndUndoes
Redoes
EndRedoes
EndUndoRedoHistory
Fore
SplineSet
366 621 m 1
 616 621 l 1
 616 1816 l 1
 421 1816 l 1
 372 1752 211 1702 162 1684 c 1
 162 1497 l 1
 366 1547 l 1
 366 621 l 1
EndSplineSet
EndChar

StartChar: ordfeminine
Encoding: 170 170 374
Width: 990
VWidth: 0
Flags: HW
HStem: 640 198<290 506.207> 1465 218<457.338 559.863>
VStem: 117 285<848.793 1040.97> 149 288<1322 1456.21> 569 298<848.814 890 1252.29 1266 1354 1455.66>
LayerCount: 2
UndoRedoHistory
Layer: 1
Undoes
EndUndoes
Redoes
EndRedoes
EndUndoRedoHistory
Fore
SplineSet
483 838 m 0
 437 838 402 875 402 938 c 0
 402 1010 469 1104 569 1150 c 1
 569 890 l 1
 548 858 516 838 483 838 c 0
373 640 m 1
 482 640 554 710 586 794 c 1
 604 657 l 1
 867 657 l 1
 867 1354 l 2
 867 1546 765 1683 535 1683 c 0
 297 1683 150 1569 149 1322 c 1
 437 1314 l 1
 446 1421 458 1465 509 1465 c 0
 556 1465 569 1422 569 1377 c 2
 569 1266 l 1
 407 1208 117 1149 117 884 c 0
 117 763 207 643 373 640 c 1
EndSplineSet
EndChar

StartChar: ordmasculine
Encoding: 186 186 375
Width: 990
VWidth: 0
Flags: HW
HStem: 639 203<426.093 562.007> 1480 203<426.093 562.007>
VStem: 141 271<855.614 970 1353 1467.29> 576 273<856.356 970 1353 1466.55>
LayerCount: 2
UndoRedoHistory
Layer: 1
Undoes
EndUndoes
Redoes
EndRedoes
EndUndoRedoHistory
Fore
SplineSet
493 842 m 0
 434 842 412 891 412 970 c 2
 412 1353 l 2
 412 1431 434 1480 493 1480 c 0
 555 1480 576 1433 576 1353 c 2
 576 970 l 2
 576 889 555 842 493 842 c 0
494 639 m 0
 705 639 849 752 849 966 c 2
 849 1357 l 2
 849 1571 705 1683 494 1683 c 0
 279 1683 141 1573 141 1357 c 2
 141 966 l 2
 141 750 279 639 494 639 c 0
EndSplineSet
EndChar

StartChar: oslash
Encoding: 248 248 376
Width: 977
VWidth: 0
Flags: HW
HStem: -21 224<430.229 562.32> 981 223<430.229 562.32>
VStem: 81 329<217.762 368 815 965.639> 578 330<217.361 368 815 965.639>
LayerCount: 2
UndoRedoHistory
Layer: 1
Undoes
EndUndoes
Redoes
EndRedoes
EndUndoRedoHistory
Fore
SplineSet
214 -185 m 1
 830 1348 l 1
 751 1380 l 1
 138 -153 l 1
 214 -185 l 1
EndSplineSet
Refer: 360 111 N 1 0 0 1 0 0 2
EndChar

StartChar: p
Encoding: 112 112 378
Width: 1034
VWidth: 0
Flags: HW
VStem: 613 335<215.912 349 854 985.609>
LayerCount: 2
UndoRedoHistory
Layer: 1
Undoes
EndUndoes
Redoes
EndRedoes
EndUndoRedoHistory
Fore
SplineSet
528 197 m 0
 497 197 466 209 438 226 c 1
 438 962 l 1
 468 984 498 999 525 1001 c 0
 587 1006 613 944 613 879 c 2
 613 331 l 2
 613 258 590 196 528 197 c 0
104 -390 m 1
 438 -390 l 1
 438 89 l 1
 515 22 603 -21 688 -21 c 0
 858 -21 948 130 948 349 c 2
 948 854 l 2
 948 1038 876 1199 695 1204 c 0
 610 1207 520 1169 438 1097 c 1
 438 1184 l 1
 104 1184 l 1
 104 -390 l 1
EndSplineSet
EndChar

StartChar: paragraph
Encoding: 182 182 379
Width: 1067
VWidth: 0
Flags: HW
VStem: 72 508<1150.08 1462.11>
LayerCount: 2
UndoRedoHistory
Layer: 1
Undoes
EndUndoes
Redoes
EndRedoes
EndUndoRedoHistory
Fore
SplineSet
386 -196 m 1
 580 -196 l 1
 580 1470 l 1
 745 1470 l 1
 745 -196 l 1
 928 -196 l 1
 928 1658 l 1
 470 1658 l 2
 258 1658 72 1582 72 1329 c 0
 72 1124 200 1008 386 1004 c 1
 386 -196 l 1
EndSplineSet
EndChar

StartChar: parenleft
Encoding: 40 40 380
Width: 692
VWidth: 0
Flags: HW
VStem: 128 308<57.3119 1259.42>
LayerCount: 2
UndoRedoHistory
Layer: 1
Undoes
EndUndoes
Redoes
EndRedoes
EndUndoRedoHistory
Fore
SplineSet
620 -370 m 1
 620 -136 l 1
 473 -136 436 131 436 646 c 0
 436 1152 465 1443 620 1443 c 1
 620 1677 l 1
 168 1679 128 1207 128 646 c 0
 128 121 168 -373 620 -370 c 1
EndSplineSet
EndChar

StartChar: parenright
Encoding: 41 41 381
Width: 668
VWidth: 0
Flags: HW
VStem: 256 308<58.2564 1260.42>
LayerCount: 2
UndoRedoHistory
Layer: 1
Undoes
EndUndoes
Redoes
EndRedoes
EndUndoRedoHistory
Fore
SplineSet
72 -370 m 1
 524 -373 564 122 564 647 c 0
 564 1208 524 1679 72 1677 c 1
 72 1444 l 1
 227 1444 256 1154 256 647 c 0
 256 134 218 -136 72 -136 c 1
 72 -370 l 1
EndSplineSet
EndChar

StartChar: partialdiff
Encoding: 492 8706 382
Width: 1081
VWidth: 0
Flags: HW
HStem: -26 214<410.924 592.642> 910 208<338.5 611.384> 1450 228<377 508.802>
VStem: 73 319<204.245 450.152> 708 307<863.671 1279.73>
CounterMasks: 1 e0
LayerCount: 2
UndoRedoHistory
Layer: 1
Undoes
EndUndoes
Redoes
EndRedoes
EndUndoRedoHistory
Fore
SplineSet
496 188 m 0
 428 188 392 234 392 292 c 0
 392 295 392 302 392 305 c 2
 440 791 l 2
 447 863 488 910 560 910 c 0
 595 910 636 898 681 874 c 1
 624 324 l 2
 612 199 543 188 496 188 c 0
488 -26 m 0
 709 -26 926 -10 970 494 c 1
 970 494 1015 1023 1015 1055 c 0
 1015 1595 621 1678 377 1678 c 1
 303 1450 l 1
 596 1424 708 1308 708 1105 c 0
 708 1076 706 1046 702 1014 c 1
 642 1069 531 1118 425 1118 c 0
 252 1118 130 991 115 790 c 1
 75 330 l 2
 73 318 73 306 73 294 c 0
 73 60 291 -26 488 -26 c 0
EndSplineSet
EndChar

StartChar: percent
Encoding: 37 37 383
Width: 2072
VWidth: 0
Flags: HW
HStem: -3 215<1501.26 1676.9> 715 215<393.129 568.774 1495.78 1687.93> 1444 217<390.038 571.938>
VStem: 91 276<954.056 1169 1221 1422.64> 595 278<952.454 1170 1220 1426.02> 1199 276<236.056 451 503 704.641> 1703 278<234.454 452 502 708.016>
LayerCount: 2
UndoRedoHistory
Layer: 1
Undoes
EndUndoes
Redoes
EndRedoes
EndUndoRedoHistory
Fore
SplineSet
688 0 m 1
 877 0 l 1
 1381 1658 l 1
 1192 1658 l 1
 688 0 l 1
1589 -3 m 0
 1874 -3 1981 143 1981 438 c 2
 1981 514 l 2
 1981 815 1876 943 1589 943 c 0
 1300 943 1199 811 1199 510 c 2
 1199 440 l 2
 1199 145 1305 -3 1589 -3 c 0
1589 212 m 0
 1483 212 1475 298 1475 451 c 2
 1475 503 l 2
 1475 656 1479 726 1589 726 c 0
 1700 726 1703 656 1703 502 c 2
 1703 452 l 2
 1703 299 1695 212 1589 212 c 0
481 715 m 0
 765 715 873 861 873 1156 c 2
 873 1232 l 2
 873 1533 768 1661 481 1661 c 0
 192 1661 91 1529 91 1228 c 2
 91 1158 l 2
 91 863 196 715 481 715 c 0
481 930 m 0
 375 930 367 1016 367 1169 c 2
 367 1221 l 2
 367 1374 371 1444 481 1444 c 0
 592 1444 595 1374 595 1220 c 2
 595 1170 l 2
 595 1017 587 930 481 930 c 0
EndSplineSet
EndChar

StartChar: period
Encoding: 46 46 384
Width: 497
VWidth: 0
Flags: HW
HStem: 0 314
VStem: 93 317
LayerCount: 2
UndoRedoHistory
Layer: 1
Undoes
EndUndoes
Redoes
EndRedoes
EndUndoRedoHistory
Fore
SplineSet
93 0 m 1
 410 0 l 1
 410 314 l 1
 93 314 l 1
 93 0 l 1
EndSplineSet
EndChar

StartChar: periodcentered
Encoding: 183 183 385
Width: 457
VWidth: 0
Flags: HW
HStem: 616 309
VStem: 72 315
LayerCount: 2
UndoRedoHistory
Layer: 1
Undoes
EndUndoes
Redoes
EndRedoes
EndUndoRedoHistory
Fore
SplineSet
72 616 m 1
 387 616 l 1
 387 925 l 1
 72 925 l 1
 72 616 l 1
EndSplineSet
EndChar

StartChar: perthousand
Encoding: 494 8240 386
Width: 2964
VWidth: 0
Flags: HW
HStem: -3 215<1501.26 1676.9 2387.13 2562.58> 726 217<390.557 571.346 1498.04 1679.94 2383.91 2565.52> 1444 217<390.038 571.938>
VStem: 91 276<954.056 1169 1221 1422.64> 595 278<952.454 1170 1220 1426.02> 1199 276<236.056 451 503 704.641> 1703 278<234.454 452 502 708.016> 2085 276<236.056 451 503 704.641> 2588 279<234.404 452 502 708.016>
CounterMasks: 1 0780
LayerCount: 2
UndoRedoHistory
Layer: 1
Undoes
EndUndoes
Redoes
EndRedoes
EndUndoRedoHistory
Fore
SplineSet
688 0 m 1
 877 0 l 1
 1381 1658 l 1
 1192 1658 l 1
 688 0 l 1
2475 -3 m 0
 2759 -3 2867 143 2867 438 c 2
 2867 514 l 2
 2867 815 2762 943 2475 943 c 0
 2185 943 2085 811 2085 510 c 2
 2085 440 l 2
 2085 145 2190 -3 2475 -3 c 0
2475 212 m 0
 2369 212 2361 298 2361 451 c 2
 2361 503 l 2
 2361 656 2365 726 2475 726 c 0
 2585 726 2588 656 2588 502 c 2
 2588 452 l 2
 2588 299 2581 212 2475 212 c 0
1589 -3 m 0
 1874 -3 1981 143 1981 438 c 2
 1981 514 l 2
 1981 815 1876 943 1589 943 c 0
 1300 943 1199 811 1199 510 c 2
 1199 440 l 2
 1199 145 1305 -3 1589 -3 c 0
1589 212 m 0
 1483 212 1475 298 1475 451 c 2
 1475 503 l 2
 1475 656 1479 726 1589 726 c 0
 1700 726 1703 656 1703 502 c 2
 1703 452 l 2
 1703 299 1695 212 1589 212 c 0
481 715 m 0
 765 715 873 861 873 1156 c 2
 873 1232 l 2
 873 1533 768 1661 481 1661 c 0
 192 1661 91 1529 91 1228 c 2
 91 1158 l 2
 91 863 196 715 481 715 c 0
481 930 m 0
 375 930 367 1016 367 1169 c 2
 367 1221 l 2
 367 1374 371 1444 481 1444 c 0
 592 1444 595 1374 595 1220 c 2
 595 1170 l 2
 595 1017 587 930 481 930 c 0
EndSplineSet
EndChar

StartChar: pi
Encoding: 495 960 387
Width: 1211
VWidth: 0
Flags: HW
HStem: -20 234<1024.87 1121>
VStem: 671 334<232.572 422>
LayerCount: 2
UndoRedoHistory
Layer: 1
Undoes
EndUndoes
Redoes
EndRedoes
EndUndoRedoHistory
Fore
SplineSet
501 965 m 1
 671 965 l 1
 671 288 l 2
 671 81 753 -20 1121 -20 c 1
 1135 214 l 1
 1014 214 1005 247 1005 422 c 2
 1005 965 l 1
 1146 965 l 1
 1146 1184 l 1
 40 1184 l 1
 40 965 l 1
 167 965 l 1
 167 0 l 1
 501 0 l 1
 501 965 l 1
EndSplineSet
EndChar

StartChar: plus
Encoding: 43 43 388
Width: 921
VWidth: 0
Flags: HW
LayerCount: 2
UndoRedoHistory
Layer: 1
Undoes
EndUndoes
Redoes
EndRedoes
EndUndoRedoHistory
Fore
SplineSet
348 423 m 1
 569 423 l 1
 569 751 l 1
 867 751 l 1
 867 948 l 1
 569 948 l 1
 569 1269 l 1
 348 1269 l 1
 348 948 l 1
 53 948 l 1
 53 751 l 1
 348 751 l 1
 348 423 l 1
EndSplineSet
EndChar

StartChar: plusminus
Encoding: 177 177 389
Width: 984
VWidth: 0
Flags: HW
LayerCount: 2
UndoRedoHistory
Layer: 1
Undoes
EndUndoes
Redoes
EndRedoes
EndUndoRedoHistory
Fore
SplineSet
132 0 m 1
 852 0 l 1
 852 203 l 1
 132 203 l 1
 132 0 l 1
387 377 m 1
 598 377 l 1
 598 641 l 1
 852 641 l 1
 852 838 l 1
 598 838 l 1
 598 1101 l 1
 387 1101 l 1
 387 838 l 1
 132 838 l 1
 132 641 l 1
 387 641 l 1
 387 377 l 1
EndSplineSet
EndChar

StartChar: product
Encoding: 496 8719 390
Width: 1248
VWidth: 0
Flags: HW
LayerCount: 2
UndoRedoHistory
Layer: 1
Undoes
EndUndoes
Redoes
EndRedoes
EndUndoRedoHistory
Fore
SplineSet
106 -390 m 1
 431 -390 l 1
 431 1395 l 1
 817 1395 l 1
 817 -390 l 1
 1142 -390 l 1
 1142 1658 l 1
 106 1658 l 1
 106 -390 l 1
EndSplineSet
EndChar

StartChar: q
Encoding: 113 113 391
Width: 1033
VWidth: 0
Flags: HW
HStem: -21 215<272.5 519> 994 210<268.5 520.355>
VStem: 86 335<212.932 348 829 979.141>
LayerCount: 2
UndoRedoHistory
Layer: 1
Undoes
EndUndoes
Redoes
EndRedoes
EndUndoRedoHistory
Fore
SplineSet
507 194 m 0
 445 194 421 255 421 326 c 2
 421 866 l 2
 421 937 447 994 509 994 c 0
 538 994 567 982 597 966 c 1
 597 227 l 1
 563 206 531 194 507 194 c 0
597 -390 m 1
 931 -390 l 1
 931 1184 l 1
 597 1184 l 1
 597 1105 l 1
 529 1165 450 1204 361 1204 c 0
 176 1204 86 1046 86 829 c 2
 86 348 l 2
 86 101 184 -21 361 -21 c 1
 443 -20 523 22 597 96 c 1
 597 -390 l 1
EndSplineSet
EndChar

StartChar: question
Encoding: 63 63 392
Width: 993
VWidth: 0
Flags: HW
HStem: 1397 288<398.792 564.823>
VStem: 70 311<1177.77 1383.19>
LayerCount: 2
UndoRedoHistory
Layer: 1
Undoes
EndUndoes
Redoes
EndRedoes
EndUndoRedoHistory
Fore
SplineSet
256 0 m 1
 582 0 l 1
 582 317 l 1
 256 317 l 1
 256 0 l 1
265 435 m 1
 569 435 l 1
 569 635 l 1
 759 768 922 1017 922 1265 c 0
 922 1528 763 1685 469 1685 c 0
 166 1685 56 1506 70 1282 c 1
 70 1220 83 1176 100 1108 c 1
 402 1176 l 1
 390 1214 381 1239 381 1282 c 1
 376 1353 418 1397 476 1397 c 0
 533 1397 586 1369 591 1278 c 0
 605 1055 443 847 265 700 c 1
 265 435 l 1
EndSplineSet
EndChar

StartChar: questiondown
Encoding: 191 191 393
Width: 1067
VWidth: 0
Flags: HW
HStem: -369 287<461.177 626.993>
VStem: 645 311<-67.1929 138.228>
LayerCount: 2
UndoRedoHistory
Layer: 1
Undoes
EndUndoes
Redoes
EndRedoes
EndUndoRedoHistory
Fore
SplineSet
444 999 m 1
 770 999 l 1
 770 1316 l 1
 444 1316 l 1
 444 999 l 1
557 -369 m 0
 860 -369 970 -190 956 34 c 1
 956 96 943 140 926 208 c 1
 624 140 l 1
 636 102 645 77 645 34 c 1
 649 -37 608 -82 550 -82 c 0
 493 -82 440 -53 435 38 c 0
 421 261 583 469 761 616 c 1
 761 880 l 1
 457 880 l 1
 457 681 l 1
 267 548 104 299 104 51 c 0
 104 -213 263 -369 557 -369 c 0
EndSplineSet
EndChar

StartChar: quotedbl
Encoding: 34 34 394
Width: 730
VWidth: 0
Flags: HW
HStem: 1044 614
VStem: 58 154<1044 1111.19> 439 154<1044 1111.19>
LayerCount: 2
UndoRedoHistory
Layer: 1
Undoes
EndUndoes
Redoes
EndRedoes
EndUndoRedoHistory
Fore
SplineSet
439 1044 m 1
 593 1044 l 1
 724 1658 l 1
 439 1658 l 1
 439 1044 l 1
58 1044 m 1
 212 1044 l 1
 343 1658 l 1
 58 1658 l 1
 58 1044 l 1
EndSplineSet
EndChar

StartChar: quotedblbase
Encoding: 497 8222 395
Width: 974
VWidth: 0
Flags: HW
HStem: -223 106<186 257.831 627 698.831>
VStem: 286 151<-89.7709 69> 727 151<-89.7709 69>
LayerCount: 2
UndoRedoHistory
Layer: 1
Undoes
EndUndoes
Redoes
EndRedoes
EndUndoRedoHistory
Fore
SplineSet
627 -223 m 1
 817 -223 869 -103 878 135 c 0
 880 184 880 298 880 361 c 1
 584 361 l 1
 584 69 l 1
 727 69 l 1
 727 -40 708 -117 602 -117 c 1
 627 -223 l 1
186 -223 m 1
 376 -223 428 -103 437 135 c 0
 439 184 439 298 439 361 c 1
 143 361 l 1
 143 69 l 1
 286 69 l 1
 286 -40 267 -117 161 -117 c 1
 186 -223 l 1
EndSplineSet
EndChar

StartChar: quotedblleft
Encoding: 498 8220 396
Width: 970
VWidth: 0
Flags: HW
HStem: 1572 106<298.169 370 739.169 811>
VStem: 119 151<1386 1544.77> 560 151<1386 1544.77>
LayerCount: 2
UndoRedoHistory
Layer: 1
Undoes
EndUndoes
Redoes
EndRedoes
EndUndoRedoHistory
Fore
SplineSet
558 1094 m 1
 854 1094 l 1
 854 1386 l 1
 711 1386 l 1
 711 1495 730 1572 836 1572 c 1
 811 1678 l 1
 621 1678 569 1558 560 1320 c 0
 558 1271 558 1157 558 1094 c 1
117 1094 m 1
 413 1094 l 1
 413 1386 l 1
 270 1386 l 1
 270 1495 289 1572 395 1572 c 1
 370 1678 l 1
 180 1678 128 1558 119 1320 c 0
 117 1271 117 1157 117 1094 c 1
EndSplineSet
EndChar

StartChar: quotedblright
Encoding: 499 8221 397
Width: 970
VWidth: 0
Flags: HW
HStem: 1074 106<185 256.831 610 682.238>
VStem: 285 150<1207 1365> 710 151<1207 1365>
LayerCount: 2
UndoRedoHistory
Layer: 1
Undoes
EndUndoes
Redoes
EndRedoes
EndUndoRedoHistory
Fore
SplineSet
610 1074 m 1
 801 1074 852 1194 861 1431 c 0
 863 1480 864 1594 864 1658 c 1
 567 1658 l 1
 567 1365 l 1
 710 1365 l 1
 710 1256 692 1180 585 1180 c 1
 610 1074 l 1
185 1074 m 1
 375 1074 427 1194 435 1431 c 1
 438 1480 438 1594 438 1658 c 1
 142 1658 l 1
 142 1365 l 1
 285 1365 l 1
 285 1256 266 1180 160 1180 c 1
 185 1074 l 1
EndSplineSet
EndChar

StartChar: quoteleft
Encoding: 500 8216 398
Width: 641
VWidth: 0
Flags: HW
HStem: 1572 106<298.169 370>
VStem: 119 151<1386 1544.77>
LayerCount: 2
UndoRedoHistory
Layer: 1
Undoes
EndUndoes
Redoes
EndRedoes
EndUndoRedoHistory
Fore
SplineSet
117 1094 m 1
 413 1094 l 1
 413 1386 l 1
 270 1386 l 1
 270 1495 289 1572 395 1572 c 1
 370 1678 l 1
 180 1678 128 1558 119 1320 c 0
 117 1271 117 1157 117 1094 c 1
EndSplineSet
EndChar

StartChar: quoteright
Encoding: 501 8217 399
Width: 471
VWidth: 0
Flags: HW
HStem: 1074 106<168 240.545>
VStem: 269 150<1207.23 1366>
LayerCount: 2
UndoRedoHistory
Layer: 1
Undoes
EndUndoes
Redoes
EndRedoes
EndUndoRedoHistory
Fore
SplineSet
168 1074 m 1
 359 1074 410 1194 419 1432 c 0
 421 1481 422 1594 422 1658 c 1
 125 1658 l 1
 125 1366 l 1
 269 1366 l 1
 269 1257 250 1180 144 1180 c 1
 168 1074 l 1
EndSplineSet
EndChar

StartChar: quotesinglbase
Encoding: 502 8218 400
Width: 572
VWidth: 0
Flags: HW
HStem: -225 106<192 263.831>
VStem: 292 151<-91.7709 67>
LayerCount: 2
UndoRedoHistory
Layer: 1
Undoes
EndUndoes
Redoes
EndRedoes
EndUndoRedoHistory
Fore
SplineSet
192 -225 m 1
 382 -225 434 -105 443 133 c 0
 445 182 445 296 445 359 c 1
 149 359 l 1
 149 67 l 1
 292 67 l 1
 292 -42 273 -119 167 -119 c 1
 192 -225 l 1
EndSplineSet
EndChar

StartChar: quotesingle
Encoding: 39 39 401
Width: 480
VWidth: 0
Flags: HW
HStem: 1044 614
VStem: 89 162<1044 1122.59>
LayerCount: 2
UndoRedoHistory
Layer: 1
Undoes
EndUndoes
Redoes
EndRedoes
EndUndoRedoHistory
Fore
SplineSet
89 1044 m 1
 251 1044 l 1
 363 1658 l 1
 89 1658 l 1
 89 1044 l 1
EndSplineSet
EndChar

StartChar: r
Encoding: 114 114 402
Width: 760
VWidth: 0
Flags: HW
HStem: 902 297<565.642 726>
LayerCount: 2
UndoRedoHistory
Layer: 1
Undoes
EndUndoes
Redoes
EndRedoes
EndUndoRedoHistory
Fore
SplineSet
108 0 m 1
 442 0 l 1
 442 759 l 1
 505 852 576 897 671 902 c 0
 690 902 710 899 726 895 c 1
 726 1191 l 1
 708 1196 694 1199 679 1199 c 0
 591 1199 513 1125 442 987 c 1
 442 1184 l 1
 108 1184 l 1
 108 0 l 1
EndSplineSet
EndChar

StartChar: radical
Encoding: 504 8730 404
Width: 1185
VWidth: 0
Flags: HW
LayerCount: 2
UndoRedoHistory
Layer: 1
Undoes
EndUndoes
Redoes
EndRedoes
EndUndoRedoHistory
Fore
SplineSet
483 0 m 1
 874 0 l 1
 1161 1658 l 1
 827 1658 l 1
 737 934 l 1
 681 453 l 1
 616 934 l 1
 575 1184 l 1
 49 1184 l 1
 49 974 l 1
 304 974 l 1
 483 0 l 1
EndSplineSet
EndChar

StartChar: registered
Encoding: 174 174 407
Width: 1824
VWidth: 0
Flags: HW
HStem: -28 109<658.755 1165.24> 1190 159<901 1000.74> 1571 113<658.755 1164.91>
VStem: 98 123<546.329 1099.92> 1029 254<923.176 1165.4> 1600 126<545.917 1099.92>
LayerCount: 2
UndoRedoHistory
Layer: 1
Undoes
EndUndoes
Redoes
EndRedoes
EndUndoRedoHistory
Fore
SplineSet
913 -28 m 0
 1493 -28 1726 415 1726 828 c 0
 1726 1241 1491 1684 913 1684 c 0
 333 1684 98 1241 98 828 c 0
 98 417 333 -28 913 -28 c 0
912 81 m 0
 430 81 221 454 221 827 c 0
 221 1202 430 1571 912 1571 c 0
 1390 1571 1600 1202 1600 827 c 0
 1600 454 1390 81 912 81 c 0
837 892 m 1
 837 1190 l 1
 901 1190 l 2
 993 1190 1029 1134 1029 1047 c 0
 1029 952 995 892 878 892 c 2
 837 892 l 1
567 315 m 1
 837 315 l 1
 837 755 l 1
 892 755 l 1
 1031 315 l 1
 1315 315 l 1
 1135 808 l 1
 1247 861 1283 936 1283 1066 c 0
 1283 1283 1143 1349 907 1349 c 2
 567 1349 l 1
 567 315 l 1
EndSplineSet
EndChar

StartChar: ring
Encoding: 507 730 408
Width: 165
VWidth: 0
Flags: HW
HStem: 1228 119<-7.32465 159.709> 1564 118<-7.32465 159.709>
VStem: -163 137<1362.97 1548.2> 178 140<1362.97 1548>
LayerCount: 2
UndoRedoHistory
Layer: 1
Undoes
EndUndoes
Redoes
EndRedoes
EndUndoRedoHistory
Fore
SplineSet
76 1347 m 0
 9 1347 -26 1397 -26 1456 c 0
 -26 1514 9 1564 76 1564 c 0
 143 1564 178 1514 178 1456 c 0
 178 1397 143 1347 76 1347 c 0
76 1228 m 0
 208 1228 318 1307 318 1456 c 0
 318 1603 208 1682 76 1682 c 0
 -55 1682 -163 1604 -163 1456 c 0
 -163 1307 -55 1228 76 1228 c 0
EndSplineSet
EndChar

StartChar: s
Encoding: 115 115 409
Width: 865
VWidth: 0
Flags: HW
HStem: -21 227<347.5 505.848> 971 233<377.007 526.236>
VStem: 518 311<219.517 356.096>
AnchorPoint: "cedilla" 370 0 basechar 0
LayerCount: 2
UndoRedoHistory
Layer: 1
Undoes
EndUndoes
Redoes
EndRedoes
EndUndoRedoHistory
Fore
SplineSet
451 -21 m 0
 648 -21 829 93 829 302 c 0
 829 453 719 548 618 636 c 1
 529 716 l 1
 450 783 365 850 369 902 c 1
 370 937 397 973 451 971 c 1
 520 967 572 876 595 799 c 1
 811 900 l 1
 758 1092 627 1204 431 1204 c 0
 236 1204 69 1071 67 877 c 0
 65 746 170 625 268 542 c 2
 360 463 l 2
 432 402 516 334 518 286 c 0
 520 241 487 208 446 206 c 1
 375 199 313 271 270 378 c 1
 39 277 l 1
 121 68 252 -21 451 -21 c 0
EndSplineSet
EndChar

StartChar: section
Encoding: 167 167 415
Width: 969
VWidth: 0
Flags: HW
HStem: -14 235<391.077 579.083> 1484 230<399.447 590.853>
VStem: 599 267<244.461 421.032 762.736 914.73>
LayerCount: 2
UndoRedoHistory
Layer: 1
Undoes
EndUndoes
Redoes
EndRedoes
EndUndoRedoHistory
Fore
SplineSet
525 741 m 1
 398 812 l 2
 371 827 358 860 358 886 c 0
 358 932 393 969 446 985 c 1
 542 927 l 2
 591 898 604 859 604 837 c 0
 604 790 561 761 525 741 c 1
478 -14 m 0
 723 -14 866 125 866 325 c 0
 866 446 801 527 694 614 c 1
 789 675 856 743 856 858 c 0
 857 984 776 1078 671 1143 c 2
 511 1241 l 2
 466 1268 383 1309 383 1389 c 0
 383 1452 426 1482 489 1484 c 0
 586 1486 629 1399 653 1319 c 1
 871 1373 l 1
 825 1566 697 1714 479 1714 c 0
 262 1714 77 1594 89 1383 c 0
 95 1269 190 1166 276 1120 c 1
 187 1090 108 1005 100 883 c 0
 92 756 165 675 261 617 c 2
 443 505 l 2
 555 437 601 390 599 316 c 0
 597 258 554 221 484 221 c 0
 400 221 344 317 320 381 c 1
 97 322 l 1
 144 135 260 -14 478 -14 c 0
EndSplineSet
EndChar

StartChar: semicolon
Encoding: 59 59 416
Width: 579
VWidth: 0
Flags: HW
HStem: -238 108<185 262.92>
VStem: 311 141<-84.5989 38>
LayerCount: 2
UndoRedoHistory
Layer: 1
Undoes
EndUndoes
Redoes
EndRedoes
EndUndoRedoHistory
Fore
SplineSet
135 866 m 1
 448 866 l 1
 448 1178 l 1
 135 1178 l 1
 135 866 l 1
185 -238 m 1
 366 -237 452 -124 452 78 c 2
 452 350 l 1
 136 350 l 1
 136 38 l 1
 311 38 l 1
 311 -79 240 -118 164 -130 c 1
 185 -238 l 1
EndSplineSet
EndChar

StartChar: seven
Encoding: 55 55 417
Width: 1026
VWidth: 0
Flags: HW
LayerCount: 2
UndoRedoHistory
Layer: 1
Undoes
EndUndoes
Redoes
EndRedoes
EndUndoRedoHistory
Fore
SplineSet
222 0 m 1
 556 0 l 1
 915 1425 l 1
 915 1658 l 1
 132 1658 l 1
 132 1399 l 1
 580 1399 l 1
 222 0 l 1
EndSplineSet
EndChar

StartChar: six
Encoding: 54 54 418
Width: 1092
VWidth: 0
Flags: HW
HStem: -24 253<486.205 639.881> 777 261<498.288 643.754> 1422 259<487.881 643.724>
VStem: 103 348<267.95 522 707 754.891 1091 1389.52> 662 323<1226 1407> 671 343<256.235 752.204>
CounterMasks: 1 e0
LayerCount: 2
UndoRedoHistory
Layer: 1
Undoes
EndUndoes
Redoes
EndRedoes
EndUndoRedoHistory
Fore
SplineSet
566 229 m 0
 472 229 451 332 451 441 c 2
 451 707 l 1
 467 738 509 777 563 777 c 0
 669 777 671 665 671 508 c 0
 671 328 658 229 566 229 c 0
561 -24 m 0
 909 -24 1014 216 1014 562 c 0
 1014 829 920 1044 655 1038 c 0
 564 1036 485 1003 451 944 c 1
 451 1091 l 2
 451 1347 468 1422 562 1422 c 0
 655 1422 662 1358 662 1226 c 1
 985 1226 l 1
 985 1228 985 1253 985 1255 c 0
 983 1530 875 1681 560 1681 c 0
 192 1681 103 1439 103 1114 c 2
 103 522 l 2
 103 208 236 -24 561 -24 c 0
EndSplineSet
EndChar

StartChar: slash
Encoding: 47 47 419
Width: 865
VWidth: 0
Flags: HW
LayerCount: 2
UndoRedoHistory
Layer: 1
Undoes
EndUndoes
Redoes
EndRedoes
EndUndoRedoHistory
Fore
SplineSet
88 0 m 1
 271 0 l 1
 776 1658 l 1
 593 1658 l 1
 88 0 l 1
EndSplineSet
EndChar

StartChar: sterling
Encoding: 163 163 421
Width: 1001
VWidth: 0
Flags: HW
HStem: 1402 279<510.271 624.175>
VStem: 163 322<1101 1389.55> 648 292<1183 1390.3>
LayerCount: 2
UndoRedoHistory
Layer: 1
Undoes
EndUndoes
Redoes
EndRedoes
EndUndoRedoHistory
Fore
SplineSet
41 0 m 1
 930 0 l 1
 930 282 l 1
 485 282 l 1
 485 656 l 1
 727 656 l 1
 727 915 l 1
 485 915 l 1
 485 1137 l 1
 486 1298 489 1402 566 1402 c 0
 645 1402 648 1302 648 1183 c 1
 940 1183 l 1
 940 1233 l 1
 939 1491 871 1681 564 1681 c 0
 202 1681 163 1421 163 1101 c 2
 163 917 l 1
 41 917 l 1
 41 656 l 1
 163 656 l 1
 163 245 l 1
 41 188 l 1
 41 0 l 1
EndSplineSet
EndChar

StartChar: summation
Encoding: 513 8721 422
Width: 879
VWidth: 0
Flags: HW
LayerCount: 2
UndoRedoHistory
Layer: 1
Undoes
EndUndoes
Redoes
EndRedoes
EndUndoRedoHistory
Fore
SplineSet
54 -390 m 1
 828 -390 l 1
 828 -142 l 1
 435 -142 l 1
 672 678 l 1
 442 1408 l 1
 824 1408 l 1
 824 1658 l 1
 54 1658 l 1
 313 672 l 1
 54 -390 l 1
EndSplineSet
EndChar

StartChar: t
Encoding: 116 116 423
Width: 724
VWidth: 0
Flags: HW
HStem: -14 272<488.128 669.959>
AnchorPoint: "cedilla" 340 0 basechar 0
LayerCount: 2
UndoRedoHistory
Layer: 1
Undoes
EndUndoes
Redoes
EndRedoes
EndUndoRedoHistory
Fore
SplineSet
440 -14 m 0
 552 -18 629 -4 672 3 c 1
 672 266 l 1
 664 265 623 255 583 258 c 1
 520 260 476 287 476 354 c 2
 476 966 l 1
 646 966 l 1
 646 1184 l 1
 476 1184 l 1
 476 1543 l 1
 139 1543 l 1
 139 1184 l 1
 26 1184 l 1
 26 966 l 1
 139 966 l 1
 139 414 l 2
 139 192 177 -5 440 -14 c 0
EndSplineSet
EndChar

StartChar: tbar
Encoding: 514 359 424
Width: 684
VWidth: 0
Flags: HW
HStem: -14 272<488.128 669.959>
LayerCount: 2
UndoRedoHistory
Layer: 1
Undoes
EndUndoes
Redoes
EndRedoes
EndUndoRedoHistory
Fore
SplineSet
647 622 m 1
 647 767 l 1
 28 767 l 1
 28 622 l 1
 647 622 l 1
EndSplineSet
Refer: 423 116 N 1 0 0 1 0 0 2
EndChar

StartChar: thorn
Encoding: 254 254 427
Width: 1012
VWidth: 0
Flags: HW
VStem: 601 335<207.29 349 854 985.609>
LayerCount: 2
UndoRedoHistory
Layer: 1
Undoes
EndUndoes
Redoes
EndRedoes
EndUndoRedoHistory
Fore
SplineSet
518 197 m 0
 487 197 457 209 429 226 c 1
 429 962 l 1
 458 984 488 999 515 1001 c 0
 578 1006 601 944 601 879 c 2
 601 331 l 2
 601 258 581 196 518 197 c 0
95 -390 m 1
 429 -390 l 1
 429 89 l 1
 505 22 591 -21 676 -21 c 0
 846 -21 936 130 936 349 c 2
 936 854 l 2
 936 1038 864 1199 683 1204 c 0
 599 1207 510 1170 429 1097 c 1
 429 1658 l 1
 95 1658 l 1
 95 -390 l 1
EndSplineSet
EndChar

StartChar: three
Encoding: 51 51 428
Width: 1078
VWidth: 0
Flags: HW
HStem: -30 288<473.725 643.127> 732 240<490 616.266> 1409 275<470.393 640.491>
VStem: 96 343<289.066 490 1205 1384.97> 670 338<279.332 679.69 1021.68 1378.35>
CounterMasks: 1 e0
LayerCount: 2
UndoRedoHistory
Layer: 1
Undoes
EndUndoes
Redoes
EndRedoes
EndUndoRedoHistory
Fore
SplineSet
555 -30 m 0
 886 -30 1008 184 1008 488 c 0
 1008 722 922 828 804 871 c 1
 919 902 1008 1041 1008 1234 c 0
 1008 1530 837 1684 550 1684 c 0
 268 1684 96 1518 96 1220 c 2
 96 1120 l 1
 439 1120 l 1
 439 1123 439 1202 439 1205 c 0
 440 1325 458 1409 551 1409 c 0
 642 1409 670 1340 670 1212 c 0
 670 1048 634 974 490 972 c 0
 487 972 438 972 436 972 c 1
 436 732 l 1
 438 732 493 732 496 732 c 0
 637 728 670 642 670 479 c 0
 670 333 654 258 559 258 c 0
 465 258 440 326 439 490 c 0
 439 493 439 544 439 548 c 1
 96 548 l 1
 96 489 l 2
 96 179 208 -30 555 -30 c 0
EndSplineSet
EndChar

StartChar: threequarters
Encoding: 190 190 429
Width: 1407
VWidth: 0
Flags: HW
HStem: 889 138<256.814 364.326> 1213 121<243 361.144> 1526 138<255.264 364.104>
VStem: 98 150<1034.24 1118 1435 1520.65> 369 163<1030.16 1203.14 1345.19 1523.81>
CounterMasks: 1 e0
LayerCount: 2
UndoRedoHistory
Layer: 1
Undoes
EndUndoes
Redoes
EndRedoes
EndUndoRedoHistory
Fore
SplineSet
900 381 m 1
 1049 644 l 1
 1049 381 l 1
 900 381 l 1
235 0 m 1
 402 0 l 1
 1168 1658 l 1
 1000 1658 l 1
 235 0 l 1
1049 1 m 1
 1219 1 l 1
 1219 229 l 1
 1326 229 l 1
 1326 381 l 1
 1219 381 l 1
 1219 859 l 1
 1066 859 l 1
 776 374 l 1
 776 229 l 1
 1049 229 l 1
 1049 1 l 1
321 889 m 0
 460 889 532 973 532 1119 c 0
 532 1215 489 1270 400 1284 c 1
 466 1291 528 1352 528 1445 c 0
 528 1585 465 1664 325 1664 c 0
 184 1664 98 1593 98 1435 c 1
 248 1435 l 1
 248 1486 259 1526 313 1526 c 0
 359 1526 371 1488 371 1430 c 0
 371 1354 336 1334 243 1334 c 1
 243 1213 l 1
 336 1213 369 1197 369 1117 c 0
 369 1066 357 1027 314 1027 c 0
 271 1027 248 1061 248 1118 c 1
 98 1118 l 1
 98 979 179 889 321 889 c 0
EndSplineSet
EndChar

StartChar: uni00B3
Encoding: 179 179 430
Width: 885
VWidth: 0
Flags: HW
HStem: 602 214<404.837 532.186> 1145 165<420 518.149> 1636 202<401.855 530.102>
VStem: 130 253<829.391 988 1497 1619.87> 549 247<823.858 1119.51 1337.78 1622.97>
CounterMasks: 1 e0
LayerCount: 2
UndoRedoHistory
Layer: 1
Undoes
EndUndoes
Redoes
EndRedoes
EndUndoRedoHistory
Fore
SplineSet
467 602 m 0
 703 602 796 755 796 975 c 0
 796 1148 727 1217 653 1246 c 1
 727 1265 796 1371 796 1509 c 0
 796 1729 671 1838 461 1838 c 0
 256 1838 130 1715 130 1501 c 2
 130 1412 l 1
 383 1412 l 1
 383 1497 l 2
 383 1581 403 1636 463 1636 c 0
 523 1636 549 1589 549 1497 c 0
 549 1380 522 1310 420 1310 c 2
 364 1310 l 1
 364 1145 l 1
 425 1145 l 2
 523 1145 549 1078 549 962 c 0
 549 863 529 816 468 816 c 0
 408 816 383 860 383 983 c 2
 383 1041 l 1
 130 1041 l 1
 130 988 l 2
 130 755 206 602 467 602 c 0
EndSplineSet
EndChar

StartChar: tilde
Encoding: 517 732 431
Width: 873
VWidth: 0
Flags: HW
VStem: 119 160<1381 1461.72> 621 148<1581.42 1658>
LayerCount: 2
UndoRedoHistory
Layer: 1
Undoes
EndUndoes
Redoes
EndRedoes
EndUndoRedoHistory
Fore
SplineSet
632 1368 m 0
 752 1376 770 1522 769 1658 c 1
 621 1658 l 1
 621 1612 608 1575 563 1582 c 1
 512 1588 410 1680 289 1671 c 0
 150 1661 118 1547 119 1381 c 1
 279 1381 l 1
 279 1423 291 1465 336 1465 c 0
 406 1465 533 1361 632 1368 c 0
EndSplineSet
EndChar

StartChar: tildecomb
Encoding: 518 771 432
Width: 873
VWidth: 0
Flags: HW
VStem: 119 160<1381 1461.72> 621 148<1581.42 1658>
LayerCount: 2
UndoRedoHistory
Layer: 1
Undoes
EndUndoes
Redoes
EndRedoes
EndUndoRedoHistory
Fore
SplineSet
632 1368 m 0
 752 1376 770 1522 769 1658 c 1
 621 1658 l 1
 621 1612 608 1575 563 1582 c 1
 512 1588 410 1680 289 1671 c 0
 150 1661 118 1547 119 1381 c 1
 279 1381 l 1
 279 1423 291 1465 336 1465 c 0
 406 1465 533 1361 632 1368 c 0
EndSplineSet
EndChar

StartChar: trademark
Encoding: 519 8482 433
Width: 1775
VWidth: 0
Flags: HW
LayerCount: 2
UndoRedoHistory
Layer: 1
Undoes
EndUndoes
Redoes
EndRedoes
EndUndoRedoHistory
Fore
SplineSet
314 656 m 1
 536 656 l 1
 536 1466 l 1
 722 1466 l 1
 722 1658 l 1
 121 1658 l 1
 121 1466 l 1
 314 1466 l 1
 314 656 l 1
802 656 m 1
 990 656 l 1
 990 1225 l 1
 1164 656 l 1
 1266 656 l 1
 1434 1221 l 1
 1434 656 l 1
 1624 656 l 1
 1624 1658 l 1
 1382 1658 l 1
 1210 1048 l 1
 1042 1658 l 1
 802 1658 l 1
 802 656 l 1
EndSplineSet
EndChar

StartChar: two
Encoding: 50 50 434
Width: 1085
VWidth: 0
Flags: HW
VStem: 110 332<1163 1349.51> 684 339<1078.01 1368.56>
LayerCount: 2
UndoRedoHistory
Layer: 1
Undoes
EndUndoes
Redoes
EndRedoes
EndUndoRedoHistory
Fore
SplineSet
111 0 m 1
 977 0 l 1
 977 269 l 1
 496 269 l 1
 799 722 l 1
 908 882 1023 1032 1023 1244 c 0
 1023 1519 871 1684 572 1684 c 0
 240 1684 110 1462 110 1169 c 2
 110 1083 l 1
 442 1083 l 1
 442 1163 l 2
 442 1310 478 1381 556 1391 c 1
 633 1404 684 1354 684 1248 c 0
 684 1103 580 971 504 853 c 2
 111 242 l 1
 111 0 l 1
EndSplineSet
EndChar

StartChar: uni00B2
Encoding: 178 178 435
Width: 885
VWidth: 0
Flags: HW
VStem: 142 243<1404 1605.1> 554 242<1377.46 1618.29>
LayerCount: 2
UndoRedoHistory
Layer: 1
Undoes
EndUndoes
Redoes
EndRedoes
EndUndoRedoHistory
Fore
SplineSet
143 621 m 1
 764 621 l 1
 764 819 l 1
 428 819 l 1
 636 1143 l 2
 711 1261 796 1368 796 1520 c 0
 796 1719 677 1838 469 1838 c 0
 235 1838 142 1678 142 1466 c 2
 142 1404 l 1
 385 1404 l 1
 385 1517 400 1618 462 1627 c 1
 517 1636 554 1599 554 1523 c 0
 554 1418 479 1333 425 1248 c 2
 143 813 l 1
 143 621 l 1
EndSplineSet
EndChar

StartChar: u
Encoding: 117 117 436
Width: 1030
VWidth: 0
Flags: HW
AnchorPoint: "ogonek" 640 0 basechar 0
LayerCount: 2
UndoRedoHistory
Layer: 1
Undoes
EndUndoes
Redoes
EndRedoes
EndUndoRedoHistory
Fore
SplineSet
311 -20 m 0
 413 -20 506 29 591 109 c 1
 591 0 l 1
 925 0 l 1
 925 1184 l 1
 591 1184 l 1
 591 243 l 1
 556 221 523 208 496 207 c 0
 444 206 428 239 428 295 c 2
 428 1184 l 1
 94 1184 l 1
 94 255 l 2
 94 101 166 -20 311 -20 c 0
EndSplineSet
EndChar

StartChar: underscore
Encoding: 95 95 444
Width: 753
VWidth: 0
Flags: HW
HStem: -342 225
LayerCount: 2
UndoRedoHistory
Layer: 1
Undoes
EndUndoes
Redoes
EndRedoes
EndUndoRedoHistory
Fore
SplineSet
0 -342 m 1
 753 -342 l 1
 753 -117 l 1
 0 -117 l 1
 0 -342 l 1
EndSplineSet
EndChar

StartChar: uni00AD
Encoding: 173 173 446
Width: 761
VWidth: 0
Flags: HW
HStem: 557 215
VStem: 132 512
LayerCount: 2
UndoRedoHistory
Layer: 1
Undoes
EndUndoes
Redoes
EndRedoes
EndUndoRedoHistory
Fore
SplineSet
132 557 m 1
 644 557 l 1
 644 772 l 1
 132 772 l 1
 132 557 l 1
EndSplineSet
EndChar

StartChar: uni0237
Encoding: 563 567 487
Width: 551
VWidth: 0
Flags: HW
HStem: -374 258<-21.3089 255>
AnchorPoint: "circumflexcomb" 215 1188 basechar 0
LayerCount: 2
UndoRedoHistory
Layer: 1
Undoes
EndUndoes
Redoes
EndRedoes
EndUndoRedoHistory
Fore
SplineSet
-23 -348 m 1
 31 -363 91 -374 154 -374 c 0
 356 -374 460 -244 460 -57 c 2
 460 1184 l 1
 126 1184 l 1
 126 -17 l 2
 126 -88 91 -116 36 -116 c 0
 17 -116 -5 -112 -23 -108 c 1
 -23 -348 l 1
EndSplineSet
EndChar

StartChar: uni0302
Encoding: 565 770 489
Width: 829
VWidth: 0
Flags: HW
HStem: 1267 391
AnchorPoint: "circumflexcomb" 328 1225 mark 0
LayerCount: 2
UndoRedoHistory
Layer: 1
Undoes
EndUndoes
Redoes
EndRedoes
EndUndoRedoHistory
Fore
SplineSet
90 1267 m 1
 334 1267 l 1
 423 1509 l 1
 512 1267 l 1
 757 1267 l 1
 558 1658 l 1
 283 1658 l 1
 90 1267 l 1
EndSplineSet
EndChar

StartChar: uni0304
Encoding: 566 772 490
Width: 366
VWidth: 0
Flags: HW
HStem: 1501 157
VStem: -87 560
LayerCount: 2
UndoRedoHistory
Layer: 1
Undoes
EndUndoes
Redoes
EndRedoes
EndUndoRedoHistory
Fore
SplineSet
-87 1501 m 1
 473 1501 l 1
 473 1658 l 1
 -87 1658 l 1
 -87 1501 l 1
EndSplineSet
EndChar

StartChar: uni0306
Encoding: 567 774 491
Width: 667
VWidth: 0
Flags: HW
HStem: 1400 137<195.742 442.589>
VStem: 28 147<1561.48 1658> 464 146<1561.48 1658>
LayerCount: 2
UndoRedoHistory
Layer: 1
Undoes
EndUndoes
Redoes
EndRedoes
EndUndoRedoHistory
Fore
SplineSet
319 1400 m 0
 503 1400 610 1496 610 1658 c 1
 464 1658 l 1
 464 1575 420 1537 319 1537 c 0
 218 1537 175 1574 175 1658 c 1
 28 1658 l 1
 28 1496 135 1400 319 1400 c 0
EndSplineSet
EndChar

StartChar: uni0307
Encoding: 568 775 492
Width: 374
VWidth: 0
Flags: HW
HStem: 1344 314
VStem: 36 317
LayerCount: 2
UndoRedoHistory
Layer: 1
Undoes
EndUndoes
Redoes
EndRedoes
EndUndoRedoHistory
Fore
SplineSet
36 1344 m 1
 353 1344 l 1
 353 1658 l 1
 36 1658 l 1
 36 1344 l 1
EndSplineSet
EndChar

StartChar: uni0308
Encoding: 569 776 493
Width: 870
VWidth: 0
Flags: HW
HStem: 1355 303
LayerCount: 2
UndoRedoHistory
Layer: 1
Undoes
EndUndoes
Redoes
EndRedoes
EndUndoRedoHistory
Fore
SplineSet
521 1355 m 1
 790 1355 l 1
 790 1658 l 1
 521 1658 l 1
 521 1355 l 1
80 1355 m 1
 349 1355 l 1
 349 1658 l 1
 80 1658 l 1
 80 1355 l 1
EndSplineSet
EndChar

StartChar: uni030A
Encoding: 570 778 494
Width: 165
VWidth: 0
Flags: HW
HStem: 1228 119<-7.32465 159.709> 1564 118<-7.32465 159.709>
VStem: -163 137<1362.97 1548.2> 178 140<1362.97 1548>
LayerCount: 2
UndoRedoHistory
Layer: 1
Undoes
EndUndoes
Redoes
EndRedoes
EndUndoRedoHistory
Fore
SplineSet
76 1347 m 0
 9 1347 -26 1397 -26 1456 c 0
 -26 1514 9 1564 76 1564 c 0
 143 1564 178 1514 178 1456 c 0
 178 1397 143 1347 76 1347 c 0
76 1228 m 0
 208 1228 318 1307 318 1456 c 0
 318 1603 208 1682 76 1682 c 0
 -55 1682 -163 1604 -163 1456 c 0
 -163 1307 -55 1228 76 1228 c 0
EndSplineSet
EndChar

StartChar: uni030C
Encoding: 571 780 495
Width: 625
VWidth: 0
Flags: HW
HStem: 1278 380
LayerCount: 2
UndoRedoHistory
Layer: 1
Undoes
EndUndoes
Redoes
EndRedoes
EndUndoRedoHistory
Fore
SplineSet
174 1278 m 1
 495 1278 l 1
 677 1658 l 1
 440 1658 l 1
 335 1435 l 1
 233 1658 l 1
 -3 1658 l 1
 174 1278 l 1
EndSplineSet
EndChar

StartChar: uni030F
Encoding: 572 783 496
Width: 893
VWidth: 0
Flags: HW
HStem: 1275 422
LayerCount: 2
UndoRedoHistory
Layer: 1
Undoes
EndUndoes
Redoes
EndRedoes
EndUndoRedoHistory
Fore
SplineSet
632 1275 m 1
 811 1275 l 1
 690 1697 l 1
 447 1697 l 1
 632 1275 l 1
276 1275 m 1
 456 1275 l 1
 326 1697 l 1
 68 1697 l 1
 276 1275 l 1
EndSplineSet
EndChar

StartChar: uni0311
Encoding: 573 785 497
Width: 667
VWidth: 0
Flags: HW
HStem: 1522 136<217.608 419.799>
VStem: 55 146<1400 1502.64> 436 146<1400 1503.06>
LayerCount: 2
UndoRedoHistory
Layer: 1
Undoes
EndUndoes
Redoes
EndRedoes
EndUndoRedoHistory
Fore
SplineSet
55 1400 m 1
 201 1400 l 1
 201 1483 232 1522 319 1522 c 0
 406 1522 436 1484 436 1400 c 1
 582 1400 l 1
 582 1563 488 1658 319 1658 c 0
 149 1658 55 1562 55 1400 c 1
EndSplineSet
EndChar

StartChar: uni0326
Encoding: 574 806 498
Width: 414
VWidth: 0
Flags: HW
HStem: -656 113<99 169.265>
VStem: 216 141<-500.295 -381>
LayerCount: 2
UndoRedoHistory
Layer: 1
Undoes
EndUndoes
Redoes
EndRedoes
EndUndoRedoHistory
Fore
SplineSet
99 -656 m 1
 280 -655 357 -539 357 -337 c 2
 358 -69 l 1
 43 -69 l 1
 43 -381 l 1
 216 -381 l 1
 216 -497 147 -532 71 -543 c 1
 99 -656 l 1
EndSplineSet
EndChar

StartChar: afii10050
Encoding: 579 1168 503
Width: 938
VWidth: 0
Flags: HW
LayerCount: 2
UndoRedoHistory
Layer: 1
Undoes
EndUndoes
Redoes
EndRedoes
EndUndoRedoHistory
Fore
SplineSet
129 0 m 1
 496 0 l 1
 496 1387 l 1
 893 1387 l 1
 893 1928 l 1
 678 1928 l 1
 678 1658 l 1
 129 1658 l 1
 129 0 l 1
EndSplineSet
EndChar

StartChar: uni04AE
Encoding: 580 -1 504
Width: 1009
VWidth: 0
Flags: HW
LayerCount: 2
UndoRedoHistory
Layer: 1
Undoes
EndUndoes
Redoes
EndRedoes
EndUndoRedoHistory
Fore
SplineSet
330 0 m 1
 682 0 l 1
 682 714 l 1
 994 1658 l 1
 660 1658 l 1
 568 1281 l 1
 518 1059 l 1
 462 1282 l 1
 360 1658 l 1
 15 1658 l 1
 330 714 l 1
 330 0 l 1
EndSplineSet
EndChar

StartChar: uni04AF
Encoding: 581 1199 505
Width: 912
VWidth: 0
Flags: HW
LayerCount: 2
UndoRedoHistory
Layer: 1
Undoes
EndUndoes
Redoes
EndRedoes
EndUndoRedoHistory
Fore
SplineSet
319 -360 m 1
 611 -360 l 1
 611 165 l 1
 894 1184 l 1
 593 1184 l 1
 463 572 l 1
 306 1184 l 1
 5 1184 l 1
 319 162 l 1
 319 -360 l 1
EndSplineSet
EndChar

StartChar: uni04B0
Encoding: 582 1200 506
Width: 1030
VWidth: 0
Flags: HW
LayerCount: 2
UndoRedoHistory
Layer: 1
Undoes
EndUndoes
Redoes
EndRedoes
EndUndoRedoHistory
Fore
SplineSet
57 583 m 1
 991 583 l 1
 991 810 l 1
 57 810 l 1
 57 583 l 1
EndSplineSet
Refer: 504 -1 N 1 0 0 1 14 0 2
EndChar

StartChar: uni04B1
Encoding: 583 1201 507
Width: 916
VWidth: 0
Flags: HW
LayerCount: 2
UndoRedoHistory
Layer: 1
Undoes
EndUndoes
Redoes
EndRedoes
EndUndoRedoHistory
Fore
SplineSet
84 -9 m 1
 839 -9 l 1
 839 183 l 1
 84 183 l 1
 84 -9 l 1
EndSplineSet
Refer: 505 1199 N 1 0 0 1 0 0 2
EndChar

StartChar: uni04E8
Encoding: 584 1256 508
Width: 1198
VWidth: 0
Flags: HW
HStem: -23 259<509.514 686.739> 1422 259<508.497 687.793>
VStem: 99 376<268.589 524 1136 1391.46> 724 376<269.025 524 1136 1390.59>
LayerCount: 2
UndoRedoHistory
Layer: 1
Undoes
EndUndoes
Redoes
EndRedoes
EndUndoRedoHistory
Fore
SplineSet
284 745 m 1
 905 745 l 1
 905 972 l 1
 284 972 l 1
 284 745 l 1
EndSplineSet
Refer: 69 79 N 1 0 0 1 0 0 2
EndChar

StartChar: uni04E9
Encoding: 585 1257 509
Width: 989
VWidth: 0
Flags: HW
HStem: -21 224<430.229 562.32> 981 223<430.229 562.32>
VStem: 81 329<217.762 368 815 965.639> 578 330<217.361 368 815 965.639>
LayerCount: 2
UndoRedoHistory
Layer: 1
Undoes
EndUndoes
Redoes
EndRedoes
EndUndoRedoHistory
Fore
SplineSet
250 519 m 1
 750 519 l 1
 750 680 l 1
 250 680 l 1
 250 519 l 1
EndSplineSet
Refer: 360 111 N 1 0 0 1 0 0 2
EndChar

StartChar: uni2074
Encoding: 600 8308 524
Width: 926
VWidth: 0
Flags: HW
LayerCount: 2
UndoRedoHistory
Layer: 1
Undoes
EndUndoes
Redoes
EndRedoes
EndUndoRedoHistory
Fore
SplineSet
250 896 m 1
 440 1306 l 1
 440 896 l 1
 250 896 l 1
440 449 m 1
 736 449 l 1
 736 741 l 1
 863 741 l 1
 863 896 l 1
 736 896 l 1
 736 1658 l 1
 438 1658 l 1
 75 894 l 1
 75 741 l 1
 440 741 l 1
 440 449 l 1
EndSplineSet
EndChar

StartChar: uni2215
Encoding: 601 8725 525
Width: 864
VWidth: 0
Flags: HW
LayerCount: 2
UndoRedoHistory
Layer: 1
Undoes
EndUndoes
Redoes
EndRedoes
EndUndoRedoHistory
Fore
SplineSet
88 0 m 1
 271 0 l 1
 776 1658 l 1
 593 1658 l 1
 88 0 l 1
EndSplineSet
EndChar

StartChar: uni2219
Encoding: 602 8729 526
Width: 457
VWidth: 0
Flags: HW
HStem: 616 309
VStem: 72 315
LayerCount: 2
UndoRedoHistory
Layer: 1
Undoes
EndUndoes
Redoes
EndRedoes
EndUndoRedoHistory
Fore
SplineSet
72 616 m 1
 387 616 l 1
 387 925 l 1
 72 925 l 1
 72 616 l 1
EndSplineSet
EndChar

StartChar: uniFB01
Encoding: 604 64257 528
Width: 1130
VWidth: 0
Flags: HW
HStem: 1382 237<336.5 603>
LayerCount: 2
UndoRedoHistory
Layer: 1
Undoes
EndUndoes
Redoes
EndRedoes
EndUndoRedoHistory
Fore
SplineSet
716 1383 m 1
 1027 1383 l 1
 1027 1618 l 1
 716 1618 l 1
 716 1383 l 1
143 0 m 1
 477 0 l 1
 477 957 l 1
 695 957 l 1
 695 0 l 1
 1026 0 l 1
 1026 1184 l 1
 477 1184 l 1
 477 1282 l 2
 477 1359 505 1382 555 1382 c 0
 570 1382 586 1380 603 1377 c 1
 603 1607 l 1
 550 1615 503 1619 460 1619 c 0
 213 1619 143 1481 143 1267 c 2
 143 1184 l 1
 30 1184 l 1
 30 957 l 1
 143 957 l 1
 143 0 l 1
EndSplineSet
EndChar

StartChar: uniFB02
Encoding: 605 64258 529
Width: 1132
VWidth: 0
Flags: HW
HStem: 1428 225<502.879 705.231>
LayerCount: 2
UndoRedoHistory
Layer: 1
Undoes
EndUndoes
Redoes
EndRedoes
EndUndoRedoHistory
Fore
SplineSet
469 949 m 1
 596 949 l 1
 596 1184 l 1
 469 1184 l 1
 469 1266 l 2
 469 1357 478 1428 636 1428 c 0
 657 1428 681 1427 707 1424 c 1
 707 0 l 1
 1042 0 l 1
 1042 1607 l 1
 865 1639 722 1653 607 1653 c 0
 163 1653 136 1446 136 1267 c 2
 136 1184 l 1
 22 1184 l 1
 22 949 l 1
 136 949 l 1
 136 0 l 1
 469 0 l 1
 469 949 l 1
EndSplineSet
EndChar

StartChar: uniFB03
Encoding: 606 64259 530
Width: 1646
VWidth: 0
Flags: HW
HStem: 1184 21G<469 678> 1368 249<474.657 598 1018.08 1145>
LayerCount: 2
UndoRedoHistory
Layer: 1
Undoes
EndUndoes
Redoes
EndRedoes
EndUndoRedoHistory
Fore
SplineSet
136 0 m 1
 469 0 l 1
 469 959 l 1
 678 959 l 1
 678 0 l 1
 1012 0 l 1
 1012 959 l 1
 1217 959 l 1
 1217 0 l 1
 1551 0 l 1
 1551 1184 l 1
 1012 1184 l 1
 1012 1277 l 2
 1012 1341 1035 1368 1081 1368 c 0
 1101 1368 1125 1362 1145 1359 c 1
 1145 1607 l 1
 1084 1614 1054 1617 1003 1617 c 0
 715 1617 678 1478 678 1267 c 2
 678 1184 l 1
 469 1184 l 1
 469 1277 l 2
 469 1341 490 1368 536 1368 c 0
 555 1368 579 1362 598 1359 c 1
 598 1607 l 1
 537 1614 512 1617 461 1617 c 0
 173 1617 136 1478 136 1267 c 2
 136 1184 l 1
 22 1184 l 1
 22 959 l 1
 136 959 l 1
 136 0 l 1
1244 1383 m 1
 1551 1383 l 1
 1551 1618 l 1
 1244 1618 l 1
 1244 1383 l 1
EndSplineSet
EndChar

StartChar: v
Encoding: 118 118 535
Width: 863
VWidth: 0
Flags: HW
LayerCount: 2
UndoRedoHistory
Layer: 1
Undoes
EndUndoes
Redoes
EndRedoes
EndUndoRedoHistory
Fore
SplineSet
257 0 m 1
 606 0 l 1
 847 1184 l 1
 528 1184 l 1
 438 426 l 1
 341 1184 l 1
 21 1184 l 1
 257 0 l 1
EndSplineSet
EndChar

StartChar: w
Encoding: 119 119 536
Width: 1225
VWidth: 0
Flags: HW
VStem: 501 241<1081.51 1184>
LayerCount: 2
UndoRedoHistory
Layer: 1
Undoes
EndUndoes
Redoes
EndRedoes
EndUndoRedoHistory
Fore
SplineSet
218 0 m 1
 502 0 l 1
 615 663 l 1
 717 0 l 1
 1002 0 l 1
 1181 1184 l 1
 922 1184 l 1
 823 497 l 1
 742 1184 l 1
 501 1184 l 1
 407 512 l 1
 322 1184 l 1
 43 1184 l 1
 218 0 l 1
EndSplineSet
EndChar

StartChar: x
Encoding: 120 120 541
Width: 904
VWidth: 0
Flags: HW
LayerCount: 2
UndoRedoHistory
Layer: 1
Undoes
EndUndoes
Redoes
EndRedoes
EndUndoRedoHistory
Fore
SplineSet
20 0 m 1
 299 0 l 1
 416 324 l 1
 561 0 l 1
 898 0 l 1
 630 599 l 1
 866 1184 l 1
 607 1184 l 1
 496 899 l 1
 369 1184 l 1
 33 1184 l 1
 272 649 l 1
 20 0 l 1
EndSplineSet
EndChar

StartChar: y
Encoding: 121 121 542
Width: 915
VWidth: 0
Flags: HW
HStem: -343 231<136 310.909>
LayerCount: 2
UndoRedoHistory
Layer: 1
Undoes
EndUndoes
Redoes
EndRedoes
EndUndoRedoHistory
Fore
SplineSet
136 -343 m 1
 182 -343 l 1
 385 -345 566 -285 615 -64 c 2
 894 1184 l 1
 579 1184 l 1
 467 501 l 1
 320 1184 l 1
 5 1184 l 1
 27 1091 259 282 281 189 c 1
 293 147 321 40 325 3 c 1
 332 -98 269 -112 136 -112 c 1
 136 -343 l 1
EndSplineSet
EndChar

StartChar: yen
Encoding: 165 165 546
Width: 975
VWidth: 0
Flags: HW
LayerCount: 2
UndoRedoHistory
Layer: 1
Undoes
EndUndoes
Redoes
EndRedoes
EndUndoRedoHistory
Fore
SplineSet
318 0 m 1
 670 0 l 1
 670 244 l 1
 840 244 l 1
 840 411 l 1
 670 411 l 1
 670 545 l 1
 840 545 l 1
 840 717 l 1
 711 717 l 1
 982 1658 l 1
 648 1658 l 1
 506 1025 l 1
 347 1658 l 1
 3 1658 l 1
 277 717 l 1
 149 717 l 1
 149 545 l 1
 318 545 l 1
 318 411 l 1
 149 411 l 1
 149 244 l 1
 318 244 l 1
 318 0 l 1
EndSplineSet
EndChar

StartChar: z
Encoding: 122 122 548
Width: 801
VWidth: 0
Flags: HW
VStem: 71 677
LayerCount: 2
UndoRedoHistory
Layer: 1
Undoes
EndUndoes
Redoes
EndRedoes
EndUndoRedoHistory
Fore
SplineSet
71 0 m 1
 748 0 l 1
 748 245 l 1
 418 245 l 1
 743 981 l 1
 743 1184 l 1
 96 1184 l 1
 96 940 l 1
 397 940 l 1
 71 216 l 1
 71 0 l 1
EndSplineSet
EndChar

StartChar: zero
Encoding: 48 48 552
Width: 1094
VWidth: 0
Flags: HW
HStem: -30 304<476.572 619.031> 1377 306<473.887 621.137>
VStem: 95 351<296.819 454 1187 1349.54> 650 349<297.561 454 1187 1349.17>
LayerCount: 2
UndoRedoHistory
Layer: 1
Undoes
EndUndoes
Redoes
EndRedoes
EndUndoRedoHistory
Fore
SplineSet
548 -30 m 0
 841 -30 999 166 999 445 c 2
 999 1197 l 2
 999 1486 856 1683 548 1683 c 0
 237 1683 95 1487 95 1197 c 2
 95 445 l 2
 95 164 249 -30 548 -30 c 0
548 274 m 0
 454 274 446 391 446 454 c 2
 446 1187 l 2
 446 1256 443 1377 548 1377 c 0
 650 1377 650 1256 650 1187 c 2
 650 454 l 2
 650 390 643 274 548 274 c 0
EndSplineSet
EndChar

StartChar: afii00208
Encoding: 620 8213 553
Width: 4096
VWidth: 0
Flags: HW
HStem: 605 215<130 3967>
LayerCount: 2
UndoRedoHistory
Layer: 1
Undoes
EndUndoes
Redoes
EndRedoes
EndUndoRedoHistory
Fore
SplineSet
130 605 m 1
 130 820 l 1
 3967 820 l 1
 3967 605 l 1
 130 605 l 1
EndSplineSet
EndChar

